<svg xmlns="http://www.w3.org/2000/svg" xmlns:xlink="http://www.w3.org/1999/xlink" width="500" zoomAndPan="magnify" viewBox="0 0 375 374.999991" height="500" preserveAspectRatio="xMidYMid meet" version="1.0"><defs><clipPath id="9cc588f7be"><path d="M 56.464844 59 L 318.214844 59 L 318.214844 321.199219 L 56.464844 321.199219 Z M 56.464844 59 " clip-rule="nonzero"/></clipPath><clipPath id="b11c6e7b9d"><path d="M 56.464844 53.449219 L 318.214844 53.449219 L 318.214844 316 L 56.464844 316 Z M 56.464844 53.449219 " clip-rule="nonzero"/></clipPath></defs><g clip-path="url(#9cc588f7be)"><path fill="#c46019" d="M 318.214844 190.304688 C 318.214844 192.449219 318.164062 194.589844 318.058594 196.726562 C 317.953125 198.867188 317.792969 201 317.585938 203.132812 C 317.375 205.265625 317.113281 207.390625 316.796875 209.507812 C 316.484375 211.625 316.117188 213.734375 315.699219 215.835938 C 315.28125 217.9375 314.8125 220.027344 314.292969 222.105469 C 313.773438 224.179688 313.199219 226.246094 312.578125 228.292969 C 311.957031 230.34375 311.285156 232.375 310.5625 234.394531 C 309.84375 236.410156 309.070312 238.40625 308.253906 240.386719 C 307.433594 242.363281 306.566406 244.324219 305.648438 246.257812 C 304.734375 248.195312 303.769531 250.105469 302.761719 251.996094 C 301.75 253.882812 300.695312 255.746094 299.59375 257.585938 C 298.492188 259.421875 297.347656 261.230469 296.160156 263.011719 C 294.96875 264.792969 293.734375 266.542969 292.460938 268.261719 C 291.183594 269.984375 289.867188 271.671875 288.507812 273.328125 C 287.148438 274.980469 285.75 276.601562 284.3125 278.191406 C 282.875 279.777344 281.398438 281.328125 279.882812 282.84375 C 278.367188 284.355469 276.816406 285.832031 275.230469 287.269531 C 273.644531 288.710938 272.023438 290.109375 270.367188 291.46875 C 268.710938 292.824219 267.023438 294.144531 265.300781 295.417969 C 263.582031 296.695312 261.832031 297.925781 260.050781 299.117188 C 258.269531 300.308594 256.460938 301.453125 254.625 302.554688 C 252.785156 303.65625 250.921875 304.710938 249.035156 305.71875 C 247.144531 306.730469 245.234375 307.691406 243.296875 308.609375 C 241.359375 309.523438 239.402344 310.390625 237.425781 311.210938 C 235.445312 312.03125 233.449219 312.800781 231.429688 313.523438 C 229.414062 314.242188 227.382812 314.914062 225.332031 315.539062 C 223.28125 316.160156 221.21875 316.730469 219.140625 317.25 C 217.0625 317.769531 214.972656 318.238281 212.871094 318.65625 C 210.773438 319.074219 208.664062 319.441406 206.542969 319.753906 C 204.425781 320.070312 202.300781 320.332031 200.167969 320.542969 C 198.035156 320.753906 195.902344 320.910156 193.761719 321.015625 C 191.621094 321.121094 189.480469 321.171875 187.339844 321.171875 C 185.199219 321.171875 183.058594 321.121094 180.917969 321.015625 C 178.78125 320.910156 176.644531 320.753906 174.511719 320.542969 C 172.382812 320.332031 170.257812 320.070312 168.136719 319.753906 C 166.019531 319.441406 163.910156 319.074219 161.808594 318.65625 C 159.707031 318.238281 157.617188 317.769531 155.539062 317.25 C 153.464844 316.730469 151.398438 316.160156 149.351562 315.539062 C 147.300781 314.914062 145.265625 314.242188 143.25 313.523438 C 141.234375 312.800781 139.234375 312.03125 137.257812 311.210938 C 135.277344 310.390625 133.320312 309.523438 131.382812 308.609375 C 129.449219 307.691406 127.535156 306.730469 125.648438 305.71875 C 123.757812 304.710938 121.894531 303.65625 120.058594 302.554688 C 118.21875 301.453125 116.410156 300.308594 114.628906 299.117188 C 112.851562 297.925781 111.097656 296.695312 109.378906 295.417969 C 107.660156 294.144531 105.96875 292.824219 104.316406 291.46875 C 102.660156 290.109375 101.039062 288.710938 99.449219 287.269531 C 97.863281 285.832031 96.3125 284.355469 94.796875 282.84375 C 93.285156 281.328125 91.808594 279.777344 90.367188 278.191406 C 88.929688 276.601562 87.53125 274.980469 86.171875 273.328125 C 84.8125 271.671875 83.496094 269.984375 82.222656 268.261719 C 80.945312 266.542969 79.710938 264.792969 78.523438 263.011719 C 77.332031 261.230469 76.1875 259.421875 75.085938 257.585938 C 73.984375 255.746094 72.929688 253.882812 71.917969 251.996094 C 70.910156 250.105469 69.945312 248.195312 69.03125 246.257812 C 68.117188 244.324219 67.246094 242.363281 66.429688 240.386719 C 65.609375 238.40625 64.839844 236.410156 64.117188 234.394531 C 63.394531 232.375 62.722656 230.34375 62.101562 228.292969 C 61.480469 226.246094 60.910156 224.179688 60.386719 222.105469 C 59.867188 220.027344 59.398438 217.9375 58.980469 215.835938 C 58.5625 213.734375 58.195312 211.625 57.882812 209.507812 C 57.570312 207.390625 57.304688 205.265625 57.097656 203.132812 C 56.886719 201 56.730469 198.867188 56.625 196.726562 C 56.519531 194.589844 56.464844 192.449219 56.464844 190.304688 C 56.464844 188.164062 56.519531 186.023438 56.625 183.882812 C 56.730469 181.746094 56.886719 179.609375 57.097656 177.480469 C 57.304688 175.347656 57.570312 173.222656 57.882812 171.105469 C 58.195312 168.984375 58.5625 166.875 58.980469 164.773438 C 59.398438 162.675781 59.867188 160.585938 60.386719 158.507812 C 60.910156 156.429688 61.480469 154.367188 62.101562 152.316406 C 62.722656 150.269531 63.394531 148.234375 64.117188 146.21875 C 64.839844 144.203125 65.609375 142.203125 66.429688 140.226562 C 67.246094 138.246094 68.117188 136.289062 69.03125 134.351562 C 69.945312 132.417969 70.910156 130.503906 71.917969 128.617188 C 72.929688 126.726562 73.984375 124.863281 75.085938 123.027344 C 76.1875 121.191406 77.332031 119.382812 78.523438 117.601562 C 79.710938 115.820312 80.945312 114.070312 82.222656 112.347656 C 83.496094 110.628906 84.8125 108.941406 86.171875 107.285156 C 87.53125 105.628906 88.929688 104.007812 90.367188 102.421875 C 91.808594 100.835938 93.285156 99.285156 94.796875 97.769531 C 96.3125 96.253906 97.863281 94.777344 99.449219 93.339844 C 101.039062 91.902344 102.660156 90.503906 104.316406 89.144531 C 105.96875 87.785156 107.660156 86.46875 109.378906 85.191406 C 111.097656 83.917969 112.851562 82.683594 114.628906 81.496094 C 116.410156 80.304688 118.21875 79.160156 120.058594 78.058594 C 121.894531 76.957031 123.757812 75.902344 125.648438 74.890625 C 127.535156 73.882812 129.449219 72.917969 131.382812 72.003906 C 133.320312 71.089844 135.277344 70.21875 137.257812 69.402344 C 139.234375 68.582031 141.234375 67.8125 143.25 67.089844 C 145.265625 66.367188 147.300781 65.695312 149.351562 65.074219 C 151.398438 64.453125 153.464844 63.882812 155.539062 63.363281 C 157.617188 62.839844 159.707031 62.371094 161.808594 61.953125 C 163.910156 61.535156 166.019531 61.171875 168.136719 60.855469 C 170.257812 60.542969 172.382812 60.28125 174.511719 60.070312 C 176.644531 59.859375 178.78125 59.703125 180.917969 59.597656 C 183.058594 59.492188 185.199219 59.4375 187.339844 59.4375 C 189.480469 59.4375 191.621094 59.492188 193.761719 59.597656 C 195.902344 59.703125 198.035156 59.859375 200.167969 60.070312 C 202.300781 60.28125 204.425781 60.542969 206.542969 60.855469 C 208.664062 61.171875 210.773438 61.535156 212.871094 61.953125 C 214.972656 62.371094 217.0625 62.839844 219.140625 63.363281 C 221.21875 63.882812 223.28125 64.453125 225.332031 65.074219 C 227.382812 65.695312 229.414062 66.367188 231.429688 67.089844 C 233.449219 67.8125 235.445312 68.582031 237.425781 69.402344 C 239.402344 70.21875 241.359375 71.089844 243.296875 72.003906 C 245.234375 72.917969 247.144531 73.882812 249.035156 74.890625 C 250.921875 75.902344 252.785156 76.957031 254.625 78.058594 C 256.460938 79.160156 258.269531 80.304688 260.050781 81.496094 C 261.832031 82.683594 263.582031 83.917969 265.300781 85.191406 C 267.023438 86.46875 268.710938 87.785156 270.367188 89.144531 C 272.023438 90.503906 273.644531 91.902344 275.230469 93.339844 C 276.816406 94.777344 278.367188 96.253906 279.882812 97.769531 C 281.398438 99.285156 282.875 100.835938 284.3125 102.421875 C 285.75 104.007812 287.148438 105.628906 288.507812 107.285156 C 289.867188 108.941406 291.183594 110.628906 292.460938 112.347656 C 293.734375 114.070312 294.96875 115.820312 296.160156 117.601562 C 297.347656 119.382812 298.492188 121.191406 299.59375 123.027344 C 300.695312 124.863281 301.75 126.726562 302.761719 128.617188 C 303.769531 130.503906 304.734375 132.417969 305.648438 134.351562 C 306.566406 136.289062 307.433594 138.246094 308.253906 140.226562 C 309.070312 142.203125 309.84375 144.203125 310.5625 146.21875 C 311.285156 148.234375 311.957031 150.269531 312.578125 152.316406 C 313.199219 154.367188 313.773438 156.429688 314.292969 158.507812 C 314.8125 160.585938 315.28125 162.675781 315.699219 164.773438 C 316.117188 166.875 316.484375 168.984375 316.796875 171.105469 C 317.113281 173.222656 317.375 175.347656 317.585938 177.480469 C 317.792969 179.609375 317.953125 181.746094 318.058594 183.882812 C 318.164062 186.023438 318.214844 188.164062 318.214844 190.304688 Z M 318.214844 190.304688 " fill-opacity="1" fill-rule="nonzero"/></g><g clip-path="url(#b11c6e7b9d)"><path fill="#ff8228" d="M 318.214844 184.34375 C 318.214844 186.484375 318.164062 188.625 318.058594 190.765625 C 317.953125 192.90625 317.792969 195.039062 317.585938 197.171875 C 317.375 199.304688 317.113281 201.429688 316.796875 203.546875 C 316.484375 205.664062 316.117188 207.773438 315.699219 209.875 C 315.28125 211.976562 314.8125 214.066406 314.292969 216.140625 C 313.773438 218.21875 313.199219 220.285156 312.578125 222.332031 C 311.957031 224.382812 311.285156 226.414062 310.5625 228.433594 C 309.84375 230.449219 309.070312 232.445312 308.253906 234.425781 C 307.433594 236.402344 306.566406 238.359375 305.648438 240.296875 C 304.734375 242.234375 303.769531 244.144531 302.761719 246.035156 C 301.75 247.921875 300.695312 249.785156 299.59375 251.625 C 298.492188 253.460938 297.347656 255.269531 296.160156 257.050781 C 294.96875 258.832031 293.734375 260.582031 292.460938 262.300781 C 291.183594 264.023438 289.867188 265.710938 288.507812 267.363281 C 287.148438 269.019531 285.75 270.640625 284.3125 272.230469 C 282.875 273.816406 281.398438 275.367188 279.882812 276.882812 C 278.367188 278.394531 276.816406 279.871094 275.230469 281.308594 C 273.644531 282.75 272.023438 284.148438 270.367188 285.503906 C 268.710938 286.863281 267.023438 288.179688 265.300781 289.457031 C 263.582031 290.734375 261.832031 291.964844 260.050781 293.15625 C 258.269531 294.347656 256.460938 295.492188 254.625 296.59375 C 252.785156 297.691406 250.921875 298.75 249.035156 299.757812 C 247.144531 300.769531 245.234375 301.730469 243.296875 302.644531 C 241.359375 303.5625 239.402344 304.429688 237.425781 305.25 C 235.445312 306.070312 233.449219 306.839844 231.429688 307.5625 C 229.414062 308.28125 227.382812 308.953125 225.332031 309.574219 C 223.28125 310.199219 221.21875 310.769531 219.140625 311.289062 C 217.0625 311.808594 214.972656 312.277344 212.871094 312.695312 C 210.773438 313.113281 208.664062 313.480469 206.542969 313.792969 C 204.425781 314.109375 202.300781 314.371094 200.167969 314.582031 C 198.035156 314.789062 195.902344 314.949219 193.761719 315.054688 C 191.621094 315.160156 189.480469 315.210938 187.339844 315.210938 C 185.199219 315.210938 183.058594 315.160156 180.917969 315.054688 C 178.78125 314.949219 176.644531 314.789062 174.511719 314.582031 C 172.382812 314.371094 170.257812 314.109375 168.136719 313.792969 C 166.019531 313.480469 163.910156 313.113281 161.808594 312.695312 C 159.707031 312.277344 157.617188 311.808594 155.539062 311.289062 C 153.464844 310.769531 151.398438 310.199219 149.351562 309.574219 C 147.300781 308.953125 145.265625 308.28125 143.25 307.5625 C 141.234375 306.839844 139.234375 306.070312 137.257812 305.25 C 135.277344 304.429688 133.320312 303.5625 131.382812 302.644531 C 129.449219 301.730469 127.535156 300.769531 125.648438 299.757812 C 123.757812 298.75 121.894531 297.691406 120.058594 296.59375 C 118.21875 295.492188 116.410156 294.347656 114.628906 293.15625 C 112.851562 291.964844 111.097656 290.734375 109.378906 289.457031 C 107.660156 288.179688 105.96875 286.863281 104.316406 285.503906 C 102.660156 284.148438 101.039062 282.75 99.449219 281.308594 C 97.863281 279.871094 96.3125 278.394531 94.796875 276.882812 C 93.285156 275.367188 91.808594 273.816406 90.367188 272.230469 C 88.929688 270.640625 87.53125 269.019531 86.171875 267.363281 C 84.8125 265.710938 83.496094 264.023438 82.222656 262.300781 C 80.945312 260.582031 79.710938 258.832031 78.523438 257.050781 C 77.332031 255.269531 76.1875 253.460938 75.085938 251.625 C 73.984375 249.785156 72.929688 247.921875 71.917969 246.035156 C 70.910156 244.144531 69.945312 242.234375 69.03125 240.296875 C 68.117188 238.359375 67.246094 236.402344 66.429688 234.425781 C 65.609375 232.445312 64.839844 230.449219 64.117188 228.433594 C 63.394531 226.414062 62.722656 224.382812 62.101562 222.332031 C 61.480469 220.285156 60.910156 218.21875 60.386719 216.140625 C 59.867188 214.066406 59.398438 211.976562 58.980469 209.875 C 58.5625 207.773438 58.195312 205.664062 57.882812 203.546875 C 57.570312 201.429688 57.304688 199.304688 57.097656 197.171875 C 56.886719 195.039062 56.730469 192.90625 56.625 190.765625 C 56.519531 188.625 56.464844 186.484375 56.464844 184.34375 C 56.464844 182.203125 56.519531 180.0625 56.625 177.921875 C 56.730469 175.785156 56.886719 173.648438 57.097656 171.515625 C 57.304688 169.386719 57.570312 167.261719 57.882812 165.140625 C 58.195312 163.023438 58.5625 160.914062 58.980469 158.8125 C 59.398438 156.714844 59.867188 154.625 60.386719 152.546875 C 60.910156 150.46875 61.480469 148.40625 62.101562 146.355469 C 62.722656 144.304688 63.394531 142.273438 64.117188 140.257812 C 64.839844 138.242188 65.609375 136.242188 66.429688 134.265625 C 67.246094 132.285156 68.117188 130.328125 69.03125 128.390625 C 69.945312 126.457031 70.910156 124.542969 71.917969 122.65625 C 72.929688 120.765625 73.984375 118.902344 75.085938 117.066406 C 76.1875 115.230469 77.332031 113.417969 78.523438 111.640625 C 79.710938 109.859375 80.945312 108.109375 82.222656 106.386719 C 83.496094 104.667969 84.8125 102.980469 86.171875 101.324219 C 87.53125 99.667969 88.929688 98.046875 90.367188 96.460938 C 91.808594 94.871094 93.285156 93.324219 94.796875 91.808594 C 96.3125 90.292969 97.863281 88.816406 99.449219 87.378906 C 101.039062 85.941406 102.660156 84.542969 104.316406 83.183594 C 105.96875 81.824219 107.660156 80.507812 109.378906 79.230469 C 111.097656 77.957031 112.851562 76.722656 114.628906 75.53125 C 116.410156 74.34375 118.21875 73.199219 120.058594 72.097656 C 121.894531 70.996094 123.757812 69.941406 125.648438 68.929688 C 127.535156 67.921875 129.449219 66.957031 131.382812 66.042969 C 133.320312 65.125 135.277344 64.257812 137.257812 63.441406 C 139.234375 62.621094 141.234375 61.847656 143.25 61.128906 C 145.265625 60.40625 147.300781 59.734375 149.351562 59.113281 C 151.398438 58.492188 153.464844 57.921875 155.539062 57.398438 C 157.617188 56.878906 159.707031 56.410156 161.808594 55.992188 C 163.910156 55.574219 166.019531 55.207031 168.136719 54.894531 C 170.257812 54.582031 172.382812 54.316406 174.511719 54.109375 C 176.644531 53.898438 178.78125 53.742188 180.917969 53.636719 C 183.058594 53.53125 185.199219 53.476562 187.339844 53.476562 C 189.480469 53.476562 191.621094 53.53125 193.761719 53.636719 C 195.902344 53.742188 198.035156 53.898438 200.167969 54.109375 C 202.300781 54.316406 204.425781 54.582031 206.542969 54.894531 C 208.664062 55.207031 210.773438 55.574219 212.871094 55.992188 C 214.972656 56.410156 217.0625 56.878906 219.140625 57.398438 C 221.21875 57.921875 223.28125 58.492188 225.332031 59.113281 C 227.382812 59.734375 229.414062 60.40625 231.429688 61.128906 C 233.449219 61.847656 235.445312 62.621094 237.425781 63.441406 C 239.402344 64.257812 241.359375 65.125 243.296875 66.042969 C 245.234375 66.957031 247.144531 67.921875 249.035156 68.929688 C 250.921875 69.941406 252.785156 70.996094 254.625 72.097656 C 256.460938 73.199219 258.269531 74.34375 260.050781 75.53125 C 261.832031 76.722656 263.582031 77.957031 265.300781 79.230469 C 267.023438 80.507812 268.710938 81.824219 270.367188 83.183594 C 272.023438 84.542969 273.644531 85.941406 275.230469 87.378906 C 276.816406 88.816406 278.367188 90.292969 279.882812 91.808594 C 281.398438 93.324219 282.875 94.871094 284.3125 96.460938 C 285.75 98.046875 287.148438 99.667969 288.507812 101.324219 C 289.867188 102.980469 291.183594 104.667969 292.460938 106.386719 C 293.734375 108.109375 294.96875 109.859375 296.160156 111.640625 C 297.347656 113.417969 298.492188 115.230469 299.59375 117.066406 C 300.695312 118.902344 301.75 120.765625 302.761719 122.65625 C 303.769531 124.542969 304.734375 126.457031 305.648438 128.390625 C 306.566406 130.328125 307.433594 132.285156 308.253906 134.265625 C 309.070312 136.242188 309.84375 138.242188 310.5625 140.257812 C 311.285156 142.273438 311.957031 144.304688 312.578125 146.355469 C 313.199219 148.40625 313.773438 150.46875 314.292969 152.546875 C 314.8125 154.625 315.28125 156.714844 315.699219 158.8125 C 316.117188 160.914062 316.484375 163.023438 316.796875 165.140625 C 317.113281 167.261719 317.375 169.386719 317.585938 171.515625 C 317.792969 173.648438 317.953125 175.785156 318.058594 177.921875 C 318.164062 180.0625 318.214844 182.203125 318.214844 184.34375 Z M 318.214844 184.34375 " fill-opacity="1" fill-rule="nonzero"/></g><path fill="#c46019" d="M 297.003906 184.953125 C 297.003906 186.734375 296.960938 188.515625 296.875 190.292969 C 296.789062 192.070312 296.65625 193.847656 296.480469 195.617188 C 296.308594 197.390625 296.089844 199.15625 295.828125 200.917969 C 295.566406 202.679688 295.261719 204.433594 294.914062 206.179688 C 294.566406 207.925781 294.175781 209.664062 293.746094 211.390625 C 293.3125 213.121094 292.835938 214.835938 292.320312 216.539062 C 291.804688 218.242188 291.246094 219.933594 290.644531 221.609375 C 290.046875 223.285156 289.40625 224.949219 288.722656 226.59375 C 288.042969 228.238281 287.320312 229.863281 286.558594 231.476562 C 285.796875 233.085938 284.996094 234.675781 284.15625 236.246094 C 283.316406 237.816406 282.441406 239.363281 281.523438 240.890625 C 280.609375 242.417969 279.65625 243.921875 278.667969 245.402344 C 277.679688 246.882812 276.652344 248.339844 275.59375 249.769531 C 274.53125 251.199219 273.4375 252.601562 272.304688 253.980469 C 271.175781 255.355469 270.015625 256.703125 268.816406 258.023438 C 267.621094 259.34375 266.394531 260.632812 265.136719 261.890625 C 263.875 263.152344 262.585938 264.378906 261.265625 265.574219 C 259.949219 266.769531 258.601562 267.933594 257.222656 269.0625 C 255.847656 270.191406 254.441406 271.289062 253.011719 272.347656 C 251.582031 273.410156 250.125 274.433594 248.644531 275.421875 C 247.164062 276.414062 245.660156 277.363281 244.132812 278.28125 C 242.605469 279.195312 241.058594 280.074219 239.488281 280.914062 C 237.917969 281.75 236.328125 282.550781 234.714844 283.3125 C 233.105469 284.074219 231.480469 284.796875 229.832031 285.476562 C 228.1875 286.160156 226.527344 286.800781 224.851562 287.398438 C 223.175781 288 221.484375 288.558594 219.78125 289.074219 C 218.074219 289.59375 216.359375 290.066406 214.632812 290.5 C 212.90625 290.933594 211.167969 291.320312 209.421875 291.667969 C 207.675781 292.015625 205.921875 292.320312 204.160156 292.582031 C 202.398438 292.84375 200.632812 293.0625 198.859375 293.234375 C 197.085938 293.410156 195.3125 293.542969 193.53125 293.628906 C 191.753906 293.714844 189.972656 293.761719 188.191406 293.761719 C 186.414062 293.761719 184.632812 293.714844 182.855469 293.628906 C 181.074219 293.542969 179.300781 293.410156 177.527344 293.234375 C 175.753906 293.0625 173.988281 292.84375 172.226562 292.582031 C 170.464844 292.320312 168.710938 292.015625 166.964844 291.667969 C 165.21875 291.320312 163.480469 290.933594 161.753906 290.5 C 160.027344 290.066406 158.3125 289.59375 156.605469 289.074219 C 154.902344 288.558594 153.210938 288 151.535156 287.398438 C 149.859375 286.800781 148.199219 286.160156 146.550781 285.476562 C 144.90625 284.796875 143.28125 284.074219 141.667969 283.3125 C 140.058594 282.550781 138.46875 281.75 136.898438 280.914062 C 135.328125 280.074219 133.78125 279.195312 132.253906 278.28125 C 130.726562 277.363281 129.222656 276.414062 127.738281 275.421875 C 126.257812 274.433594 124.804688 273.410156 123.375 272.347656 C 121.941406 271.289062 120.539062 270.191406 119.164062 269.0625 C 117.785156 267.933594 116.4375 266.769531 115.121094 265.574219 C 113.800781 264.378906 112.511719 263.152344 111.25 261.890625 C 109.992188 260.632812 108.765625 259.34375 107.570312 258.023438 C 106.371094 256.703125 105.210938 255.355469 104.078125 253.980469 C 102.949219 252.601562 101.855469 251.199219 100.792969 249.769531 C 99.734375 248.339844 98.707031 246.882812 97.71875 245.402344 C 96.730469 243.921875 95.777344 242.417969 94.863281 240.890625 C 93.945312 239.363281 93.070312 237.816406 92.230469 236.246094 C 91.390625 234.675781 90.589844 233.085938 89.828125 231.476562 C 89.066406 229.863281 88.34375 228.238281 87.664062 226.59375 C 86.980469 224.949219 86.339844 223.285156 85.742188 221.609375 C 85.140625 219.933594 84.582031 218.242188 84.066406 216.539062 C 83.550781 214.835938 83.074219 213.121094 82.640625 211.390625 C 82.210938 209.664062 81.820312 207.925781 81.472656 206.179688 C 81.125 204.433594 80.820312 202.679688 80.558594 200.917969 C 80.296875 199.15625 80.078125 197.390625 79.90625 195.617188 C 79.730469 193.847656 79.597656 192.070312 79.511719 190.292969 C 79.425781 188.515625 79.378906 186.734375 79.378906 184.953125 C 79.378906 183.171875 79.425781 181.394531 79.511719 179.617188 C 79.597656 177.835938 79.730469 176.0625 79.90625 174.289062 C 80.078125 172.515625 80.296875 170.75 80.558594 168.988281 C 80.820312 167.226562 81.125 165.472656 81.472656 163.726562 C 81.820312 161.980469 82.210938 160.242188 82.640625 158.515625 C 83.074219 156.789062 83.550781 155.074219 84.066406 153.371094 C 84.582031 151.664062 85.140625 149.976562 85.742188 148.296875 C 86.339844 146.621094 86.980469 144.960938 87.664062 143.316406 C 88.34375 141.671875 89.066406 140.042969 89.828125 138.433594 C 90.589844 136.824219 91.390625 135.234375 92.230469 133.664062 C 93.070312 132.09375 93.945312 130.542969 94.863281 129.015625 C 95.777344 127.488281 96.730469 125.984375 97.71875 124.503906 C 98.707031 123.023438 99.734375 121.570312 100.792969 120.136719 C 101.855469 118.707031 102.949219 117.304688 104.078125 115.929688 C 105.210938 114.550781 106.371094 113.203125 107.570312 111.882812 C 108.765625 110.566406 109.992188 109.277344 111.25 108.015625 C 112.511719 106.757812 113.800781 105.53125 115.121094 104.335938 C 116.4375 103.136719 117.785156 101.976562 119.164062 100.847656 C 120.539062 99.714844 121.941406 98.621094 123.375 97.558594 C 124.804688 96.5 126.257812 95.476562 127.738281 94.484375 C 129.222656 93.496094 130.726562 92.542969 132.253906 91.628906 C 133.78125 90.710938 135.328125 89.835938 136.898438 88.996094 C 138.46875 88.15625 140.058594 87.355469 141.667969 86.59375 C 143.28125 85.832031 144.90625 85.113281 146.550781 84.429688 C 148.199219 83.75 149.859375 83.109375 151.535156 82.507812 C 153.210938 81.910156 154.902344 81.351562 156.605469 80.832031 C 158.3125 80.316406 160.027344 79.839844 161.753906 79.410156 C 163.480469 78.976562 165.21875 78.585938 166.964844 78.238281 C 168.710938 77.890625 170.464844 77.585938 172.226562 77.324219 C 173.988281 77.066406 175.753906 76.847656 177.527344 76.671875 C 179.300781 76.496094 181.074219 76.367188 182.855469 76.28125 C 184.632812 76.191406 186.414062 76.148438 188.191406 76.148438 C 189.972656 76.148438 191.753906 76.191406 193.53125 76.28125 C 195.3125 76.367188 197.085938 76.496094 198.859375 76.671875 C 200.632812 76.847656 202.398438 77.066406 204.160156 77.324219 C 205.921875 77.585938 207.675781 77.890625 209.421875 78.238281 C 211.167969 78.585938 212.90625 78.976562 214.632812 79.410156 C 216.359375 79.839844 218.074219 80.316406 219.78125 80.832031 C 221.484375 81.351562 223.175781 81.910156 224.851562 82.507812 C 226.527344 83.109375 228.1875 83.75 229.832031 84.429688 C 231.480469 85.113281 233.105469 85.832031 234.714844 86.59375 C 236.328125 87.355469 237.917969 88.15625 239.488281 88.996094 C 241.058594 89.835938 242.605469 90.710938 244.132812 91.628906 C 245.660156 92.542969 247.164062 93.496094 248.644531 94.484375 C 250.125 95.476562 251.582031 96.5 253.011719 97.558594 C 254.441406 98.621094 255.847656 99.714844 257.222656 100.847656 C 258.601562 101.976562 259.949219 103.136719 261.265625 104.335938 C 262.585938 105.53125 263.875 106.757812 265.136719 108.015625 C 266.394531 109.277344 267.621094 110.566406 268.816406 111.882812 C 270.015625 113.203125 271.175781 114.550781 272.304688 115.929688 C 273.4375 117.304688 274.53125 118.707031 275.59375 120.136719 C 276.652344 121.570312 277.679688 123.023438 278.667969 124.503906 C 279.65625 125.984375 280.609375 127.488281 281.523438 129.015625 C 282.441406 130.542969 283.316406 132.09375 284.15625 133.664062 C 284.996094 135.234375 285.796875 136.824219 286.558594 138.433594 C 287.320312 140.042969 288.042969 141.671875 288.722656 143.316406 C 289.40625 144.960938 290.046875 146.621094 290.644531 148.296875 C 291.246094 149.976562 291.804688 151.664062 292.320312 153.371094 C 292.835938 155.074219 293.3125 156.789062 293.746094 158.515625 C 294.175781 160.242188 294.566406 161.980469 294.914062 163.726562 C 295.261719 165.472656 295.566406 167.226562 295.828125 168.988281 C 296.089844 170.75 296.308594 172.515625 296.480469 174.289062 C 296.65625 176.0625 296.789062 177.835938 296.875 179.617188 C 296.960938 181.394531 297.003906 183.171875 297.003906 184.953125 Z M 297.003906 184.953125 " fill-opacity="1" fill-rule="nonzero"/><path fill="#ffffff" d="M 297.003906 179.214844 C 297.003906 180.996094 296.960938 182.773438 296.875 184.550781 C 296.789062 186.332031 296.65625 188.105469 296.480469 189.878906 C 296.308594 191.652344 296.089844 193.417969 295.828125 195.179688 C 295.566406 196.941406 295.261719 198.695312 294.914062 200.441406 C 294.566406 202.1875 294.175781 203.925781 293.746094 205.652344 C 293.3125 207.378906 292.835938 209.09375 292.320312 210.796875 C 291.804688 212.503906 291.246094 214.191406 290.644531 215.871094 C 290.046875 217.546875 289.40625 219.207031 288.722656 220.851562 C 288.042969 222.496094 287.320312 224.125 286.558594 225.734375 C 285.796875 227.34375 284.996094 228.933594 284.15625 230.503906 C 283.316406 232.074219 282.441406 233.625 281.523438 235.152344 C 280.609375 236.679688 279.65625 238.183594 278.667969 239.664062 C 277.679688 241.144531 276.652344 242.597656 275.59375 244.03125 C 274.53125 245.460938 273.4375 246.863281 272.304688 248.238281 C 271.175781 249.617188 270.015625 250.964844 268.816406 252.285156 C 267.621094 253.601562 266.394531 254.890625 265.136719 256.152344 C 263.875 257.410156 262.585938 258.636719 261.265625 259.832031 C 259.949219 261.03125 258.601562 262.191406 257.222656 263.320312 C 255.847656 264.453125 254.441406 265.546875 253.011719 266.609375 C 251.582031 267.667969 250.125 268.691406 248.644531 269.683594 C 247.164062 270.671875 245.660156 271.625 244.132812 272.539062 C 242.605469 273.457031 241.058594 274.332031 239.488281 275.171875 C 237.917969 276.011719 236.328125 276.8125 234.714844 277.574219 C 233.105469 278.335938 231.480469 279.054688 229.832031 279.738281 C 228.1875 280.417969 226.527344 281.058594 224.851562 281.660156 C 223.175781 282.257812 221.484375 282.816406 219.78125 283.335938 C 218.074219 283.851562 216.359375 284.328125 214.632812 284.757812 C 212.90625 285.191406 211.167969 285.582031 209.421875 285.929688 C 207.675781 286.277344 205.921875 286.582031 204.160156 286.84375 C 202.398438 287.101562 200.632812 287.320312 198.859375 287.496094 C 197.085938 287.671875 195.3125 287.800781 193.53125 287.886719 C 191.753906 287.976562 189.972656 288.019531 188.191406 288.019531 C 186.414062 288.019531 184.632812 287.976562 182.855469 287.886719 C 181.074219 287.800781 179.300781 287.671875 177.527344 287.496094 C 175.753906 287.320312 173.988281 287.101562 172.226562 286.84375 C 170.464844 286.582031 168.710938 286.277344 166.964844 285.929688 C 165.21875 285.582031 163.480469 285.191406 161.753906 284.757812 C 160.027344 284.328125 158.3125 283.851562 156.605469 283.335938 C 154.902344 282.816406 153.210938 282.257812 151.535156 281.660156 C 149.859375 281.058594 148.199219 280.417969 146.550781 279.738281 C 144.90625 279.054688 143.28125 278.335938 141.667969 277.574219 C 140.058594 276.8125 138.46875 276.011719 136.898438 275.171875 C 135.328125 274.332031 133.78125 273.457031 132.253906 272.539062 C 130.726562 271.625 129.222656 270.671875 127.738281 269.683594 C 126.257812 268.691406 124.804688 267.667969 123.375 266.609375 C 121.941406 265.546875 120.539062 264.453125 119.164062 263.320312 C 117.785156 262.191406 116.4375 261.03125 115.121094 259.832031 C 113.800781 258.636719 112.511719 257.410156 111.25 256.152344 C 109.992188 254.890625 108.765625 253.601562 107.570312 252.285156 C 106.371094 250.964844 105.210938 249.617188 104.078125 248.238281 C 102.949219 246.863281 101.855469 245.460938 100.792969 244.03125 C 99.734375 242.597656 98.707031 241.144531 97.71875 239.664062 C 96.730469 238.183594 95.777344 236.679688 94.863281 235.152344 C 93.945312 233.625 93.070312 232.074219 92.230469 230.503906 C 91.390625 228.933594 90.589844 227.34375 89.828125 225.734375 C 89.066406 224.125 88.34375 222.496094 87.664062 220.851562 C 86.980469 219.207031 86.339844 217.546875 85.742188 215.871094 C 85.140625 214.191406 84.582031 212.503906 84.066406 210.796875 C 83.550781 209.09375 83.074219 207.378906 82.640625 205.652344 C 82.210938 203.925781 81.820312 202.1875 81.472656 200.441406 C 81.125 198.695312 80.820312 196.941406 80.558594 195.179688 C 80.296875 193.417969 80.078125 191.652344 79.90625 189.878906 C 79.730469 188.105469 79.597656 186.332031 79.511719 184.550781 C 79.425781 182.773438 79.378906 180.996094 79.378906 179.214844 C 79.378906 177.433594 79.425781 175.652344 79.511719 173.875 C 79.597656 172.097656 79.730469 170.320312 79.90625 168.550781 C 80.078125 166.777344 80.296875 165.011719 80.558594 163.25 C 80.820312 161.488281 81.125 159.734375 81.472656 157.988281 C 81.820312 156.242188 82.210938 154.503906 82.640625 152.777344 C 83.074219 151.046875 83.550781 149.332031 84.066406 147.628906 C 84.582031 145.925781 85.140625 144.234375 85.742188 142.558594 C 86.339844 140.882812 86.980469 139.21875 87.664062 137.574219 C 88.34375 135.929688 89.066406 134.304688 89.828125 132.691406 C 90.589844 131.082031 91.390625 129.492188 92.230469 127.921875 C 93.070312 126.351562 93.945312 124.804688 94.863281 123.277344 C 95.777344 121.75 96.730469 120.246094 97.71875 118.765625 C 98.707031 117.285156 99.734375 115.828125 100.792969 114.398438 C 101.855469 112.96875 102.949219 111.566406 104.078125 110.1875 C 105.210938 108.8125 106.371094 107.464844 107.570312 106.144531 C 108.765625 104.824219 109.992188 103.535156 111.25 102.277344 C 112.511719 101.015625 113.800781 99.789062 115.121094 98.59375 C 116.4375 97.398438 117.785156 96.234375 119.164062 95.105469 C 120.539062 93.976562 121.941406 92.878906 123.375 91.820312 C 124.804688 90.757812 126.257812 89.734375 127.738281 88.746094 C 129.222656 87.753906 130.726562 86.804688 132.253906 85.886719 C 133.78125 84.972656 135.328125 84.09375 136.898438 83.253906 C 138.46875 82.417969 140.058594 81.617188 141.667969 80.855469 C 143.28125 80.09375 144.90625 79.371094 146.550781 78.691406 C 148.199219 78.007812 149.859375 77.367188 151.535156 76.769531 C 153.210938 76.167969 154.902344 75.609375 156.605469 75.09375 C 158.3125 74.574219 160.027344 74.101562 161.753906 73.667969 C 163.480469 73.234375 165.21875 72.847656 166.964844 72.5 C 168.710938 72.152344 170.464844 71.847656 172.226562 71.585938 C 173.988281 71.324219 175.753906 71.105469 177.527344 70.933594 C 179.300781 70.757812 181.074219 70.625 182.855469 70.539062 C 184.632812 70.453125 186.414062 70.40625 188.191406 70.40625 C 189.972656 70.40625 191.753906 70.453125 193.53125 70.539062 C 195.3125 70.625 197.085938 70.757812 198.859375 70.933594 C 200.632812 71.105469 202.398438 71.324219 204.160156 71.585938 C 205.921875 71.847656 207.675781 72.152344 209.421875 72.5 C 211.167969 72.847656 212.90625 73.234375 214.632812 73.667969 C 216.359375 74.101562 218.074219 74.574219 219.78125 75.09375 C 221.484375 75.609375 223.175781 76.167969 224.851562 76.769531 C 226.527344 77.367188 228.1875 78.007812 229.832031 78.691406 C 231.480469 79.371094 233.105469 80.09375 234.714844 80.855469 C 236.328125 81.617188 237.917969 82.417969 239.488281 83.253906 C 241.058594 84.09375 242.605469 84.972656 244.132812 85.886719 C 245.660156 86.804688 247.164062 87.753906 248.644531 88.746094 C 250.125 89.734375 251.582031 90.757812 253.011719 91.820312 C 254.441406 92.878906 255.847656 93.976562 257.222656 95.105469 C 258.601562 96.234375 259.949219 97.398438 261.265625 98.59375 C 262.585938 99.789062 263.875 101.015625 265.136719 102.277344 C 266.394531 103.535156 267.621094 104.824219 268.816406 106.144531 C 270.015625 107.464844 271.175781 108.8125 272.304688 110.1875 C 273.4375 111.566406 274.53125 112.96875 275.59375 114.398438 C 276.652344 115.828125 277.679688 117.285156 278.667969 118.765625 C 279.65625 120.246094 280.609375 121.75 281.523438 123.277344 C 282.441406 124.804688 283.316406 126.351562 284.15625 127.921875 C 284.996094 129.492188 285.796875 131.082031 286.558594 132.691406 C 287.320312 134.304688 288.042969 135.929688 288.722656 137.574219 C 289.40625 139.21875 290.046875 140.882812 290.644531 142.558594 C 291.246094 144.234375 291.804688 145.925781 292.320312 147.628906 C 292.835938 149.332031 293.3125 151.046875 293.746094 152.777344 C 294.175781 154.503906 294.566406 156.242188 294.914062 157.988281 C 295.261719 159.734375 295.566406 161.488281 295.828125 163.25 C 296.089844 165.011719 296.308594 166.777344 296.480469 168.550781 C 296.65625 170.320312 296.789062 172.097656 296.875 173.875 C 296.960938 175.652344 297.003906 177.433594 297.003906 179.214844 Z M 297.003906 179.214844 " fill-opacity="1" fill-rule="nonzero"/><path fill="#ffcd59" d="M 296.976562 181.484375 C 295.769531 240.527344 247.53125 288.019531 188.195312 288.019531 C 128.855469 288.019531 80.621094 240.527344 79.410156 181.484375 C 80.621094 122.441406 128.855469 74.949219 188.195312 74.949219 C 247.53125 74.949219 295.769531 122.441406 296.976562 181.484375 Z M 296.976562 181.484375 " fill-opacity="1" fill-rule="evenodd"/><path fill="#ffffff" d="M 121.023438 105.804688 C 130.878906 98.925781 141.972656 97.792969 145.800781 103.277344 C 149.628906 108.761719 144.746094 118.785156 134.890625 125.664062 C 125.039062 132.546875 113.945312 133.679688 110.113281 128.195312 C 106.285156 122.710938 111.167969 112.6875 121.023438 105.804688 Z M 105.234375 135.234375 C 110.148438 135.234375 114.132812 139.21875 114.132812 144.132812 C 114.132812 149.046875 110.148438 153.03125 105.234375 153.03125 C 100.320312 153.03125 96.335938 149.046875 96.335938 144.132812 C 96.335938 139.21875 100.320312 135.234375 105.234375 135.234375 Z M 105.234375 135.234375 " fill-opacity="1" fill-rule="evenodd"/><path fill="#c46019" d="M 237.457031 154.792969 C 237.457031 164.726562 234.511719 173.972656 229.453125 181.710938 C 231.253906 182.425781 233.214844 182.820312 235.269531 182.820312 C 243.96875 182.820312 251.019531 175.769531 251.019531 167.074219 C 251.019531 159.121094 245.117188 152.542969 237.457031 151.480469 Z M 174.761719 180.09375 C 174.761719 181.949219 176.179688 183.445312 178.121094 183.445312 C 179.175781 183.445312 182.117188 182.042969 183.253906 181.589844 C 183.777344 181.382812 188.058594 179.582031 188.230469 179.601562 L 195.632812 182.621094 C 196.527344 182.988281 197.332031 183.445312 198.421875 183.445312 C 200.066406 183.445312 201.621094 181.996094 201.621094 180.09375 C 201.621094 179.222656 201.171875 173.894531 201.09375 172.902344 C 201.070312 172.566406 200.84375 170.496094 200.960938 170.273438 L 206.726562 163.476562 C 207.320312 162.761719 207.90625 162.121094 207.867188 160.777344 C 207.835938 159.578125 207.207031 158.738281 206.535156 158.226562 C 205.78125 157.652344 204.667969 157.503906 203.660156 157.257812 L 197.480469 155.746094 C 195.714844 155.304688 196.285156 155.777344 195.246094 154.09375 L 192.285156 149.3125 C 191.953125 148.785156 191.078125 147.300781 190.804688 146.957031 C 190.28125 146.289062 189.382812 145.691406 188.195312 145.691406 C 186.390625 145.691406 185.566406 146.824219 184.851562 148.09375 C 184.289062 149.097656 183.292969 150.613281 182.652344 151.65625 L 180.433594 155.253906 C 180.277344 155.507812 179.3125 155.648438 178.972656 155.726562 L 172.769531 157.25 C 171.761719 157.492188 170.632812 157.652344 169.851562 158.222656 C 169.175781 158.714844 168.5625 159.640625 168.519531 160.726562 C 168.472656 162.019531 169.03125 162.761719 169.636719 163.453125 C 170.210938 164.109375 170.765625 164.816406 171.402344 165.523438 L 175.382812 170.21875 C 175.527344 170.414062 175.449219 170.757812 175.425781 171.058594 L 175.023438 176.460938 C 174.929688 177.585938 174.761719 178.996094 174.761719 180.09375 Z M 160.457031 239.339844 L 161.914062 239.339844 C 163.507812 230.476562 169.480469 223.132812 177.511719 219.621094 L 177.511719 202.886719 C 168.253906 200.839844 159.972656 196.1875 153.480469 189.742188 C 149.808594 191.746094 145.59375 192.890625 141.117188 192.890625 C 126.855469 192.890625 115.296875 181.332031 115.296875 167.074219 C 115.296875 153.542969 125.710938 142.445312 138.960938 141.347656 L 138.960938 139.03125 C 138.960938 133.828125 143.21875 129.570312 148.421875 129.570312 L 227.992188 129.570312 C 233.195312 129.570312 237.457031 133.828125 237.457031 139.03125 L 237.457031 141.351562 C 250.691406 142.460938 261.089844 153.554688 261.089844 167.074219 C 261.089844 181.332031 249.53125 192.890625 235.273438 192.890625 C 230.792969 192.890625 226.578125 191.746094 222.90625 189.742188 C 216.414062 196.191406 208.132812 200.839844 198.875 202.886719 L 198.875 219.621094 C 206.90625 223.128906 212.878906 230.476562 214.476562 239.339844 L 215.929688 239.339844 C 220.296875 239.339844 223.867188 242.910156 223.867188 247.273438 L 223.867188 255.210938 L 152.519531 255.210938 L 152.519531 247.273438 C 152.519531 242.910156 156.09375 239.339844 160.457031 239.339844 Z M 146.933594 181.707031 C 141.875 173.972656 138.933594 164.726562 138.933594 154.792969 L 138.957031 154.792969 L 138.957031 151.476562 C 131.28125 152.527344 125.371094 159.109375 125.371094 167.074219 C 125.371094 175.769531 132.417969 182.820312 141.117188 182.820312 C 143.171875 182.820312 145.132812 182.425781 146.933594 181.707031 Z M 146.933594 181.707031 " fill-opacity="1" fill-rule="evenodd"/><path fill="#ff8228" d="M 237.457031 154.792969 C 237.457031 164.726562 234.511719 173.972656 229.453125 181.710938 L 229.808594 192.308594 C 227.359375 191.78125 225.042969 190.910156 222.90625 189.742188 C 216.414062 196.191406 208.132812 200.839844 198.875 202.890625 L 198.875 230.777344 C 206.90625 234.285156 212.878906 241.628906 214.476562 250.492188 L 215.929688 250.492188 C 219.152344 250.492188 221.941406 252.4375 223.179688 255.210938 L 153.207031 255.210938 C 154.445312 252.4375 157.234375 250.492188 160.457031 250.492188 L 161.914062 250.492188 C 163.507812 241.628906 169.480469 234.285156 177.511719 230.777344 L 177.511719 202.890625 C 168.253906 200.839844 159.972656 196.1875 153.480469 189.742188 C 151.347656 190.90625 149.027344 191.78125 146.582031 192.308594 L 146.933594 181.707031 C 141.875 173.972656 138.933594 164.726562 138.933594 154.792969 L 138.960938 154.792969 L 138.960938 150.183594 C 138.960938 144.980469 143.21875 140.722656 148.421875 140.722656 L 227.992188 140.722656 C 233.195312 140.722656 237.457031 144.980469 237.457031 150.183594 Z M 250 172.652344 C 250.65625 170.917969 251.019531 169.039062 251.019531 167.074219 C 251.019531 161.550781 248.171875 156.6875 243.863281 153.878906 C 252.1875 156.816406 258.554688 163.902344 260.484375 172.648438 C 258.554688 181.402344 252.191406 188.488281 243.863281 191.425781 C 248.171875 188.617188 251.019531 183.753906 251.019531 178.230469 C 251.019531 176.265625 250.65625 174.382812 250 172.652344 Z M 174.761719 191.25 C 174.761719 193.101562 176.179688 194.597656 178.121094 194.597656 C 179.175781 194.597656 182.117188 193.195312 183.253906 192.746094 C 183.777344 192.535156 188.0625 190.738281 188.230469 190.753906 L 195.632812 193.777344 C 196.527344 194.140625 197.332031 194.601562 198.421875 194.601562 C 200.066406 194.601562 201.621094 193.152344 201.621094 191.25 C 201.621094 190.378906 201.171875 185.046875 201.09375 184.054688 C 201.078125 183.832031 200.972656 182.84375 200.9375 182.136719 C 201.242188 181.730469 201.464844 181.25 201.5625 180.714844 L 206.722656 174.632812 C 207.320312 173.917969 207.90625 173.277344 207.867188 171.933594 L 207.867188 160.78125 C 207.832031 159.578125 207.207031 158.738281 206.535156 158.226562 C 205.78125 157.652344 204.667969 157.503906 203.660156 157.257812 L 197.476562 155.746094 C 195.714844 155.304688 196.285156 155.777344 195.246094 154.09375 L 192.285156 149.3125 C 191.953125 148.785156 191.078125 147.300781 190.804688 146.957031 C 190.28125 146.289062 189.382812 145.691406 188.191406 145.691406 C 186.390625 145.691406 185.5625 146.824219 184.851562 148.09375 C 184.289062 149.097656 183.292969 150.613281 182.648438 151.65625 L 180.433594 155.253906 C 180.277344 155.507812 179.308594 155.648438 178.972656 155.726562 L 172.769531 157.25 C 171.761719 157.492188 170.632812 157.652344 169.851562 158.222656 C 169.175781 158.714844 168.5625 159.640625 168.519531 160.726562 C 168.515625 160.835938 168.515625 160.9375 168.519531 161.039062 L 168.519531 171.882812 C 168.472656 173.171875 169.03125 173.914062 169.636719 174.605469 C 170.210938 175.261719 170.765625 175.96875 171.402344 176.679688 L 174.8125 180.703125 C 174.90625 181.234375 175.121094 181.726562 175.433594 182.140625 L 175.425781 182.214844 L 175.023438 187.613281 C 174.929688 188.742188 174.761719 190.148438 174.761719 191.25 Z M 115.902344 172.648438 C 117.832031 163.898438 124.199219 156.816406 132.523438 153.878906 C 128.21875 156.6875 125.371094 161.546875 125.371094 167.074219 C 125.371094 169.039062 125.730469 170.917969 126.386719 172.652344 C 125.730469 174.382812 125.371094 176.265625 125.371094 178.230469 C 125.371094 183.753906 128.214844 188.613281 132.523438 191.425781 C 124.199219 188.488281 117.832031 181.402344 115.902344 172.648438 Z M 115.902344 172.648438 " fill-opacity="1" fill-rule="evenodd"/></svg>