<svg xmlns="http://www.w3.org/2000/svg" xmlns:xlink="http://www.w3.org/1999/xlink" width="500" zoomAndPan="magnify" viewBox="0 0 375 374.999991" height="500" preserveAspectRatio="xMidYMid meet" version="1.0"><defs><clipPath id="42217323c8"><path d="M 53.003906 63 L 314.753906 63 L 314.753906 325.0625 L 53.003906 325.0625 Z M 53.003906 63 " clip-rule="nonzero"/></clipPath><clipPath id="ff3329345d"><path d="M 53.003906 57.3125 L 314.753906 57.3125 L 314.753906 320 L 53.003906 320 Z M 53.003906 57.3125 " clip-rule="nonzero"/></clipPath></defs><g clip-path="url(#42217323c8)"><path fill="#c46019" d="M 314.753906 194.171875 C 314.753906 196.3125 314.703125 198.453125 314.597656 200.589844 C 314.492188 202.730469 314.335938 204.867188 314.125 206.996094 C 313.914062 209.128906 313.652344 211.253906 313.339844 213.371094 C 313.023438 215.492188 312.660156 217.601562 312.242188 219.699219 C 311.824219 221.800781 311.355469 223.890625 310.832031 225.96875 C 310.3125 228.046875 309.742188 230.109375 309.121094 232.15625 C 308.5 234.207031 307.828125 236.242188 307.105469 238.257812 C 306.382812 240.273438 305.613281 242.269531 304.792969 244.25 C 303.972656 246.226562 303.105469 248.1875 302.191406 250.121094 C 301.273438 252.058594 300.3125 253.96875 299.300781 255.859375 C 298.292969 257.746094 297.238281 259.609375 296.136719 261.449219 C 295.035156 263.285156 293.890625 265.09375 292.699219 266.875 C 291.507812 268.65625 290.277344 270.40625 289 272.125 C 287.722656 273.847656 286.40625 275.535156 285.046875 277.191406 C 283.6875 278.84375 282.289062 280.464844 280.851562 282.054688 C 279.414062 283.640625 277.9375 285.191406 276.421875 286.707031 C 274.910156 288.21875 273.359375 289.695312 271.769531 291.132812 C 270.183594 292.574219 268.5625 293.972656 266.90625 295.328125 C 265.25 296.6875 263.5625 298.003906 261.84375 299.28125 C 260.121094 300.558594 258.371094 301.789062 256.589844 302.980469 C 254.808594 304.167969 253 305.316406 251.164062 306.417969 C 249.328125 307.515625 247.464844 308.574219 245.574219 309.582031 C 243.683594 310.589844 241.773438 311.554688 239.835938 312.46875 C 237.898438 313.386719 235.941406 314.253906 233.964844 315.074219 C 231.984375 315.890625 229.988281 316.664062 227.972656 317.382812 C 225.953125 318.105469 223.921875 318.777344 221.871094 319.398438 C 219.820312 320.019531 217.757812 320.59375 215.679688 321.113281 C 213.601562 321.632812 211.511719 322.101562 209.414062 322.519531 C 207.3125 322.9375 205.203125 323.304688 203.082031 323.617188 C 200.964844 323.933594 198.839844 324.195312 196.707031 324.402344 C 194.578125 324.613281 192.441406 324.773438 190.300781 324.875 C 188.164062 324.980469 186.023438 325.035156 183.878906 325.035156 C 181.738281 325.035156 179.597656 324.980469 177.457031 324.875 C 175.320312 324.773438 173.183594 324.613281 171.050781 324.402344 C 168.921875 324.195312 166.796875 323.933594 164.675781 323.617188 C 162.558594 323.304688 160.449219 322.9375 158.347656 322.519531 C 156.246094 322.101562 154.15625 321.632812 152.078125 321.113281 C 150.003906 320.59375 147.9375 320.019531 145.890625 319.398438 C 143.839844 318.777344 141.804688 318.105469 139.789062 317.382812 C 137.773438 316.664062 135.773438 315.890625 133.796875 315.074219 C 131.816406 314.253906 129.859375 313.386719 127.921875 312.46875 C 125.988281 311.554688 124.074219 310.589844 122.1875 309.582031 C 120.296875 308.574219 118.433594 307.515625 116.597656 306.417969 C 114.757812 305.316406 112.949219 304.167969 111.167969 302.980469 C 109.390625 301.789062 107.636719 300.558594 105.917969 299.28125 C 104.199219 298.003906 102.507812 296.6875 100.855469 295.328125 C 99.199219 293.972656 97.578125 292.574219 95.988281 291.132812 C 94.402344 289.695312 92.851562 288.21875 91.335938 286.707031 C 89.824219 285.191406 88.347656 283.640625 86.90625 282.054688 C 85.46875 280.464844 84.070312 278.84375 82.710938 277.191406 C 81.351562 275.535156 80.035156 273.847656 78.761719 272.125 C 77.484375 270.40625 76.25 268.65625 75.0625 266.875 C 73.871094 265.09375 72.726562 263.285156 71.625 261.449219 C 70.523438 259.609375 69.46875 257.746094 68.457031 255.859375 C 67.449219 253.96875 66.484375 252.058594 65.570312 250.121094 C 64.65625 248.1875 63.785156 246.226562 62.96875 244.25 C 62.148438 242.269531 61.375 240.273438 60.65625 238.257812 C 59.933594 236.242188 59.261719 234.207031 58.640625 232.15625 C 58.019531 230.109375 57.445312 228.046875 56.925781 225.96875 C 56.40625 223.890625 55.9375 221.800781 55.519531 219.699219 C 55.101562 217.601562 54.734375 215.492188 54.421875 213.371094 C 54.105469 211.253906 53.84375 209.128906 53.636719 206.996094 C 53.425781 204.867188 53.265625 202.730469 53.164062 200.589844 C 53.058594 198.453125 53.003906 196.3125 53.003906 194.171875 C 53.003906 192.027344 53.058594 189.886719 53.164062 187.75 C 53.265625 185.609375 53.425781 183.476562 53.636719 181.34375 C 53.84375 179.210938 54.105469 177.085938 54.421875 174.96875 C 54.734375 172.851562 55.101562 170.742188 55.519531 168.640625 C 55.9375 166.539062 56.40625 164.449219 56.925781 162.371094 C 57.445312 160.296875 58.019531 158.230469 58.640625 156.183594 C 59.261719 154.132812 59.933594 152.101562 60.65625 150.082031 C 61.375 148.066406 62.148438 146.070312 62.96875 144.089844 C 63.785156 142.113281 64.65625 140.15625 65.570312 138.21875 C 66.484375 136.28125 67.449219 134.371094 68.457031 132.480469 C 69.46875 130.59375 70.523438 128.730469 71.625 126.894531 C 72.726562 125.054688 73.871094 123.246094 75.0625 121.464844 C 76.25 119.683594 77.484375 117.933594 78.761719 116.214844 C 80.035156 114.496094 81.351562 112.804688 82.710938 111.152344 C 84.070312 109.496094 85.46875 107.875 86.90625 106.289062 C 88.347656 104.699219 89.824219 103.148438 91.335938 101.636719 C 92.851562 100.121094 94.402344 98.644531 95.988281 97.207031 C 97.578125 95.769531 99.199219 94.371094 100.855469 93.011719 C 102.507812 91.652344 104.199219 90.335938 105.917969 89.058594 C 107.636719 87.785156 109.390625 86.550781 111.167969 85.359375 C 112.949219 84.171875 114.757812 83.027344 116.597656 81.925781 C 118.433594 80.824219 120.296875 79.769531 122.1875 78.757812 C 124.074219 77.75 125.988281 76.785156 127.921875 75.871094 C 129.859375 74.953125 131.816406 74.085938 133.796875 73.269531 C 135.773438 72.449219 137.773438 71.675781 139.789062 70.957031 C 141.804688 70.234375 143.839844 69.5625 145.890625 68.941406 C 147.9375 68.320312 150.003906 67.75 152.078125 67.226562 C 154.15625 66.707031 156.246094 66.238281 158.347656 65.820312 C 160.449219 65.402344 162.558594 65.035156 164.675781 64.722656 C 166.796875 64.410156 168.921875 64.144531 171.050781 63.9375 C 173.183594 63.726562 175.320312 63.570312 177.457031 63.464844 C 179.597656 63.359375 181.738281 63.304688 183.878906 63.304688 C 186.023438 63.304688 188.164062 63.359375 190.300781 63.464844 C 192.441406 63.570312 194.578125 63.726562 196.707031 63.9375 C 198.839844 64.144531 200.964844 64.410156 203.082031 64.722656 C 205.203125 65.035156 207.3125 65.402344 209.414062 65.820312 C 211.511719 66.238281 213.601562 66.707031 215.679688 67.226562 C 217.757812 67.75 219.820312 68.320312 221.871094 68.941406 C 223.921875 69.5625 225.953125 70.234375 227.972656 70.957031 C 229.988281 71.675781 231.984375 72.449219 233.964844 73.269531 C 235.941406 74.085938 237.898438 74.953125 239.835938 75.871094 C 241.773438 76.785156 243.683594 77.75 245.574219 78.757812 C 247.464844 79.769531 249.328125 80.824219 251.164062 81.925781 C 253 83.027344 254.808594 84.171875 256.589844 85.359375 C 258.371094 86.550781 260.121094 87.785156 261.84375 89.058594 C 263.5625 90.335938 265.25 91.652344 266.90625 93.011719 C 268.5625 94.371094 270.183594 95.769531 271.769531 97.207031 C 273.359375 98.644531 274.910156 100.121094 276.421875 101.636719 C 277.9375 103.148438 279.414062 104.699219 280.851562 106.289062 C 282.289062 107.875 283.6875 109.496094 285.046875 111.152344 C 286.40625 112.804688 287.722656 114.496094 289 116.214844 C 290.277344 117.933594 291.507812 119.683594 292.699219 121.464844 C 293.890625 123.246094 295.035156 125.054688 296.136719 126.894531 C 297.238281 128.730469 298.292969 130.59375 299.300781 132.480469 C 300.3125 134.371094 301.273438 136.28125 302.191406 138.21875 C 303.105469 140.15625 303.972656 142.113281 304.792969 144.089844 C 305.613281 146.070312 306.382812 148.066406 307.105469 150.082031 C 307.828125 152.101562 308.5 154.132812 309.121094 156.183594 C 309.742188 158.230469 310.3125 160.296875 310.832031 162.371094 C 311.355469 164.449219 311.824219 166.539062 312.242188 168.640625 C 312.660156 170.742188 313.023438 172.851562 313.339844 174.96875 C 313.652344 177.085938 313.914062 179.210938 314.125 181.34375 C 314.335938 183.476562 314.492188 185.609375 314.597656 187.75 C 314.703125 189.886719 314.753906 192.027344 314.753906 194.171875 Z M 314.753906 194.171875 " fill-opacity="1" fill-rule="nonzero"/></g><g clip-path="url(#ff3329345d)"><path fill="#ff8228" d="M 314.753906 188.207031 C 314.753906 190.351562 314.703125 192.492188 314.597656 194.628906 C 314.492188 196.769531 314.335938 198.90625 314.125 201.035156 C 313.914062 203.167969 313.652344 205.292969 313.339844 207.410156 C 313.023438 209.527344 312.660156 211.636719 312.242188 213.738281 C 311.824219 215.839844 311.355469 217.929688 310.832031 220.007812 C 310.3125 222.082031 309.742188 224.148438 309.121094 226.195312 C 308.5 228.246094 307.828125 230.277344 307.105469 232.296875 C 306.382812 234.3125 305.613281 236.308594 304.792969 238.289062 C 303.972656 240.265625 303.105469 242.222656 302.191406 244.160156 C 301.273438 246.097656 300.3125 248.007812 299.300781 249.898438 C 298.292969 251.785156 297.238281 253.648438 296.136719 255.488281 C 295.035156 257.324219 293.890625 259.132812 292.699219 260.914062 C 291.507812 262.695312 290.277344 264.445312 289 266.164062 C 287.722656 267.882812 286.40625 269.574219 285.046875 271.226562 C 283.6875 272.882812 282.289062 274.503906 280.851562 276.089844 C 279.414062 277.679688 277.9375 279.230469 276.421875 280.742188 C 274.910156 282.257812 273.359375 283.734375 271.769531 285.171875 C 270.183594 286.609375 268.5625 288.007812 266.90625 289.367188 C 265.25 290.726562 263.5625 292.042969 261.84375 293.320312 C 260.121094 294.59375 258.371094 295.828125 256.589844 297.019531 C 254.808594 298.207031 253 299.355469 251.164062 300.453125 C 249.328125 301.554688 247.464844 302.609375 245.574219 303.621094 C 243.683594 304.628906 241.773438 305.59375 239.835938 306.507812 C 237.898438 307.425781 235.941406 308.292969 233.964844 309.113281 C 231.984375 309.929688 229.988281 310.703125 227.972656 311.421875 C 225.953125 312.144531 223.921875 312.816406 221.871094 313.4375 C 219.820312 314.058594 217.757812 314.628906 215.679688 315.152344 C 213.601562 315.671875 211.511719 316.140625 209.414062 316.558594 C 207.3125 316.976562 205.203125 317.34375 203.082031 317.65625 C 200.964844 317.972656 198.839844 318.234375 196.707031 318.441406 C 194.578125 318.652344 192.441406 318.808594 190.300781 318.914062 C 188.164062 319.019531 186.023438 319.074219 183.878906 319.074219 C 181.738281 319.074219 179.597656 319.019531 177.457031 318.914062 C 175.320312 318.808594 173.183594 318.652344 171.050781 318.441406 C 168.921875 318.234375 166.796875 317.972656 164.675781 317.65625 C 162.558594 317.34375 160.449219 316.976562 158.347656 316.558594 C 156.246094 316.140625 154.15625 315.671875 152.078125 315.152344 C 150.003906 314.628906 147.9375 314.058594 145.890625 313.4375 C 143.839844 312.816406 141.804688 312.144531 139.789062 311.421875 C 137.773438 310.703125 135.773438 309.929688 133.796875 309.113281 C 131.816406 308.292969 129.859375 307.425781 127.921875 306.507812 C 125.988281 305.59375 124.074219 304.628906 122.1875 303.621094 C 120.296875 302.609375 118.433594 301.554688 116.597656 300.453125 C 114.757812 299.355469 112.949219 298.207031 111.167969 297.019531 C 109.390625 295.828125 107.636719 294.59375 105.917969 293.320312 C 104.199219 292.042969 102.507812 290.726562 100.855469 289.367188 C 99.199219 288.007812 97.578125 286.609375 95.988281 285.171875 C 94.402344 283.734375 92.851562 282.257812 91.335938 280.742188 C 89.824219 279.230469 88.347656 277.679688 86.90625 276.089844 C 85.46875 274.503906 84.070312 272.882812 82.710938 271.226562 C 81.351562 269.574219 80.035156 267.882812 78.761719 266.164062 C 77.484375 264.445312 76.25 262.695312 75.0625 260.914062 C 73.871094 259.132812 72.726562 257.324219 71.625 255.488281 C 70.523438 253.648438 69.46875 251.785156 68.457031 249.898438 C 67.449219 248.007812 66.484375 246.097656 65.570312 244.160156 C 64.65625 242.222656 63.785156 240.265625 62.96875 238.289062 C 62.148438 236.308594 61.375 234.3125 60.65625 232.296875 C 59.933594 230.277344 59.261719 228.246094 58.640625 226.195312 C 58.019531 224.148438 57.445312 222.082031 56.925781 220.007812 C 56.40625 217.929688 55.9375 215.839844 55.519531 213.738281 C 55.101562 211.636719 54.734375 209.527344 54.421875 207.410156 C 54.105469 205.292969 53.84375 203.167969 53.636719 201.035156 C 53.425781 198.90625 53.265625 196.769531 53.164062 194.628906 C 53.058594 192.492188 53.003906 190.351562 53.003906 188.207031 C 53.003906 186.066406 53.058594 183.925781 53.164062 181.789062 C 53.265625 179.648438 53.425781 177.511719 53.636719 175.382812 C 53.84375 173.25 54.105469 171.125 54.421875 169.007812 C 54.734375 166.886719 55.101562 164.777344 55.519531 162.679688 C 55.9375 160.578125 56.40625 158.488281 56.925781 156.410156 C 57.445312 154.335938 58.019531 152.269531 58.640625 150.222656 C 59.261719 148.171875 59.933594 146.136719 60.65625 144.121094 C 61.375 142.105469 62.148438 140.109375 62.96875 138.128906 C 63.785156 136.152344 64.65625 134.191406 65.570312 132.257812 C 66.484375 130.320312 67.449219 128.410156 68.457031 126.519531 C 69.46875 124.632812 70.523438 122.769531 71.625 120.929688 C 72.726562 119.09375 73.871094 117.285156 75.0625 115.503906 C 76.25 113.722656 77.484375 111.972656 78.761719 110.253906 C 80.035156 108.53125 81.351562 106.84375 82.710938 105.191406 C 84.070312 103.535156 85.46875 101.914062 86.90625 100.324219 C 88.347656 98.738281 89.824219 97.1875 91.335938 95.675781 C 92.851562 94.160156 94.402344 92.683594 95.988281 91.246094 C 97.578125 89.808594 99.199219 88.410156 100.855469 87.050781 C 102.507812 85.691406 104.199219 84.375 105.917969 83.097656 C 107.636719 81.820312 109.390625 80.589844 111.167969 79.398438 C 112.949219 78.210938 114.757812 77.0625 116.597656 75.964844 C 118.433594 74.863281 120.296875 73.808594 122.1875 72.796875 C 124.074219 71.789062 125.988281 70.824219 127.921875 69.910156 C 129.859375 68.992188 131.816406 68.125 133.796875 67.304688 C 135.773438 66.488281 137.773438 65.714844 139.789062 64.996094 C 141.804688 64.273438 143.839844 63.601562 145.890625 62.980469 C 147.9375 62.359375 150.003906 61.785156 152.078125 61.265625 C 154.15625 60.746094 156.246094 60.277344 158.347656 59.859375 C 160.449219 59.441406 162.558594 59.074219 164.675781 58.761719 C 166.796875 58.445312 168.921875 58.183594 171.050781 57.976562 C 173.183594 57.765625 175.320312 57.609375 177.457031 57.503906 C 179.597656 57.398438 181.738281 57.34375 183.878906 57.34375 C 186.023438 57.34375 188.164062 57.398438 190.300781 57.503906 C 192.441406 57.609375 194.578125 57.765625 196.707031 57.976562 C 198.839844 58.183594 200.964844 58.445312 203.082031 58.761719 C 205.203125 59.074219 207.3125 59.441406 209.414062 59.859375 C 211.511719 60.277344 213.601562 60.746094 215.679688 61.265625 C 217.757812 61.785156 219.820312 62.359375 221.871094 62.980469 C 223.921875 63.601562 225.953125 64.273438 227.972656 64.996094 C 229.988281 65.714844 231.984375 66.488281 233.964844 67.304688 C 235.941406 68.125 237.898438 68.992188 239.835938 69.910156 C 241.773438 70.824219 243.683594 71.789062 245.574219 72.796875 C 247.464844 73.808594 249.328125 74.863281 251.164062 75.964844 C 253 77.0625 254.808594 78.210938 256.589844 79.398438 C 258.371094 80.589844 260.121094 81.820312 261.84375 83.097656 C 263.5625 84.375 265.25 85.691406 266.90625 87.050781 C 268.5625 88.410156 270.183594 89.808594 271.769531 91.246094 C 273.359375 92.683594 274.910156 94.160156 276.421875 95.675781 C 277.9375 97.1875 279.414062 98.738281 280.851562 100.324219 C 282.289062 101.914062 283.6875 103.535156 285.046875 105.191406 C 286.40625 106.84375 287.722656 108.53125 289 110.253906 C 290.277344 111.972656 291.507812 113.722656 292.699219 115.503906 C 293.890625 117.285156 295.035156 119.09375 296.136719 120.929688 C 297.238281 122.769531 298.292969 124.632812 299.300781 126.519531 C 300.3125 128.410156 301.273438 130.320312 302.191406 132.257812 C 303.105469 134.191406 303.972656 136.152344 304.792969 138.128906 C 305.613281 140.109375 306.382812 142.105469 307.105469 144.121094 C 307.828125 146.136719 308.5 148.171875 309.121094 150.222656 C 309.742188 152.269531 310.3125 154.335938 310.832031 156.410156 C 311.355469 158.488281 311.824219 160.578125 312.242188 162.679688 C 312.660156 164.777344 313.023438 166.886719 313.339844 169.007812 C 313.652344 171.125 313.914062 173.25 314.125 175.382812 C 314.335938 177.511719 314.492188 179.648438 314.597656 181.789062 C 314.703125 183.925781 314.753906 186.066406 314.753906 188.207031 Z M 314.753906 188.207031 " fill-opacity="1" fill-rule="nonzero"/></g><path fill="#c46019" d="M 293.546875 188.820312 C 293.546875 190.597656 293.503906 192.378906 293.414062 194.15625 C 293.328125 195.9375 293.195312 197.710938 293.023438 199.484375 C 292.847656 201.253906 292.628906 203.023438 292.367188 204.785156 C 292.105469 206.546875 291.804688 208.300781 291.457031 210.046875 C 291.109375 211.792969 290.71875 213.527344 290.285156 215.257812 C 289.851562 216.984375 289.378906 218.699219 288.859375 220.402344 C 288.34375 222.105469 287.785156 223.796875 287.183594 225.472656 C 286.585938 227.152344 285.945312 228.8125 285.261719 230.457031 C 284.582031 232.101562 283.859375 233.730469 283.097656 235.339844 C 282.335938 236.949219 281.539062 238.539062 280.699219 240.109375 C 279.859375 241.679688 278.980469 243.226562 278.066406 244.753906 C 277.148438 246.28125 276.195312 247.785156 275.207031 249.265625 C 274.21875 250.746094 273.195312 252.203125 272.132812 253.632812 C 271.070312 255.0625 269.976562 256.46875 268.847656 257.84375 C 267.71875 259.21875 266.554688 260.566406 265.359375 261.886719 C 264.164062 263.207031 262.933594 264.496094 261.675781 265.753906 C 260.417969 267.015625 259.125 268.242188 257.808594 269.4375 C 256.488281 270.632812 255.140625 271.796875 253.761719 272.925781 C 252.386719 274.054688 250.984375 275.148438 249.554688 276.210938 C 248.121094 277.273438 246.667969 278.296875 245.1875 279.285156 C 243.707031 280.273438 242.203125 281.226562 240.675781 282.144531 C 239.148438 283.058594 237.597656 283.9375 236.027344 284.777344 C 234.457031 285.613281 232.867188 286.414062 231.257812 287.175781 C 229.648438 287.9375 228.019531 288.660156 226.375 289.339844 C 224.730469 290.023438 223.066406 290.664062 221.390625 291.261719 C 219.714844 291.863281 218.023438 292.421875 216.320312 292.9375 C 214.617188 293.453125 212.898438 293.929688 211.171875 294.363281 C 209.445312 294.792969 207.707031 295.183594 205.960938 295.53125 C 204.214844 295.878906 202.460938 296.183594 200.699219 296.445312 C 198.9375 296.707031 197.171875 296.925781 195.398438 297.097656 C 193.625 297.273438 191.851562 297.40625 190.070312 297.492188 C 188.292969 297.578125 186.511719 297.621094 184.734375 297.621094 C 182.953125 297.621094 181.171875 297.578125 179.394531 297.492188 C 177.613281 297.40625 175.839844 297.273438 174.066406 297.097656 C 172.292969 296.925781 170.527344 296.707031 168.765625 296.445312 C 167.003906 296.183594 165.25 295.878906 163.503906 295.53125 C 161.757812 295.183594 160.019531 294.792969 158.292969 294.363281 C 156.566406 293.929688 154.851562 293.453125 153.144531 292.9375 C 151.441406 292.421875 149.75 291.863281 148.074219 291.261719 C 146.398438 290.664062 144.738281 290.023438 143.089844 289.339844 C 141.445312 288.660156 139.820312 287.9375 138.207031 287.175781 C 136.597656 286.414062 135.007812 285.613281 133.4375 284.777344 C 131.867188 283.9375 130.320312 283.058594 128.792969 282.144531 C 127.265625 281.226562 125.761719 280.273438 124.277344 279.285156 C 122.796875 278.296875 121.34375 277.273438 119.914062 276.210938 C 118.480469 275.148438 117.078125 274.054688 115.703125 272.925781 C 114.324219 271.796875 112.976562 270.632812 111.65625 269.4375 C 110.339844 268.242188 109.050781 267.015625 107.789062 265.753906 C 106.53125 264.496094 105.304688 263.207031 104.105469 261.886719 C 102.910156 260.566406 101.75 259.21875 100.617188 257.84375 C 99.488281 256.46875 98.394531 255.0625 97.332031 253.632812 C 96.273438 252.203125 95.246094 250.746094 94.257812 249.265625 C 93.269531 247.785156 92.316406 246.28125 91.398438 244.753906 C 90.484375 243.226562 89.605469 241.679688 88.769531 240.109375 C 87.929688 238.539062 87.128906 236.949219 86.367188 235.339844 C 85.605469 233.730469 84.882812 232.101562 84.203125 230.457031 C 83.519531 228.8125 82.878906 227.152344 82.28125 225.472656 C 81.679688 223.796875 81.121094 222.105469 80.605469 220.402344 C 80.085938 218.699219 79.613281 216.984375 79.179688 215.257812 C 78.746094 213.527344 78.355469 211.792969 78.011719 210.046875 C 77.664062 208.300781 77.359375 206.546875 77.097656 204.785156 C 76.835938 203.023438 76.617188 201.253906 76.441406 199.484375 C 76.269531 197.710938 76.136719 195.9375 76.050781 194.15625 C 75.960938 192.378906 75.917969 190.597656 75.917969 188.820312 C 75.917969 187.039062 75.960938 185.257812 76.050781 183.480469 C 76.136719 181.703125 76.269531 179.925781 76.441406 178.152344 C 76.617188 176.382812 76.835938 174.617188 77.097656 172.855469 C 77.359375 171.09375 77.664062 169.339844 78.011719 167.59375 C 78.355469 165.847656 78.746094 164.109375 79.179688 162.382812 C 79.613281 160.65625 80.085938 158.9375 80.605469 157.234375 C 81.121094 155.53125 81.679688 153.839844 82.28125 152.164062 C 82.878906 150.488281 83.519531 148.828125 84.203125 147.179688 C 84.882812 145.535156 85.605469 143.910156 86.367188 142.300781 C 87.128906 140.691406 87.929688 139.097656 88.769531 137.527344 C 89.605469 135.957031 90.484375 134.410156 91.398438 132.882812 C 92.316406 131.355469 93.269531 129.851562 94.257812 128.371094 C 95.246094 126.890625 96.273438 125.433594 97.332031 124.003906 C 98.394531 122.574219 99.488281 121.171875 100.617188 119.792969 C 101.75 118.417969 102.910156 117.070312 104.105469 115.75 C 105.304688 114.429688 106.53125 113.140625 107.789062 111.882812 C 109.050781 110.625 110.339844 109.394531 111.65625 108.199219 C 112.976562 107.003906 114.324219 105.84375 115.703125 104.710938 C 117.078125 103.582031 118.480469 102.488281 119.914062 101.425781 C 121.34375 100.367188 122.796875 99.339844 124.277344 98.351562 C 125.761719 97.363281 127.265625 96.410156 128.792969 95.496094 C 130.320312 94.578125 131.867188 93.703125 133.4375 92.863281 C 135.007812 92.023438 136.597656 91.222656 138.207031 90.460938 C 139.820312 89.699219 141.445312 88.980469 143.089844 88.296875 C 144.738281 87.617188 146.398438 86.976562 148.074219 86.375 C 149.75 85.773438 151.441406 85.21875 153.144531 84.699219 C 154.851562 84.183594 156.566406 83.707031 158.292969 83.277344 C 160.019531 82.84375 161.757812 82.453125 163.503906 82.105469 C 165.25 81.757812 167.003906 81.453125 168.765625 81.191406 C 170.527344 80.929688 172.292969 80.714844 174.066406 80.539062 C 175.839844 80.363281 177.613281 80.234375 179.394531 80.144531 C 181.171875 80.058594 182.953125 80.015625 184.734375 80.015625 C 186.511719 80.015625 188.292969 80.058594 190.070312 80.144531 C 191.851562 80.234375 193.625 80.363281 195.398438 80.539062 C 197.171875 80.714844 198.9375 80.929688 200.699219 81.191406 C 202.460938 81.453125 204.214844 81.757812 205.960938 82.105469 C 207.707031 82.453125 209.445312 82.84375 211.171875 83.277344 C 212.898438 83.707031 214.617188 84.183594 216.320312 84.699219 C 218.023438 85.21875 219.714844 85.773438 221.390625 86.375 C 223.066406 86.976562 224.730469 87.617188 226.375 88.296875 C 228.019531 88.980469 229.648438 89.699219 231.257812 90.460938 C 232.867188 91.222656 234.457031 92.023438 236.027344 92.863281 C 237.597656 93.703125 239.148438 94.578125 240.675781 95.496094 C 242.203125 96.410156 243.707031 97.363281 245.1875 98.351562 C 246.667969 99.339844 248.121094 100.367188 249.554688 101.425781 C 250.984375 102.488281 252.386719 103.582031 253.761719 104.710938 C 255.140625 105.84375 256.488281 107.003906 257.808594 108.199219 C 259.125 109.394531 260.417969 110.625 261.675781 111.882812 C 262.933594 113.140625 264.164062 114.429688 265.359375 115.75 C 266.554688 117.070312 267.71875 118.417969 268.847656 119.792969 C 269.976562 121.171875 271.070312 122.574219 272.132812 124.003906 C 273.195312 125.433594 274.21875 126.890625 275.207031 128.371094 C 276.195312 129.851562 277.148438 131.355469 278.066406 132.882812 C 278.980469 134.410156 279.859375 135.957031 280.699219 137.527344 C 281.539062 139.097656 282.335938 140.691406 283.097656 142.300781 C 283.859375 143.910156 284.582031 145.535156 285.261719 147.179688 C 285.945312 148.828125 286.585938 150.488281 287.183594 152.164062 C 287.785156 153.839844 288.34375 155.53125 288.859375 157.234375 C 289.378906 158.9375 289.851562 160.65625 290.285156 162.382812 C 290.71875 164.109375 291.109375 165.847656 291.457031 167.59375 C 291.804688 169.339844 292.105469 171.09375 292.367188 172.855469 C 292.628906 174.617188 292.847656 176.382812 293.023438 178.152344 C 293.195312 179.925781 293.328125 181.703125 293.414062 183.480469 C 293.503906 185.257812 293.546875 187.039062 293.546875 188.820312 Z M 293.546875 188.820312 " fill-opacity="1" fill-rule="nonzero"/><path fill="#ffffff" d="M 293.546875 183.078125 C 293.546875 184.859375 293.503906 186.640625 293.414062 188.417969 C 293.328125 190.195312 293.195312 191.972656 293.023438 193.742188 C 292.847656 195.515625 292.628906 197.28125 292.367188 199.042969 C 292.105469 200.804688 291.804688 202.558594 291.457031 204.304688 C 291.109375 206.050781 290.71875 207.789062 290.285156 209.515625 C 289.851562 211.242188 289.378906 212.957031 288.859375 214.664062 C 288.34375 216.367188 287.785156 218.058594 287.183594 219.734375 C 286.585938 221.410156 285.945312 223.070312 285.261719 224.714844 C 284.582031 226.359375 283.859375 227.988281 283.097656 229.597656 C 282.335938 231.207031 281.539062 232.796875 280.699219 234.367188 C 279.859375 235.9375 278.980469 237.488281 278.066406 239.015625 C 277.148438 240.542969 276.195312 242.046875 275.207031 243.527344 C 274.21875 245.007812 273.195312 246.460938 272.132812 247.894531 C 271.070312 249.324219 269.976562 250.726562 268.847656 252.101562 C 267.71875 253.480469 266.554688 254.828125 265.359375 256.148438 C 264.164062 257.464844 262.933594 258.753906 261.675781 260.015625 C 260.417969 261.273438 259.125 262.5 257.808594 263.695312 C 256.488281 264.894531 255.140625 266.054688 253.761719 267.183594 C 252.386719 268.316406 250.984375 269.410156 249.554688 270.46875 C 248.121094 271.53125 246.667969 272.554688 245.1875 273.546875 C 243.707031 274.535156 242.203125 275.488281 240.675781 276.402344 C 239.148438 277.316406 237.597656 278.195312 236.027344 279.035156 C 234.457031 279.875 232.867188 280.675781 231.257812 281.4375 C 229.648438 282.199219 228.019531 282.917969 226.375 283.601562 C 224.730469 284.28125 223.066406 284.921875 221.390625 285.523438 C 219.714844 286.121094 218.023438 286.679688 216.320312 287.199219 C 214.617188 287.714844 212.898438 288.1875 211.171875 288.621094 C 209.445312 289.054688 207.707031 289.445312 205.960938 289.792969 C 204.214844 290.140625 202.460938 290.445312 200.699219 290.703125 C 198.9375 290.964844 197.171875 291.183594 195.398438 291.359375 C 193.625 291.53125 191.851562 291.664062 190.070312 291.75 C 188.292969 291.839844 186.511719 291.882812 184.734375 291.882812 C 182.953125 291.882812 181.171875 291.839844 179.394531 291.75 C 177.613281 291.664062 175.839844 291.53125 174.066406 291.359375 C 172.292969 291.183594 170.527344 290.964844 168.765625 290.703125 C 167.003906 290.445312 165.25 290.140625 163.503906 289.792969 C 161.757812 289.445312 160.019531 289.054688 158.292969 288.621094 C 156.566406 288.1875 154.851562 287.714844 153.144531 287.199219 C 151.441406 286.679688 149.75 286.121094 148.074219 285.523438 C 146.398438 284.921875 144.738281 284.28125 143.089844 283.601562 C 141.445312 282.917969 139.820312 282.199219 138.207031 281.4375 C 136.597656 280.675781 135.007812 279.875 133.4375 279.035156 C 131.867188 278.195312 130.320312 277.316406 128.792969 276.402344 C 127.265625 275.488281 125.761719 274.535156 124.277344 273.546875 C 122.796875 272.554688 121.34375 271.53125 119.914062 270.46875 C 118.480469 269.410156 117.078125 268.316406 115.703125 267.183594 C 114.324219 266.054688 112.976562 264.894531 111.65625 263.695312 C 110.339844 262.5 109.050781 261.273438 107.789062 260.015625 C 106.53125 258.753906 105.304688 257.464844 104.105469 256.148438 C 102.910156 254.828125 101.75 253.480469 100.617188 252.101562 C 99.488281 250.726562 98.394531 249.324219 97.332031 247.894531 C 96.273438 246.460938 95.246094 245.007812 94.257812 243.527344 C 93.269531 242.046875 92.316406 240.542969 91.398438 239.015625 C 90.484375 237.488281 89.605469 235.9375 88.769531 234.367188 C 87.929688 232.796875 87.128906 231.207031 86.367188 229.597656 C 85.605469 227.988281 84.882812 226.359375 84.203125 224.714844 C 83.519531 223.070312 82.878906 221.410156 82.28125 219.734375 C 81.679688 218.058594 81.121094 216.367188 80.605469 214.664062 C 80.085938 212.957031 79.613281 211.242188 79.179688 209.515625 C 78.746094 207.789062 78.355469 206.050781 78.011719 204.304688 C 77.664062 202.558594 77.359375 200.804688 77.097656 199.042969 C 76.835938 197.28125 76.617188 195.515625 76.441406 193.742188 C 76.269531 191.972656 76.136719 190.195312 76.050781 188.417969 C 75.960938 186.640625 75.917969 184.859375 75.917969 183.078125 C 75.917969 181.296875 75.960938 179.519531 76.050781 177.738281 C 76.136719 175.960938 76.269531 174.1875 76.441406 172.414062 C 76.617188 170.640625 76.835938 168.875 77.097656 167.113281 C 77.359375 165.351562 77.664062 163.597656 78.011719 161.851562 C 78.355469 160.105469 78.746094 158.367188 79.179688 156.640625 C 79.613281 154.914062 80.085938 153.199219 80.605469 151.496094 C 81.121094 149.789062 81.679688 148.101562 82.28125 146.421875 C 82.878906 144.746094 83.519531 143.085938 84.203125 141.441406 C 84.882812 139.796875 85.605469 138.167969 86.367188 136.558594 C 87.128906 134.949219 87.929688 133.359375 88.769531 131.789062 C 89.605469 130.21875 90.484375 128.667969 91.398438 127.140625 C 92.316406 125.613281 93.269531 124.109375 94.257812 122.628906 C 95.246094 121.148438 96.273438 119.695312 97.332031 118.265625 C 98.394531 116.832031 99.488281 115.429688 100.617188 114.054688 C 101.75 112.675781 102.910156 111.328125 104.105469 110.011719 C 105.304688 108.691406 106.53125 107.402344 107.789062 106.140625 C 109.050781 104.882812 110.339844 103.65625 111.65625 102.460938 C 112.976562 101.265625 114.324219 100.101562 115.703125 98.972656 C 117.078125 97.84375 118.480469 96.746094 119.914062 95.6875 C 121.34375 94.625 122.796875 93.601562 124.277344 92.609375 C 125.761719 91.621094 127.265625 90.667969 128.792969 89.753906 C 130.320312 88.839844 131.867188 87.960938 133.4375 87.121094 C 135.007812 86.28125 136.597656 85.480469 138.207031 84.722656 C 139.820312 83.960938 141.445312 83.238281 143.089844 82.558594 C 144.738281 81.875 146.398438 81.234375 148.074219 80.632812 C 149.75 80.035156 151.441406 79.476562 153.144531 78.960938 C 154.851562 78.441406 156.566406 77.96875 158.292969 77.535156 C 160.019531 77.101562 161.757812 76.710938 163.503906 76.363281 C 165.25 76.019531 167.003906 75.714844 168.765625 75.453125 C 170.527344 75.191406 172.292969 74.972656 174.066406 74.796875 C 175.839844 74.625 177.613281 74.492188 179.394531 74.40625 C 181.171875 74.316406 182.953125 74.273438 184.734375 74.273438 C 186.511719 74.273438 188.292969 74.316406 190.070312 74.40625 C 191.851562 74.492188 193.625 74.625 195.398438 74.796875 C 197.171875 74.972656 198.9375 75.191406 200.699219 75.453125 C 202.460938 75.714844 204.214844 76.019531 205.960938 76.363281 C 207.707031 76.710938 209.445312 77.101562 211.171875 77.535156 C 212.898438 77.96875 214.617188 78.441406 216.320312 78.960938 C 218.023438 79.476562 219.714844 80.035156 221.390625 80.632812 C 223.066406 81.234375 224.730469 81.875 226.375 82.558594 C 228.019531 83.238281 229.648438 83.960938 231.257812 84.722656 C 232.867188 85.480469 234.457031 86.28125 236.027344 87.121094 C 237.597656 87.960938 239.148438 88.839844 240.675781 89.753906 C 242.203125 90.667969 243.707031 91.621094 245.1875 92.609375 C 246.667969 93.601562 248.121094 94.625 249.554688 95.6875 C 250.984375 96.746094 252.386719 97.84375 253.761719 98.972656 C 255.140625 100.101562 256.488281 101.265625 257.808594 102.460938 C 259.125 103.65625 260.417969 104.882812 261.675781 106.140625 C 262.933594 107.402344 264.164062 108.691406 265.359375 110.011719 C 266.554688 111.328125 267.71875 112.675781 268.847656 114.054688 C 269.976562 115.429688 271.070312 116.832031 272.132812 118.265625 C 273.195312 119.695312 274.21875 121.148438 275.207031 122.628906 C 276.195312 124.109375 277.148438 125.613281 278.066406 127.140625 C 278.980469 128.667969 279.859375 130.21875 280.699219 131.789062 C 281.539062 133.359375 282.335938 134.949219 283.097656 136.558594 C 283.859375 138.167969 284.582031 139.796875 285.261719 141.441406 C 285.945312 143.085938 286.585938 144.746094 287.183594 146.421875 C 287.785156 148.101562 288.34375 149.789062 288.859375 151.496094 C 289.378906 153.199219 289.851562 154.914062 290.285156 156.640625 C 290.71875 158.367188 291.109375 160.105469 291.457031 161.851562 C 291.804688 163.597656 292.105469 165.351562 292.367188 167.113281 C 292.628906 168.875 292.847656 170.640625 293.023438 172.414062 C 293.195312 174.1875 293.328125 175.960938 293.414062 177.738281 C 293.503906 179.519531 293.546875 181.296875 293.546875 183.078125 Z M 293.546875 183.078125 " fill-opacity="1" fill-rule="nonzero"/><path fill="#ffcd59" d="M 293.519531 185.347656 C 292.308594 244.390625 244.070312 291.882812 184.734375 291.882812 C 125.394531 291.882812 77.15625 244.390625 75.949219 185.347656 C 77.15625 126.308594 125.394531 78.816406 184.734375 78.816406 C 244.070312 78.816406 292.308594 126.308594 293.519531 185.347656 Z M 293.519531 185.347656 " fill-opacity="1" fill-rule="evenodd"/><path fill="#ffffff" d="M 117.5625 109.671875 C 127.417969 102.792969 138.511719 101.660156 142.339844 107.144531 C 146.167969 112.628906 141.285156 122.652344 131.429688 129.53125 C 121.578125 136.410156 110.484375 137.542969 106.652344 132.058594 C 102.824219 126.578125 107.710938 116.554688 117.5625 109.671875 Z M 101.773438 139.101562 C 106.6875 139.101562 110.671875 143.085938 110.671875 148 C 110.671875 152.914062 106.6875 156.894531 101.773438 156.894531 C 96.859375 156.894531 92.875 152.914062 92.875 148 C 92.875 143.085938 96.859375 139.101562 101.773438 139.101562 Z M 101.773438 139.101562 " fill-opacity="1" fill-rule="evenodd"/><path fill="#c46019" d="M 195.503906 139.40625 C 201.375 140.691406 206.867188 143.003906 211.769531 146.148438 L 216.851562 141.066406 C 221.039062 136.878906 227.894531 136.878906 232.082031 141.066406 L 232.085938 141.066406 C 236.273438 145.257812 236.273438 152.109375 232.085938 156.300781 L 227.003906 161.378906 C 230.148438 166.285156 232.464844 171.773438 233.75 177.644531 L 240.925781 177.644531 C 246.851562 177.644531 251.699219 182.492188 251.699219 188.414062 L 251.699219 188.417969 C 251.699219 194.339844 246.851562 199.1875 240.925781 199.1875 L 233.75 199.1875 C 232.464844 205.0625 230.148438 210.546875 227.003906 215.453125 L 232.085938 220.53125 C 236.277344 224.722656 236.277344 231.574219 232.085938 235.761719 L 232.085938 235.765625 C 227.894531 239.953125 221.042969 239.953125 216.851562 235.765625 L 211.769531 230.683594 C 206.867188 233.828125 201.375 236.144531 195.503906 237.429688 L 195.503906 244.605469 C 195.503906 250.53125 190.65625 255.375 184.734375 255.375 L 184.730469 255.375 C 178.808594 255.375 173.960938 250.53125 173.960938 244.605469 L 173.960938 237.429688 C 168.085938 236.144531 162.601562 233.828125 157.695312 230.683594 L 152.613281 235.765625 C 148.425781 239.953125 141.570312 239.953125 137.378906 235.765625 L 137.378906 235.761719 C 133.191406 231.574219 133.191406 224.722656 137.378906 220.53125 L 142.460938 215.453125 C 139.316406 210.546875 136.996094 205.058594 135.714844 199.1875 L 128.539062 199.1875 C 122.613281 199.1875 117.769531 194.339844 117.769531 188.417969 L 117.769531 188.414062 C 117.769531 182.492188 122.613281 177.644531 128.539062 177.644531 L 135.714844 177.644531 C 137 171.773438 139.316406 166.289062 142.464844 161.382812 L 137.378906 156.300781 C 133.191406 152.109375 133.191406 145.257812 137.378906 141.070312 L 137.382812 141.070312 C 141.574219 136.878906 148.425781 136.878906 152.617188 141.070312 L 157.695312 146.148438 C 162.601562 143.003906 168.089844 140.691406 173.960938 139.40625 L 173.960938 132.226562 C 173.960938 126.304688 178.808594 121.457031 184.730469 121.457031 L 184.734375 121.457031 C 190.65625 121.457031 195.503906 126.304688 195.503906 132.226562 Z M 184.734375 164.957031 C 197.691406 164.957031 208.195312 175.460938 208.195312 188.417969 C 208.195312 201.375 197.691406 211.878906 184.734375 211.878906 C 171.773438 211.878906 161.269531 201.375 161.269531 188.417969 C 161.269531 175.460938 171.773438 164.957031 184.734375 164.957031 Z M 184.734375 164.957031 " fill-opacity="1" fill-rule="evenodd"/><path fill="#ff8228" d="M 233.683594 154.261719 C 233.242188 154.988281 232.710938 155.671875 232.085938 156.300781 L 227.003906 161.378906 L 227.027344 161.410156 L 227.027344 172.511719 L 227.003906 172.53125 C 230.148438 177.4375 232.464844 182.925781 233.75 188.796875 L 240.925781 188.796875 C 244.8125 188.796875 248.238281 190.882812 250.132812 193.992188 C 248.238281 197.101562 244.8125 199.1875 240.925781 199.1875 L 233.75 199.1875 C 232.464844 205.0625 230.148438 210.546875 227.003906 215.453125 L 227.027344 215.476562 L 227.027344 226.570312 L 227.003906 226.605469 L 232.085938 231.683594 C 232.710938 232.3125 233.246094 232.996094 233.683594 233.722656 C 233.246094 234.449219 232.710938 235.136719 232.085938 235.761719 L 232.085938 235.765625 C 227.894531 239.953125 221.042969 239.953125 216.851562 235.765625 L 211.769531 230.683594 C 206.867188 233.828125 201.375 236.140625 195.503906 237.429688 L 195.503906 244.605469 C 195.503906 250.53125 190.65625 255.375 184.734375 255.375 L 184.730469 255.375 C 178.804688 255.375 173.960938 250.53125 173.960938 244.605469 L 173.960938 237.429688 C 168.085938 236.140625 162.601562 233.828125 157.695312 230.683594 L 152.613281 235.765625 C 148.421875 239.953125 141.570312 239.953125 137.378906 235.765625 L 137.378906 235.761719 C 136.753906 235.136719 136.222656 234.449219 135.78125 233.722656 C 136.222656 232.996094 136.753906 232.3125 137.378906 231.683594 L 142.460938 226.605469 L 142.460938 215.453125 C 139.316406 210.546875 136.996094 205.058594 135.710938 199.1875 L 128.539062 199.1875 C 124.652344 199.1875 121.226562 197.101562 119.332031 193.992188 C 121.226562 190.882812 124.652344 188.796875 128.539062 188.796875 L 135.714844 188.796875 C 137 182.925781 139.316406 177.441406 142.460938 172.535156 L 142.460938 161.382812 L 137.378906 156.300781 C 136.753906 155.671875 136.222656 154.988281 135.78125 154.261719 C 136.222656 153.535156 136.753906 152.847656 137.378906 152.222656 L 137.382812 152.222656 C 141.570312 148.03125 148.425781 148.03125 152.617188 152.222656 L 157.695312 157.300781 C 162.601562 154.15625 168.089844 151.84375 173.960938 150.558594 L 173.960938 143.378906 C 173.960938 137.457031 178.804688 132.609375 184.730469 132.609375 L 184.734375 132.609375 C 190.65625 132.609375 195.503906 137.457031 195.503906 143.378906 L 195.503906 150.558594 C 201.375 151.84375 206.867188 154.15625 211.769531 157.300781 L 216.851562 152.222656 C 221.039062 148.03125 227.894531 148.03125 232.082031 152.222656 L 232.085938 152.222656 C 232.710938 152.847656 233.242188 153.535156 233.683594 154.261719 Z M 207.527344 193.992188 C 207.964844 195.78125 208.195312 197.648438 208.195312 199.570312 C 208.195312 212.527344 197.691406 223.03125 184.734375 223.03125 C 171.773438 223.03125 161.269531 212.527344 161.269531 199.570312 C 161.269531 197.648438 161.503906 195.78125 161.9375 193.992188 C 161.503906 192.207031 161.269531 190.339844 161.269531 188.417969 C 161.269531 175.460938 171.773438 164.957031 184.734375 164.957031 C 197.691406 164.957031 208.195312 175.460938 208.195312 188.417969 C 208.195312 190.339844 207.964844 192.207031 207.527344 193.992188 Z M 207.527344 193.992188 " fill-opacity="1" fill-rule="evenodd"/></svg>