<svg xmlns="http://www.w3.org/2000/svg" xmlns:xlink="http://www.w3.org/1999/xlink" width="500" zoomAndPan="magnify" viewBox="0 0 375 374.999991" height="500" preserveAspectRatio="xMidYMid meet" version="1.0"><defs><clipPath id="7ffbc1a745"><path d="M 83 90 L 287 90 L 287 284 L 83 284 Z M 83 90 " clip-rule="nonzero"/></clipPath><clipPath id="ee19d2ec16"><path d="M 130.589844 273.285156 C 111.695312 265.625 93.671875 253.417969 86.460938 223.101562 C 79.25 192.789062 83.761719 158.15625 97.855469 135.671875 C 98.394531 134.847656 98.933594 134.027344 99.476562 133.238281 C 129.5 89.617188 210.1875 71.636719 255.914062 115.867188 C 308.722656 166.941406 284.222656 256.957031 254.878906 271.621094 C 229.636719 284.234375 171.898438 290.035156 130.589844 273.285156 Z M 130.589844 273.285156 " clip-rule="evenodd"/></clipPath><radialGradient gradientTransform="matrix(0.237523, 0.970769, -0.972073, 0.237204, 184.9924, 186.972726)" gradientUnits="userSpaceOnUse" r="134.260488" cx="0" id="60b0f66522" cy="0" fx="0" fy="0"><stop stop-opacity="1" stop-color="rgb(99.813843%, 56.729126%, 17.172241%)" offset="0"/><stop stop-opacity="1" stop-color="rgb(99.455261%, 56.401062%, 16.925049%)" offset="0.0625"/><stop stop-opacity="1" stop-color="rgb(99.118042%, 56.09436%, 16.694641%)" offset="0.121094"/><stop stop-opacity="1" stop-color="rgb(98.805237%, 55.807495%, 16.481018%)" offset="0.175781"/><stop stop-opacity="1" stop-color="rgb(98.51532%, 55.543518%, 16.281128%)" offset="0.226562"/><stop stop-opacity="1" stop-color="rgb(98.248291%, 55.299377%, 16.099548%)" offset="0.273438"/><stop stop-opacity="1" stop-color="rgb(98.005676%, 55.076599%, 15.933228%)" offset="0.316406"/><stop stop-opacity="1" stop-color="rgb(97.775269%, 54.864502%, 15.77301%)" offset="0.355469"/><stop stop-opacity="1" stop-color="rgb(97.554016%, 54.663086%, 15.621948%)" offset="0.394531"/><stop stop-opacity="1" stop-color="rgb(97.344971%, 54.472351%, 15.480042%)" offset="0.429688"/><stop stop-opacity="1" stop-color="rgb(97.148132%, 54.292297%, 15.344238%)" offset="0.464844"/><stop stop-opacity="1" stop-color="rgb(96.870422%, 54.039001%, 15.153503%)" offset="0.496094"/><stop stop-opacity="1" stop-color="rgb(96.604919%, 53.794861%, 14.970398%)" offset="0.558594"/><stop stop-opacity="1" stop-color="rgb(96.374512%, 53.588867%, 14.811707%)" offset="0.585938"/><stop stop-opacity="1" stop-color="rgb(96.154785%, 53.393555%, 14.659119%)" offset="0.597656"/><stop stop-opacity="1" stop-color="rgb(96.014404%, 53.268433%, 14.561462%)" offset="0.601562"/><stop stop-opacity="1" stop-color="rgb(95.874023%, 53.144836%, 14.463806%)" offset="0.605469"/><stop stop-opacity="1" stop-color="rgb(95.733643%, 53.019714%, 14.36615%)" offset="0.609375"/><stop stop-opacity="1" stop-color="rgb(95.593262%, 52.896118%, 14.268494%)" offset="0.613281"/><stop stop-opacity="1" stop-color="rgb(95.452881%, 52.770996%, 14.170837%)" offset="0.617188"/><stop stop-opacity="1" stop-color="rgb(95.3125%, 52.6474%, 14.073181%)" offset="0.621094"/><stop stop-opacity="1" stop-color="rgb(95.172119%, 52.522278%, 13.975525%)" offset="0.625"/><stop stop-opacity="1" stop-color="rgb(94.961548%, 52.336121%, 13.829041%)" offset="0.628906"/><stop stop-opacity="1" stop-color="rgb(94.680786%, 52.087402%, 13.633728%)" offset="0.636719"/><stop stop-opacity="1" stop-color="rgb(94.400024%, 51.838684%, 13.438416%)" offset="0.644531"/><stop stop-opacity="1" stop-color="rgb(94.120789%, 51.589966%, 13.243103%)" offset="0.652344"/><stop stop-opacity="1" stop-color="rgb(93.840027%, 51.341248%, 13.047791%)" offset="0.660156"/><stop stop-opacity="1" stop-color="rgb(93.559265%, 51.094055%, 12.852478%)" offset="0.667969"/><stop stop-opacity="1" stop-color="rgb(93.278503%, 50.845337%, 12.657166%)" offset="0.675781"/><stop stop-opacity="1" stop-color="rgb(92.997742%, 50.596619%, 12.461853%)" offset="0.683594"/><stop stop-opacity="1" stop-color="rgb(92.71698%, 50.3479%, 12.266541%)" offset="0.691406"/><stop stop-opacity="1" stop-color="rgb(92.436218%, 50.099182%, 12.071228%)" offset="0.699219"/><stop stop-opacity="1" stop-color="rgb(92.156982%, 49.850464%, 11.875916%)" offset="0.707031"/><stop stop-opacity="1" stop-color="rgb(91.876221%, 49.601746%, 11.680603%)" offset="0.714844"/><stop stop-opacity="1" stop-color="rgb(91.595459%, 49.353027%, 11.485291%)" offset="0.722656"/><stop stop-opacity="1" stop-color="rgb(91.314697%, 49.104309%, 11.289978%)" offset="0.730469"/><stop stop-opacity="1" stop-color="rgb(91.033936%, 48.855591%, 11.094666%)" offset="0.738281"/><stop stop-opacity="1" stop-color="rgb(90.753174%, 48.606873%, 10.899353%)" offset="0.746094"/><stop stop-opacity="1" stop-color="rgb(90.542603%, 48.420715%, 10.752869%)" offset="0.753906"/><stop stop-opacity="1" stop-color="rgb(90.403748%, 48.297119%, 10.655212%)" offset="0.757812"/><stop stop-opacity="1" stop-color="rgb(90.263367%, 48.173523%, 10.557556%)" offset="0.761719"/><stop stop-opacity="1" stop-color="rgb(90.122986%, 48.048401%, 10.4599%)" offset="0.765625"/><stop stop-opacity="1" stop-color="rgb(89.982605%, 47.924805%, 10.362244%)" offset="0.769531"/><stop stop-opacity="1" stop-color="rgb(89.842224%, 47.799683%, 10.264587%)" offset="0.773438"/><stop stop-opacity="1" stop-color="rgb(89.701843%, 47.676086%, 10.166931%)" offset="0.777344"/><stop stop-opacity="1" stop-color="rgb(89.561462%, 47.550964%, 10.069275%)" offset="0.78125"/><stop stop-opacity="1" stop-color="rgb(89.421082%, 47.427368%, 9.971619%)" offset="0.785156"/><stop stop-opacity="1" stop-color="rgb(89.280701%, 47.302246%, 9.873962%)" offset="0.789062"/><stop stop-opacity="1" stop-color="rgb(89.14032%, 47.17865%, 9.776306%)" offset="0.792969"/><stop stop-opacity="1" stop-color="rgb(88.999939%, 47.053528%, 9.67865%)" offset="0.796875"/><stop stop-opacity="1" stop-color="rgb(88.859558%, 46.929932%, 9.580994%)" offset="0.800781"/><stop stop-opacity="1" stop-color="rgb(88.719177%, 46.806335%, 9.483337%)" offset="0.804688"/><stop stop-opacity="1" stop-color="rgb(88.572693%, 46.676636%, 9.382629%)" offset="0.808594"/><stop stop-opacity="1" stop-color="rgb(88.415527%, 46.542358%, 9.27887%)" offset="0.8125"/><stop stop-opacity="1" stop-color="rgb(88.175964%, 46.334839%, 9.121704%)" offset="0.816406"/><stop stop-opacity="1" stop-color="rgb(87.85553%, 46.060181%, 8.912659%)" offset="0.824219"/><stop stop-opacity="1" stop-color="rgb(87.533569%, 45.783997%, 8.702087%)" offset="0.832031"/><stop stop-opacity="1" stop-color="rgb(87.213135%, 45.509338%, 8.493042%)" offset="0.839844"/><stop stop-opacity="1" stop-color="rgb(86.8927%, 45.233154%, 8.282471%)" offset="0.847656"/><stop stop-opacity="1" stop-color="rgb(86.572266%, 44.95697%, 8.073425%)" offset="0.855469"/><stop stop-opacity="1" stop-color="rgb(86.251831%, 44.682312%, 7.86438%)" offset="0.863281"/><stop stop-opacity="1" stop-color="rgb(85.931396%, 44.406128%, 7.653809%)" offset="0.871094"/><stop stop-opacity="1" stop-color="rgb(85.690308%, 44.200134%, 7.496643%)" offset="0.878906"/><stop stop-opacity="1" stop-color="rgb(85.528564%, 44.062805%, 7.391357%)" offset="0.882812"/><stop stop-opacity="1" stop-color="rgb(85.368347%, 43.925476%, 7.287598%)" offset="0.886719"/><stop stop-opacity="1" stop-color="rgb(85.20813%, 43.786621%, 7.182312%)" offset="0.890625"/><stop stop-opacity="1" stop-color="rgb(85.047913%, 43.649292%, 7.077026%)" offset="0.894531"/><stop stop-opacity="1" stop-color="rgb(84.887695%, 43.511963%, 6.971741%)" offset="0.898438"/><stop stop-opacity="1" stop-color="rgb(84.727478%, 43.373108%, 6.867981%)" offset="0.902344"/><stop stop-opacity="1" stop-color="rgb(84.567261%, 43.235779%, 6.762695%)" offset="0.90625"/><stop stop-opacity="1" stop-color="rgb(84.327698%, 43.029785%, 6.60553%)" offset="0.910156"/><stop stop-opacity="1" stop-color="rgb(84.005737%, 42.753601%, 6.396484%)" offset="0.917969"/><stop stop-opacity="1" stop-color="rgb(83.685303%, 42.478943%, 6.185913%)" offset="0.925781"/><stop stop-opacity="1" stop-color="rgb(83.364868%, 42.202759%, 5.976868%)" offset="0.933594"/><stop stop-opacity="1" stop-color="rgb(83.123779%, 41.996765%, 5.819702%)" offset="0.941406"/><stop stop-opacity="1" stop-color="rgb(82.963562%, 41.85791%, 5.714417%)" offset="0.945312"/><stop stop-opacity="1" stop-color="rgb(82.803345%, 41.720581%, 5.609131%)" offset="0.949219"/><stop stop-opacity="1" stop-color="rgb(82.643127%, 41.583252%, 5.503845%)" offset="0.953125"/><stop stop-opacity="1" stop-color="rgb(82.402039%, 41.375732%, 5.34668%)" offset="0.957031"/><stop stop-opacity="1" stop-color="rgb(82.081604%, 41.101074%, 5.137634%)" offset="0.964844"/><stop stop-opacity="1" stop-color="rgb(81.840515%, 40.895081%, 4.980469%)" offset="0.972656"/><stop stop-opacity="1" stop-color="rgb(81.680298%, 40.756226%, 4.875183%)" offset="0.976562"/><stop stop-opacity="1" stop-color="rgb(81.440735%, 40.550232%, 4.718018%)" offset="0.980469"/><stop stop-opacity="1" stop-color="rgb(81.199646%, 40.342712%, 4.560852%)" offset="0.988281"/><stop stop-opacity="1" stop-color="rgb(80.960083%, 40.136719%, 4.403687%)" offset="0.992188"/><stop stop-opacity="1" stop-color="rgb(80.799866%, 39.99939%, 4.299927%)" offset="1"/></radialGradient></defs><path fill="#fff6ed" d="M 120.988281 291.492188 C 97.621094 282.015625 75.398438 266.855469 66.480469 229.367188 C 57.882812 193.210938 63.492188 151.9375 80.300781 125.125 C 80.332031 125.074219 80.363281 125.023438 80.394531 124.972656 C 81.035156 123.996094 81.671875 123.027344 82.316406 122.089844 C 100.328125 95.921875 133.410156 77.226562 168.972656 71.925781 C 204.683594 66.601562 242.699219 74.730469 270.246094 101.375 C 308.054688 137.941406 312.972656 191.160156 303.035156 231.726562 C 296.09375 260.082031 281.566406 282.007812 266.882812 289.347656 C 237.253906 304.152344 169.480469 311.152344 120.988281 291.492188 Z M 120.988281 291.492188 " fill-opacity="1" fill-rule="evenodd"/><path fill="#e27327" d="M 126.820312 279.265625 C 106.617188 271.074219 87.34375 258.019531 79.632812 225.605469 C 71.925781 193.191406 76.75 156.160156 91.816406 132.117188 C 92.398438 131.234375 92.96875 130.359375 93.550781 129.515625 C 125.652344 82.871094 211.929688 63.648438 260.828125 110.941406 C 317.292969 165.550781 291.097656 261.804688 259.71875 277.484375 C 232.730469 290.96875 170.992188 297.175781 126.820312 279.265625 Z M 126.820312 279.265625 " fill-opacity="1" fill-rule="evenodd"/><g clip-path="url(#7ffbc1a745)"><g clip-path="url(#ee19d2ec16)"><path fill="url(#60b0f66522)" d="M 295.792969 18.796875 L 28.824219 83.941406 L 92.179688 342.875 L 359.148438 277.730469 Z M 295.792969 18.796875 " fill-rule="nonzero"/></g></g><path fill="#fff6ed" d="M 120.988281 291.492188 C 97.621094 282.015625 75.398438 266.855469 66.480469 229.367188 C 57.882812 193.210938 63.492188 151.9375 80.300781 125.125 C 80.332031 125.074219 80.363281 125.023438 80.394531 124.972656 C 81.035156 123.996094 81.671875 123.027344 82.316406 122.089844 C 100.328125 95.921875 133.410156 77.226562 168.972656 71.925781 C 204.683594 66.601562 242.699219 74.730469 270.246094 101.375 C 308.054688 137.941406 312.972656 191.160156 303.035156 231.726562 C 296.09375 260.082031 281.566406 282.007812 266.882812 289.347656 C 237.253906 304.152344 169.480469 311.152344 120.988281 291.492188 Z M 126.820312 279.265625 C 170.992188 297.175781 232.730469 290.96875 259.71875 277.484375 C 291.097656 261.804688 317.292969 165.550781 260.828125 110.941406 C 211.929688 63.648438 125.652344 82.871094 93.550781 129.515625 C 92.96875 130.359375 92.398438 131.234375 91.816406 132.117188 C 76.75 156.160156 71.925781 193.191406 79.632812 225.605469 C 87.34375 258.019531 106.617188 271.074219 126.820312 279.265625 Z M 126.820312 279.265625 " fill-opacity="1" fill-rule="evenodd"/><path fill="#c6640b" d="M 198.023438 219.289062 C 177.863281 222.125 157.390625 222.378906 136.558594 219.671875 C 132.445312 219.128906 129.367188 215.625 129.367188 211.476562 C 129.363281 203.058594 129.363281 189.113281 129.363281 180.382812 C 129.363281 175.953125 132.859375 172.3125 137.285156 172.121094 C 158.503906 171.238281 178.734375 171.347656 197.980469 172.265625 C 198.117188 168.597656 198.292969 165.191406 198.515625 162.167969 C 198.71875 159.410156 199.742188 156.847656 201.734375 155.472656 C 203.722656 154.097656 205.992188 154.484375 208.148438 155.515625 C 221.722656 162.03125 244.859375 176.816406 256.308594 189.648438 C 257.9375 191.472656 259.464844 193.5625 259.464844 196.300781 C 259.464844 199.035156 258.167969 201.414062 256.308594 202.949219 C 243.839844 213.25 221.21875 229.109375 208.148438 237.082031 C 206.089844 238.335938 203.722656 238.5 201.734375 237.125 C 199.742188 235.75 198.675781 233.191406 198.515625 230.429688 C 198.324219 227.125 198.15625 223.355469 198.023438 219.289062 Z M 198.023438 219.289062 " fill-opacity="1" fill-rule="evenodd"/><path fill="#ffffff" d="M 191.78125 210.382812 C 171.621094 213.214844 151.148438 213.46875 130.320312 210.761719 C 126.203125 210.21875 123.128906 206.714844 123.128906 202.570312 C 123.125 194.152344 123.125 180.203125 123.125 171.472656 C 123.125 167.046875 126.617188 163.40625 131.046875 163.214844 C 152.265625 162.332031 172.492188 162.4375 191.738281 163.355469 C 191.875 159.691406 192.054688 156.28125 192.273438 153.261719 C 192.476562 150.503906 193.503906 147.941406 195.492188 146.566406 C 197.484375 145.191406 199.753906 145.574219 201.90625 146.609375 C 215.484375 153.121094 238.621094 167.90625 250.066406 180.738281 C 251.695312 182.566406 253.222656 184.65625 253.222656 187.390625 C 253.222656 190.125 251.925781 192.503906 250.066406 194.042969 C 237.601562 204.339844 214.976562 220.203125 201.90625 228.171875 C 199.851562 229.425781 197.484375 229.589844 195.492188 228.214844 C 193.503906 226.839844 192.433594 224.28125 192.273438 221.519531 C 192.082031 218.214844 191.917969 214.445312 191.78125 210.382812 Z M 191.78125 210.382812 " fill-opacity="1" fill-rule="evenodd"/></svg>