<svg xmlns="http://www.w3.org/2000/svg" xmlns:xlink="http://www.w3.org/1999/xlink" width="500" zoomAndPan="magnify" viewBox="0 0 375 374.999991" height="500" preserveAspectRatio="xMidYMid meet" version="1.0"><defs><clipPath id="6acc4c53cd"><path d="M 83 85 L 297 85 L 297 289 L 83 289 Z M 83 85 " clip-rule="nonzero"/></clipPath><clipPath id="e1c11b4480"><path d="M 247.09375 277.664062 C 266.859375 269.632812 285.714844 256.832031 293.261719 225.046875 C 300.804688 193.265625 296.082031 156.953125 281.339844 133.378906 C 280.773438 132.511719 280.210938 131.652344 279.644531 130.824219 C 248.234375 85.089844 163.816406 66.238281 115.972656 112.613281 C 60.726562 166.160156 86.359375 260.542969 117.058594 275.917969 C 143.464844 289.140625 203.871094 295.226562 247.09375 277.664062 Z M 247.09375 277.664062 " clip-rule="evenodd"/></clipPath><radialGradient gradientTransform="matrix(-0.237266, 0.97182, 0.971022, 0.237461, 190.17456, 187.165386)" gradientUnits="userSpaceOnUse" r="140.617838" cx="0" id="1baee3a506" cy="0" fx="0" fy="0"><stop stop-opacity="1" stop-color="rgb(99.813843%, 56.729126%, 17.172241%)" offset="0"/><stop stop-opacity="1" stop-color="rgb(99.455261%, 56.401062%, 16.925049%)" offset="0.0625"/><stop stop-opacity="1" stop-color="rgb(99.118042%, 56.09436%, 16.694641%)" offset="0.121094"/><stop stop-opacity="1" stop-color="rgb(98.805237%, 55.807495%, 16.481018%)" offset="0.175781"/><stop stop-opacity="1" stop-color="rgb(98.51532%, 55.543518%, 16.281128%)" offset="0.226562"/><stop stop-opacity="1" stop-color="rgb(98.248291%, 55.299377%, 16.099548%)" offset="0.273438"/><stop stop-opacity="1" stop-color="rgb(98.005676%, 55.076599%, 15.933228%)" offset="0.316406"/><stop stop-opacity="1" stop-color="rgb(97.775269%, 54.864502%, 15.77301%)" offset="0.355469"/><stop stop-opacity="1" stop-color="rgb(97.554016%, 54.663086%, 15.621948%)" offset="0.394531"/><stop stop-opacity="1" stop-color="rgb(97.344971%, 54.472351%, 15.480042%)" offset="0.429688"/><stop stop-opacity="1" stop-color="rgb(97.148132%, 54.292297%, 15.344238%)" offset="0.464844"/><stop stop-opacity="1" stop-color="rgb(96.870422%, 54.039001%, 15.153503%)" offset="0.496094"/><stop stop-opacity="1" stop-color="rgb(96.604919%, 53.794861%, 14.970398%)" offset="0.558594"/><stop stop-opacity="1" stop-color="rgb(96.374512%, 53.588867%, 14.811707%)" offset="0.585938"/><stop stop-opacity="1" stop-color="rgb(96.154785%, 53.393555%, 14.659119%)" offset="0.597656"/><stop stop-opacity="1" stop-color="rgb(96.014404%, 53.268433%, 14.561462%)" offset="0.601562"/><stop stop-opacity="1" stop-color="rgb(95.874023%, 53.144836%, 14.463806%)" offset="0.605469"/><stop stop-opacity="1" stop-color="rgb(95.733643%, 53.019714%, 14.36615%)" offset="0.609375"/><stop stop-opacity="1" stop-color="rgb(95.593262%, 52.896118%, 14.268494%)" offset="0.613281"/><stop stop-opacity="1" stop-color="rgb(95.452881%, 52.770996%, 14.170837%)" offset="0.617188"/><stop stop-opacity="1" stop-color="rgb(95.3125%, 52.6474%, 14.073181%)" offset="0.621094"/><stop stop-opacity="1" stop-color="rgb(95.172119%, 52.522278%, 13.975525%)" offset="0.625"/><stop stop-opacity="1" stop-color="rgb(94.961548%, 52.336121%, 13.829041%)" offset="0.628906"/><stop stop-opacity="1" stop-color="rgb(94.680786%, 52.087402%, 13.633728%)" offset="0.636719"/><stop stop-opacity="1" stop-color="rgb(94.400024%, 51.838684%, 13.438416%)" offset="0.644531"/><stop stop-opacity="1" stop-color="rgb(94.120789%, 51.589966%, 13.243103%)" offset="0.652344"/><stop stop-opacity="1" stop-color="rgb(93.840027%, 51.341248%, 13.047791%)" offset="0.660156"/><stop stop-opacity="1" stop-color="rgb(93.559265%, 51.094055%, 12.852478%)" offset="0.667969"/><stop stop-opacity="1" stop-color="rgb(93.278503%, 50.845337%, 12.657166%)" offset="0.675781"/><stop stop-opacity="1" stop-color="rgb(92.997742%, 50.596619%, 12.461853%)" offset="0.683594"/><stop stop-opacity="1" stop-color="rgb(92.71698%, 50.3479%, 12.266541%)" offset="0.691406"/><stop stop-opacity="1" stop-color="rgb(92.436218%, 50.099182%, 12.071228%)" offset="0.699219"/><stop stop-opacity="1" stop-color="rgb(92.156982%, 49.850464%, 11.875916%)" offset="0.707031"/><stop stop-opacity="1" stop-color="rgb(91.876221%, 49.601746%, 11.680603%)" offset="0.714844"/><stop stop-opacity="1" stop-color="rgb(91.595459%, 49.353027%, 11.485291%)" offset="0.722656"/><stop stop-opacity="1" stop-color="rgb(91.314697%, 49.104309%, 11.289978%)" offset="0.730469"/><stop stop-opacity="1" stop-color="rgb(91.033936%, 48.855591%, 11.094666%)" offset="0.738281"/><stop stop-opacity="1" stop-color="rgb(90.753174%, 48.606873%, 10.899353%)" offset="0.746094"/><stop stop-opacity="1" stop-color="rgb(90.542603%, 48.420715%, 10.752869%)" offset="0.753906"/><stop stop-opacity="1" stop-color="rgb(90.403748%, 48.297119%, 10.655212%)" offset="0.757812"/><stop stop-opacity="1" stop-color="rgb(90.263367%, 48.173523%, 10.557556%)" offset="0.761719"/><stop stop-opacity="1" stop-color="rgb(90.122986%, 48.048401%, 10.4599%)" offset="0.765625"/><stop stop-opacity="1" stop-color="rgb(89.982605%, 47.924805%, 10.362244%)" offset="0.769531"/><stop stop-opacity="1" stop-color="rgb(89.842224%, 47.799683%, 10.264587%)" offset="0.773438"/><stop stop-opacity="1" stop-color="rgb(89.701843%, 47.676086%, 10.166931%)" offset="0.777344"/><stop stop-opacity="1" stop-color="rgb(89.561462%, 47.550964%, 10.069275%)" offset="0.78125"/><stop stop-opacity="1" stop-color="rgb(89.421082%, 47.427368%, 9.971619%)" offset="0.785156"/><stop stop-opacity="1" stop-color="rgb(89.280701%, 47.302246%, 9.873962%)" offset="0.789062"/><stop stop-opacity="1" stop-color="rgb(89.14032%, 47.17865%, 9.776306%)" offset="0.792969"/><stop stop-opacity="1" stop-color="rgb(88.999939%, 47.053528%, 9.67865%)" offset="0.796875"/><stop stop-opacity="1" stop-color="rgb(88.859558%, 46.929932%, 9.580994%)" offset="0.800781"/><stop stop-opacity="1" stop-color="rgb(88.719177%, 46.806335%, 9.483337%)" offset="0.804688"/><stop stop-opacity="1" stop-color="rgb(88.572693%, 46.676636%, 9.382629%)" offset="0.808594"/><stop stop-opacity="1" stop-color="rgb(88.415527%, 46.542358%, 9.27887%)" offset="0.8125"/><stop stop-opacity="1" stop-color="rgb(88.175964%, 46.334839%, 9.121704%)" offset="0.816406"/><stop stop-opacity="1" stop-color="rgb(87.85553%, 46.060181%, 8.912659%)" offset="0.824219"/><stop stop-opacity="1" stop-color="rgb(87.533569%, 45.783997%, 8.702087%)" offset="0.832031"/><stop stop-opacity="1" stop-color="rgb(87.213135%, 45.509338%, 8.493042%)" offset="0.839844"/><stop stop-opacity="1" stop-color="rgb(86.8927%, 45.233154%, 8.282471%)" offset="0.847656"/><stop stop-opacity="1" stop-color="rgb(86.572266%, 44.95697%, 8.073425%)" offset="0.855469"/><stop stop-opacity="1" stop-color="rgb(86.251831%, 44.682312%, 7.86438%)" offset="0.863281"/><stop stop-opacity="1" stop-color="rgb(85.931396%, 44.406128%, 7.653809%)" offset="0.871094"/><stop stop-opacity="1" stop-color="rgb(85.690308%, 44.200134%, 7.496643%)" offset="0.878906"/><stop stop-opacity="1" stop-color="rgb(85.528564%, 44.062805%, 7.391357%)" offset="0.882812"/><stop stop-opacity="1" stop-color="rgb(85.368347%, 43.925476%, 7.287598%)" offset="0.886719"/><stop stop-opacity="1" stop-color="rgb(85.20813%, 43.786621%, 7.182312%)" offset="0.890625"/><stop stop-opacity="1" stop-color="rgb(85.047913%, 43.649292%, 7.077026%)" offset="0.894531"/><stop stop-opacity="1" stop-color="rgb(84.887695%, 43.511963%, 6.971741%)" offset="0.898438"/><stop stop-opacity="1" stop-color="rgb(84.727478%, 43.373108%, 6.867981%)" offset="0.902344"/><stop stop-opacity="1" stop-color="rgb(84.567261%, 43.235779%, 6.762695%)" offset="0.90625"/><stop stop-opacity="1" stop-color="rgb(84.327698%, 43.029785%, 6.60553%)" offset="0.910156"/><stop stop-opacity="1" stop-color="rgb(84.005737%, 42.753601%, 6.396484%)" offset="0.917969"/><stop stop-opacity="1" stop-color="rgb(83.685303%, 42.478943%, 6.185913%)" offset="0.925781"/><stop stop-opacity="1" stop-color="rgb(83.364868%, 42.202759%, 5.976868%)" offset="0.933594"/><stop stop-opacity="1" stop-color="rgb(83.123779%, 41.996765%, 5.819702%)" offset="0.941406"/><stop stop-opacity="1" stop-color="rgb(82.963562%, 41.85791%, 5.714417%)" offset="0.945312"/><stop stop-opacity="1" stop-color="rgb(82.803345%, 41.720581%, 5.609131%)" offset="0.949219"/><stop stop-opacity="1" stop-color="rgb(82.643127%, 41.583252%, 5.503845%)" offset="0.953125"/><stop stop-opacity="1" stop-color="rgb(82.402039%, 41.375732%, 5.34668%)" offset="0.957031"/><stop stop-opacity="1" stop-color="rgb(82.081604%, 41.101074%, 5.137634%)" offset="0.964844"/><stop stop-opacity="1" stop-color="rgb(81.840515%, 40.895081%, 4.980469%)" offset="0.972656"/><stop stop-opacity="1" stop-color="rgb(81.680298%, 40.756226%, 4.875183%)" offset="0.976562"/><stop stop-opacity="1" stop-color="rgb(81.440735%, 40.550232%, 4.718018%)" offset="0.980469"/><stop stop-opacity="1" stop-color="rgb(81.199646%, 40.342712%, 4.560852%)" offset="0.988281"/><stop stop-opacity="1" stop-color="rgb(80.960083%, 40.136719%, 4.403687%)" offset="0.992188"/><stop stop-opacity="1" stop-color="rgb(80.799866%, 39.99939%, 4.299927%)" offset="1"/></radialGradient></defs><path fill="#fff6ed" d="M 257.136719 296.75 C 281.585938 286.816406 304.832031 270.921875 314.164062 231.613281 C 323.160156 193.707031 317.289062 150.433594 299.707031 122.316406 C 299.671875 122.265625 299.640625 122.210938 299.605469 122.160156 C 298.933594 121.132812 298.269531 120.117188 297.597656 119.136719 C 278.753906 91.699219 244.140625 72.097656 206.933594 66.539062 C 169.570312 60.957031 129.800781 69.480469 100.980469 97.417969 C 61.425781 135.757812 56.28125 191.554688 66.675781 234.089844 C 73.9375 263.820312 89.136719 286.808594 104.5 294.503906 C 135.5 310.027344 206.402344 317.367188 257.136719 296.75 Z M 257.136719 296.75 " fill-opacity="1" fill-rule="evenodd"/><path fill="#e27327" d="M 251.035156 283.933594 C 272.171875 275.34375 292.335938 261.65625 300.402344 227.671875 C 308.46875 193.6875 303.417969 154.859375 287.65625 129.652344 C 287.050781 128.726562 286.449219 127.808594 285.839844 126.921875 C 252.253906 78.015625 161.992188 57.859375 110.832031 107.449219 C 51.761719 164.707031 79.167969 265.625 111.996094 282.066406 C 140.230469 296.203125 204.820312 302.710938 251.035156 283.933594 Z M 251.035156 283.933594 " fill-opacity="1" fill-rule="evenodd"/><g clip-path="url(#6acc4c53cd)"><g clip-path="url(#e1c11b4480)"><path fill="url(#1baee3a506)" d="M 74.253906 10.835938 L 353.5625 79.140625 L 287.277344 350.628906 L 7.972656 282.324219 Z M 74.253906 10.835938 " fill-rule="nonzero"/></g></g><path fill="#fff6ed" d="M 257.136719 296.75 C 281.585938 286.816406 304.832031 270.921875 314.164062 231.613281 C 323.160156 193.707031 317.289062 150.433594 299.707031 122.316406 C 299.671875 122.265625 299.640625 122.210938 299.605469 122.160156 C 298.933594 121.132812 298.269531 120.117188 297.597656 119.136719 C 278.753906 91.699219 244.140625 72.097656 206.933594 66.539062 C 169.570312 60.957031 129.800781 69.480469 100.980469 97.417969 C 61.425781 135.757812 56.28125 191.554688 66.675781 234.089844 C 73.9375 263.820312 89.136719 286.808594 104.5 294.503906 C 135.5 310.027344 206.402344 317.367188 257.136719 296.75 Z M 251.035156 283.933594 C 204.820312 302.710938 140.230469 296.203125 111.996094 282.066406 C 79.167969 265.625 51.761719 164.707031 110.832031 107.449219 C 161.992188 57.859375 252.253906 78.015625 285.839844 126.921875 C 286.449219 127.808594 287.050781 128.726562 287.65625 129.652344 C 303.417969 154.859375 308.46875 193.6875 300.402344 227.671875 C 292.335938 261.65625 272.171875 275.34375 251.035156 283.933594 Z M 251.035156 283.933594 " fill-opacity="1" fill-rule="evenodd"/><path fill="#c6640b" d="M 176.542969 221.050781 C 197.632812 224.019531 219.054688 224.285156 240.847656 221.449219 C 245.152344 220.878906 248.367188 217.207031 248.367188 212.859375 C 248.371094 204.03125 248.371094 189.40625 248.371094 180.253906 C 248.371094 175.613281 244.71875 171.792969 240.085938 171.59375 C 217.886719 170.667969 196.722656 170.78125 176.585938 171.746094 C 176.445312 167.902344 176.257812 164.328125 176.027344 161.160156 C 175.816406 158.265625 174.742188 155.578125 172.660156 154.140625 C 170.578125 152.699219 168.203125 153.101562 165.949219 154.183594 C 151.746094 161.011719 127.539062 176.515625 115.5625 189.96875 C 113.859375 191.882812 112.261719 194.074219 112.261719 196.945312 C 112.261719 199.8125 113.617188 202.308594 115.5625 203.917969 C 128.605469 214.714844 152.273438 231.34375 165.949219 239.703125 C 168.101562 241.019531 170.578125 241.1875 172.660156 239.75 C 174.742188 238.308594 175.859375 235.625 176.027344 232.730469 C 176.226562 229.261719 176.402344 225.3125 176.542969 221.050781 Z M 176.542969 221.050781 " fill-opacity="1" fill-rule="evenodd"/><path fill="#ffffff" d="M 183.070312 211.710938 C 204.164062 214.679688 225.582031 214.945312 247.375 212.109375 C 251.679688 211.539062 254.898438 207.867188 254.898438 203.519531 C 254.902344 194.691406 254.902344 180.066406 254.902344 170.914062 C 254.902344 166.273438 251.246094 162.453125 246.613281 162.253906 C 224.414062 161.328125 203.25 161.441406 183.117188 162.40625 C 182.972656 158.5625 182.789062 154.988281 182.554688 151.816406 C 182.34375 148.925781 181.269531 146.238281 179.1875 144.796875 C 177.105469 143.359375 174.734375 143.761719 172.476562 144.84375 C 158.273438 151.671875 134.066406 167.175781 122.089844 180.628906 C 120.386719 182.542969 118.789062 184.734375 118.789062 187.601562 C 118.789062 190.472656 120.144531 192.964844 122.089844 194.578125 C 135.132812 205.375 158.804688 222.003906 172.476562 230.363281 C 174.628906 231.675781 177.105469 231.847656 179.1875 230.410156 C 181.269531 228.96875 182.386719 226.285156 182.554688 223.390625 C 182.753906 219.921875 182.929688 215.96875 183.070312 211.710938 Z M 183.070312 211.710938 " fill-opacity="1" fill-rule="evenodd"/></svg>