<svg xmlns="http://www.w3.org/2000/svg" xmlns:xlink="http://www.w3.org/1999/xlink" width="500" zoomAndPan="magnify" viewBox="0 0 375 374.999991" height="500" preserveAspectRatio="xMidYMid meet" version="1.0"><defs><clipPath id="0017df58d2"><path d="M 61.175781 54 L 322.925781 54 L 322.925781 316.730469 L 61.175781 316.730469 Z M 61.175781 54 " clip-rule="nonzero"/></clipPath><clipPath id="e02c31cf91"><path d="M 61.175781 49 L 322.925781 49 L 322.925781 311 L 61.175781 311 Z M 61.175781 49 " clip-rule="nonzero"/></clipPath></defs><g clip-path="url(#0017df58d2)"><path fill="#c46019" d="M 322.929688 185.835938 C 322.929688 187.976562 322.875 190.117188 322.769531 192.257812 C 322.664062 194.398438 322.507812 196.53125 322.296875 198.664062 C 322.089844 200.792969 321.824219 202.917969 321.511719 205.039062 C 321.199219 207.15625 320.832031 209.265625 320.414062 211.367188 C 319.996094 213.46875 319.527344 215.554688 319.007812 217.632812 C 318.484375 219.710938 317.914062 221.773438 317.292969 223.824219 C 316.671875 225.875 316 227.90625 315.277344 229.921875 C 314.554688 231.941406 313.785156 233.9375 312.964844 235.914062 C 312.144531 237.894531 311.277344 239.851562 310.363281 241.789062 C 309.445312 243.722656 308.484375 245.636719 307.472656 247.523438 C 306.464844 249.414062 305.410156 251.277344 304.308594 253.113281 C 303.207031 254.949219 302.0625 256.761719 300.871094 258.539062 C 299.683594 260.320312 298.449219 262.070312 297.171875 263.792969 C 295.898438 265.511719 294.578125 267.199219 293.222656 268.855469 C 291.863281 270.511719 290.464844 272.132812 289.023438 273.71875 C 287.585938 275.304688 286.109375 276.855469 284.59375 278.371094 C 283.082031 279.886719 281.53125 281.363281 279.941406 282.800781 C 278.355469 284.238281 276.734375 285.636719 275.078125 286.996094 C 273.421875 288.355469 271.734375 289.671875 270.015625 290.945312 C 268.292969 292.222656 266.542969 293.457031 264.761719 294.644531 C 262.980469 295.835938 261.171875 296.980469 259.335938 298.082031 C 257.5 299.183594 255.636719 300.238281 253.746094 301.246094 C 251.859375 302.257812 249.945312 303.21875 248.007812 304.136719 C 246.074219 305.050781 244.117188 305.917969 242.136719 306.738281 C 240.15625 307.558594 238.160156 308.328125 236.144531 309.050781 C 234.125 309.773438 232.09375 310.445312 230.042969 311.066406 C 227.996094 311.6875 225.929688 312.257812 223.851562 312.777344 C 221.773438 313.296875 219.6875 313.769531 217.585938 314.1875 C 215.484375 314.605469 213.375 314.96875 211.257812 315.285156 C 209.136719 315.597656 207.011719 315.859375 204.878906 316.070312 C 202.75 316.28125 200.613281 316.4375 198.472656 316.542969 C 196.335938 316.648438 194.195312 316.699219 192.050781 316.699219 C 189.910156 316.699219 187.769531 316.648438 185.632812 316.542969 C 183.492188 316.4375 181.355469 316.28125 179.226562 316.070312 C 177.09375 315.859375 174.96875 315.597656 172.847656 315.285156 C 170.730469 314.96875 168.621094 314.605469 166.519531 314.1875 C 164.417969 313.769531 162.332031 313.296875 160.253906 312.777344 C 158.175781 312.257812 156.109375 311.6875 154.0625 311.066406 C 152.011719 310.445312 149.980469 309.773438 147.960938 309.050781 C 145.945312 308.328125 143.949219 307.558594 141.96875 306.738281 C 139.988281 305.917969 138.03125 305.050781 136.097656 304.136719 C 134.160156 303.21875 132.246094 302.257812 130.359375 301.246094 C 128.46875 300.238281 126.605469 299.183594 124.769531 298.082031 C 122.933594 296.980469 121.125 295.835938 119.34375 294.644531 C 117.5625 293.457031 115.8125 292.222656 114.089844 290.945312 C 112.371094 289.671875 110.683594 288.355469 109.027344 286.996094 C 107.371094 285.636719 105.75 284.238281 104.164062 282.800781 C 102.574219 281.363281 101.023438 279.886719 99.511719 278.371094 C 97.996094 276.855469 96.519531 275.304688 95.082031 273.71875 C 93.640625 272.132812 92.242188 270.511719 90.882812 268.855469 C 89.527344 267.199219 88.207031 265.511719 86.933594 263.792969 C 85.65625 262.070312 84.421875 260.320312 83.234375 258.539062 C 82.042969 256.761719 80.898438 254.949219 79.796875 253.113281 C 78.695312 251.277344 77.640625 249.414062 76.632812 247.523438 C 75.621094 245.636719 74.660156 243.722656 73.742188 241.789062 C 72.828125 239.851562 71.960938 237.894531 71.140625 235.914062 C 70.320312 233.9375 69.550781 231.941406 68.828125 229.921875 C 68.105469 227.90625 67.433594 225.875 66.8125 223.824219 C 66.191406 221.773438 65.621094 219.710938 65.097656 217.632812 C 64.578125 215.554688 64.109375 213.46875 63.691406 211.367188 C 63.273438 209.265625 62.90625 207.15625 62.59375 205.039062 C 62.28125 202.917969 62.015625 200.792969 61.808594 198.664062 C 61.597656 196.53125 61.441406 194.398438 61.335938 192.257812 C 61.230469 190.117188 61.175781 187.976562 61.175781 185.835938 C 61.175781 183.695312 61.230469 181.554688 61.335938 179.414062 C 61.441406 177.277344 61.597656 175.140625 61.808594 173.011719 C 62.015625 170.878906 62.28125 168.753906 62.59375 166.636719 C 62.90625 164.515625 63.273438 162.40625 63.691406 160.304688 C 64.109375 158.207031 64.578125 156.117188 65.097656 154.039062 C 65.621094 151.960938 66.191406 149.898438 66.8125 147.847656 C 67.433594 145.800781 68.105469 143.765625 68.828125 141.75 C 69.550781 139.734375 70.320312 137.734375 71.140625 135.757812 C 71.960938 133.777344 72.828125 131.820312 73.742188 129.886719 C 74.660156 127.949219 75.621094 126.035156 76.632812 124.148438 C 77.640625 122.257812 78.695312 120.394531 79.796875 118.558594 C 80.898438 116.722656 82.042969 114.914062 83.234375 113.132812 C 84.421875 111.351562 85.65625 109.601562 86.933594 107.882812 C 88.207031 106.160156 89.527344 104.472656 90.882812 102.816406 C 92.242188 101.164062 93.640625 99.539062 95.082031 97.953125 C 96.519531 96.367188 97.996094 94.816406 99.511719 93.300781 C 101.023438 91.789062 102.574219 90.3125 104.164062 88.875 C 105.75 87.433594 107.371094 86.035156 109.027344 84.675781 C 110.683594 83.320312 112.371094 82 114.089844 80.726562 C 115.8125 79.449219 117.5625 78.21875 119.34375 77.027344 C 121.125 75.835938 122.933594 74.691406 124.769531 73.589844 C 126.605469 72.488281 128.46875 71.433594 130.359375 70.425781 C 132.246094 69.414062 134.160156 68.453125 136.097656 67.539062 C 138.03125 66.621094 139.988281 65.753906 141.96875 64.933594 C 143.949219 64.113281 145.945312 63.34375 147.960938 62.621094 C 149.980469 61.902344 152.011719 61.230469 154.0625 60.609375 C 156.109375 59.984375 158.175781 59.414062 160.253906 58.894531 C 162.332031 58.375 164.417969 57.90625 166.519531 57.488281 C 168.621094 57.070312 170.730469 56.703125 172.847656 56.390625 C 174.96875 56.074219 177.09375 55.8125 179.226562 55.601562 C 181.355469 55.394531 183.492188 55.234375 185.632812 55.128906 C 187.769531 55.027344 189.910156 54.972656 192.050781 54.972656 C 194.195312 54.972656 196.335938 55.027344 198.472656 55.128906 C 200.613281 55.234375 202.75 55.394531 204.878906 55.601562 C 207.011719 55.8125 209.136719 56.074219 211.257812 56.390625 C 213.375 56.703125 215.484375 57.070312 217.585938 57.488281 C 219.6875 57.90625 221.773438 58.375 223.851562 58.894531 C 225.929688 59.414062 227.996094 59.984375 230.042969 60.609375 C 232.09375 61.230469 234.125 61.902344 236.144531 62.621094 C 238.160156 63.34375 240.15625 64.113281 242.136719 64.933594 C 244.117188 65.753906 246.074219 66.621094 248.007812 67.539062 C 249.945312 68.453125 251.859375 69.414062 253.746094 70.425781 C 255.636719 71.433594 257.5 72.488281 259.335938 73.589844 C 261.171875 74.691406 262.980469 75.835938 264.761719 77.027344 C 266.542969 78.21875 268.292969 79.449219 270.015625 80.726562 C 271.734375 82 273.421875 83.320312 275.078125 84.675781 C 276.734375 86.035156 278.355469 87.433594 279.941406 88.875 C 281.53125 90.3125 283.082031 91.789062 284.59375 93.300781 C 286.109375 94.816406 287.585938 96.367188 289.023438 97.953125 C 290.464844 99.539062 291.863281 101.164062 293.222656 102.816406 C 294.578125 104.472656 295.898438 106.160156 297.171875 107.882812 C 298.449219 109.601562 299.683594 111.351562 300.871094 113.132812 C 302.0625 114.914062 303.207031 116.722656 304.308594 118.558594 C 305.410156 120.394531 306.464844 122.257812 307.472656 124.148438 C 308.484375 126.035156 309.445312 127.949219 310.363281 129.886719 C 311.277344 131.820312 312.144531 133.777344 312.964844 135.757812 C 313.785156 137.734375 314.554688 139.734375 315.277344 141.75 C 316 143.765625 316.671875 145.800781 317.292969 147.847656 C 317.914062 149.898438 318.484375 151.960938 319.007812 154.039062 C 319.527344 156.117188 319.996094 158.207031 320.414062 160.304688 C 320.832031 162.40625 321.199219 164.515625 321.511719 166.636719 C 321.824219 168.753906 322.089844 170.878906 322.296875 173.011719 C 322.507812 175.140625 322.664062 177.277344 322.769531 179.414062 C 322.875 181.554688 322.929688 183.695312 322.929688 185.835938 Z M 322.929688 185.835938 " fill-opacity="1" fill-rule="nonzero"/></g><g clip-path="url(#e02c31cf91)"><path fill="#ff8228" d="M 322.929688 179.875 C 322.929688 182.015625 322.875 184.15625 322.769531 186.296875 C 322.664062 188.433594 322.507812 190.570312 322.296875 192.703125 C 322.089844 194.832031 321.824219 196.957031 321.511719 199.078125 C 321.199219 201.195312 320.832031 203.304688 320.414062 205.40625 C 319.996094 207.507812 319.527344 209.59375 319.007812 211.671875 C 318.484375 213.75 317.914062 215.8125 317.292969 217.863281 C 316.671875 219.914062 316 221.945312 315.277344 223.960938 C 314.554688 225.976562 313.785156 227.976562 312.964844 229.953125 C 312.144531 231.933594 311.277344 233.890625 310.363281 235.828125 C 309.445312 237.761719 308.484375 239.675781 307.472656 241.5625 C 306.464844 243.453125 305.410156 245.316406 304.308594 247.152344 C 303.207031 248.988281 302.0625 250.796875 300.871094 252.578125 C 299.683594 254.359375 298.449219 256.109375 297.171875 257.832031 C 295.898438 259.550781 294.578125 261.238281 293.222656 262.894531 C 291.863281 264.550781 290.464844 266.171875 289.023438 267.757812 C 287.585938 269.34375 286.109375 270.894531 284.59375 272.410156 C 283.082031 273.925781 281.53125 275.402344 279.941406 276.839844 C 278.355469 278.277344 276.734375 279.675781 275.078125 281.035156 C 273.421875 282.394531 271.734375 283.710938 270.015625 284.984375 C 268.292969 286.261719 266.542969 287.496094 264.761719 288.683594 C 262.980469 289.875 261.171875 291.019531 259.335938 292.121094 C 257.5 293.222656 255.636719 294.277344 253.746094 295.285156 C 251.859375 296.296875 249.945312 297.257812 248.007812 298.175781 C 246.074219 299.089844 244.117188 299.957031 242.136719 300.777344 C 240.15625 301.597656 238.160156 302.367188 236.144531 303.089844 C 234.125 303.8125 232.09375 304.480469 230.042969 305.105469 C 227.996094 305.726562 225.929688 306.296875 223.851562 306.816406 C 221.773438 307.335938 219.6875 307.804688 217.585938 308.222656 C 215.484375 308.640625 213.375 309.007812 211.257812 309.324219 C 209.136719 309.636719 207.011719 309.898438 204.878906 310.109375 C 202.75 310.320312 200.613281 310.476562 198.472656 310.582031 C 196.335938 310.6875 194.195312 310.738281 192.050781 310.738281 C 189.910156 310.738281 187.769531 310.6875 185.632812 310.582031 C 183.492188 310.476562 181.355469 310.320312 179.226562 310.109375 C 177.09375 309.898438 174.96875 309.636719 172.847656 309.324219 C 170.730469 309.007812 168.621094 308.640625 166.519531 308.222656 C 164.417969 307.804688 162.332031 307.335938 160.253906 306.816406 C 158.175781 306.296875 156.109375 305.726562 154.0625 305.105469 C 152.011719 304.480469 149.980469 303.8125 147.960938 303.089844 C 145.945312 302.367188 143.949219 301.597656 141.96875 300.777344 C 139.988281 299.957031 138.03125 299.089844 136.097656 298.175781 C 134.160156 297.257812 132.246094 296.296875 130.359375 295.285156 C 128.46875 294.277344 126.605469 293.222656 124.769531 292.121094 C 122.933594 291.019531 121.125 289.875 119.34375 288.683594 C 117.5625 287.496094 115.8125 286.261719 114.089844 284.984375 C 112.371094 283.710938 110.683594 282.394531 109.027344 281.035156 C 107.371094 279.675781 105.75 278.277344 104.164062 276.839844 C 102.574219 275.402344 101.023438 273.925781 99.511719 272.410156 C 97.996094 270.894531 96.519531 269.34375 95.082031 267.757812 C 93.640625 266.171875 92.242188 264.550781 90.882812 262.894531 C 89.527344 261.238281 88.207031 259.550781 86.933594 257.832031 C 85.65625 256.109375 84.421875 254.359375 83.234375 252.578125 C 82.042969 250.796875 80.898438 248.988281 79.796875 247.152344 C 78.695312 245.316406 77.640625 243.453125 76.632812 241.5625 C 75.621094 239.675781 74.660156 237.761719 73.742188 235.828125 C 72.828125 233.890625 71.960938 231.933594 71.140625 229.953125 C 70.320312 227.976562 69.550781 225.976562 68.828125 223.960938 C 68.105469 221.945312 67.433594 219.914062 66.8125 217.863281 C 66.191406 215.8125 65.621094 213.75 65.097656 211.671875 C 64.578125 209.59375 64.109375 207.507812 63.691406 205.40625 C 63.273438 203.304688 62.90625 201.195312 62.59375 199.078125 C 62.28125 196.957031 62.015625 194.832031 61.808594 192.703125 C 61.597656 190.570312 61.441406 188.433594 61.335938 186.296875 C 61.230469 184.15625 61.175781 182.015625 61.175781 179.875 C 61.175781 177.734375 61.230469 175.59375 61.335938 173.453125 C 61.441406 171.316406 61.597656 169.179688 61.808594 167.046875 C 62.015625 164.917969 62.28125 162.792969 62.59375 160.671875 C 62.90625 158.554688 63.273438 156.445312 63.691406 154.34375 C 64.109375 152.246094 64.578125 150.15625 65.097656 148.078125 C 65.621094 146 66.191406 143.9375 66.8125 141.886719 C 67.433594 139.839844 68.105469 137.804688 68.828125 135.789062 C 69.550781 133.773438 70.320312 131.773438 71.140625 129.796875 C 71.960938 127.816406 72.828125 125.859375 73.742188 123.925781 C 74.660156 121.988281 75.621094 120.074219 76.632812 118.1875 C 77.640625 116.296875 78.695312 114.433594 79.796875 112.597656 C 80.898438 110.761719 82.042969 108.953125 83.234375 107.171875 C 84.421875 105.390625 85.65625 103.640625 86.933594 101.917969 C 88.207031 100.199219 89.527344 98.511719 90.882812 96.855469 C 92.242188 95.199219 93.640625 93.578125 95.082031 91.992188 C 96.519531 90.40625 97.996094 88.855469 99.511719 87.339844 C 101.023438 85.828125 102.574219 84.351562 104.164062 82.910156 C 105.75 81.472656 107.371094 80.074219 109.027344 78.714844 C 110.683594 77.359375 112.371094 76.039062 114.089844 74.765625 C 115.8125 73.488281 117.5625 72.257812 119.34375 71.066406 C 121.125 69.875 122.933594 68.730469 124.769531 67.628906 C 126.605469 66.527344 128.46875 65.472656 130.359375 64.464844 C 132.246094 63.453125 134.160156 62.492188 136.097656 61.574219 C 138.03125 60.660156 139.988281 59.792969 141.96875 58.972656 C 143.949219 58.152344 145.945312 57.382812 147.960938 56.660156 C 149.980469 55.941406 152.011719 55.269531 154.0625 54.648438 C 156.109375 54.023438 158.175781 53.453125 160.253906 52.933594 C 162.332031 52.414062 164.417969 51.945312 166.519531 51.527344 C 168.621094 51.109375 170.730469 50.742188 172.847656 50.429688 C 174.96875 50.113281 177.09375 49.851562 179.226562 49.640625 C 181.355469 49.433594 183.492188 49.273438 185.632812 49.167969 C 187.769531 49.0625 189.910156 49.011719 192.050781 49.011719 C 194.195312 49.011719 196.335938 49.0625 198.472656 49.167969 C 200.613281 49.273438 202.75 49.433594 204.878906 49.640625 C 207.011719 49.851562 209.136719 50.113281 211.257812 50.429688 C 213.375 50.742188 215.484375 51.109375 217.585938 51.527344 C 219.6875 51.945312 221.773438 52.414062 223.851562 52.933594 C 225.929688 53.453125 227.996094 54.023438 230.042969 54.648438 C 232.09375 55.269531 234.125 55.941406 236.144531 56.660156 C 238.160156 57.382812 240.15625 58.152344 242.136719 58.972656 C 244.117188 59.792969 246.074219 60.660156 248.007812 61.574219 C 249.945312 62.492188 251.859375 63.453125 253.746094 64.464844 C 255.636719 65.472656 257.5 66.527344 259.335938 67.628906 C 261.171875 68.730469 262.980469 69.875 264.761719 71.066406 C 266.542969 72.257812 268.292969 73.488281 270.015625 74.765625 C 271.734375 76.039062 273.421875 77.359375 275.078125 78.714844 C 276.734375 80.074219 278.355469 81.472656 279.941406 82.910156 C 281.53125 84.351562 283.082031 85.828125 284.59375 87.339844 C 286.109375 88.855469 287.585938 90.40625 289.023438 91.992188 C 290.464844 93.578125 291.863281 95.199219 293.222656 96.855469 C 294.578125 98.511719 295.898438 100.199219 297.171875 101.917969 C 298.449219 103.640625 299.683594 105.390625 300.871094 107.171875 C 302.0625 108.953125 303.207031 110.761719 304.308594 112.597656 C 305.410156 114.433594 306.464844 116.296875 307.472656 118.1875 C 308.484375 120.074219 309.445312 121.988281 310.363281 123.925781 C 311.277344 125.859375 312.144531 127.816406 312.964844 129.796875 C 313.785156 131.773438 314.554688 133.773438 315.277344 135.789062 C 316 137.804688 316.671875 139.839844 317.292969 141.886719 C 317.914062 143.9375 318.484375 146 319.007812 148.078125 C 319.527344 150.15625 319.996094 152.246094 320.414062 154.34375 C 320.832031 156.445312 321.199219 158.554688 321.511719 160.671875 C 321.824219 162.792969 322.089844 164.917969 322.296875 167.046875 C 322.507812 169.179688 322.664062 171.316406 322.769531 173.453125 C 322.875 175.59375 322.929688 177.734375 322.929688 179.875 Z M 322.929688 179.875 " fill-opacity="1" fill-rule="nonzero"/></g><path fill="#c46019" d="M 301.71875 180.484375 C 301.71875 182.265625 301.675781 184.046875 301.585938 185.824219 C 301.5 187.601562 301.371094 189.378906 301.195312 191.148438 C 301.019531 192.921875 300.800781 194.6875 300.542969 196.449219 C 300.28125 198.210938 299.976562 199.964844 299.628906 201.710938 C 299.28125 203.457031 298.890625 205.195312 298.457031 206.921875 C 298.023438 208.648438 297.550781 210.367188 297.035156 212.070312 C 296.515625 213.773438 295.957031 215.464844 295.359375 217.140625 C 294.757812 218.816406 294.117188 220.476562 293.4375 222.121094 C 292.753906 223.769531 292.03125 225.394531 291.273438 227.003906 C 290.511719 228.613281 289.710938 230.203125 288.871094 231.773438 C 288.03125 233.34375 287.152344 234.894531 286.238281 236.421875 C 285.324219 237.949219 284.371094 239.453125 283.378906 240.933594 C 282.390625 242.414062 281.367188 243.871094 280.304688 245.300781 C 279.246094 246.730469 278.148438 248.132812 277.019531 249.507812 C 275.890625 250.886719 274.726562 252.234375 273.53125 253.554688 C 272.335938 254.871094 271.105469 256.160156 269.847656 257.421875 C 268.589844 258.679688 267.300781 259.90625 265.980469 261.101562 C 264.660156 262.300781 263.3125 263.460938 261.9375 264.589844 C 260.558594 265.722656 259.15625 266.816406 257.726562 267.878906 C 256.296875 268.9375 254.839844 269.964844 253.359375 270.953125 C 251.878906 271.941406 250.375 272.894531 248.847656 273.808594 C 247.320312 274.726562 245.769531 275.601562 244.199219 276.441406 C 242.628906 277.28125 241.039062 278.082031 239.429688 278.84375 C 237.820312 279.605469 236.191406 280.324219 234.546875 281.007812 C 232.902344 281.6875 231.238281 282.328125 229.5625 282.929688 C 227.886719 283.527344 226.195312 284.085938 224.492188 284.605469 C 222.789062 285.121094 221.074219 285.59375 219.34375 286.027344 C 217.617188 286.460938 215.878906 286.851562 214.132812 287.199219 C 212.386719 287.546875 210.632812 287.851562 208.871094 288.109375 C 207.109375 288.371094 205.34375 288.589844 203.570312 288.765625 C 201.796875 288.941406 200.023438 289.070312 198.246094 289.15625 C 196.464844 289.246094 194.6875 289.289062 192.90625 289.289062 C 191.125 289.289062 189.34375 289.246094 187.566406 289.15625 C 185.789062 289.070312 184.011719 288.941406 182.238281 288.765625 C 180.46875 288.589844 178.699219 288.371094 176.9375 288.109375 C 175.175781 287.851562 173.421875 287.546875 171.675781 287.199219 C 169.929688 286.851562 168.191406 286.460938 166.464844 286.027344 C 164.738281 285.59375 163.023438 285.121094 161.320312 284.605469 C 159.613281 284.085938 157.925781 283.527344 156.246094 282.929688 C 154.570312 282.328125 152.910156 281.6875 151.265625 281.007812 C 149.617188 280.324219 147.992188 279.605469 146.382812 278.84375 C 144.773438 278.082031 143.179688 277.28125 141.609375 276.441406 C 140.039062 275.601562 138.492188 274.726562 136.964844 273.808594 C 135.4375 272.894531 133.933594 271.941406 132.453125 270.953125 C 130.972656 269.964844 129.515625 268.9375 128.085938 267.878906 C 126.65625 266.816406 125.25 265.722656 123.875 264.589844 C 122.5 263.460938 121.148438 262.300781 119.832031 261.101562 C 118.511719 259.90625 117.222656 258.679688 115.960938 257.421875 C 114.703125 256.160156 113.476562 254.871094 112.28125 253.554688 C 111.082031 252.234375 109.921875 250.886719 108.792969 249.507812 C 107.660156 248.132812 106.566406 246.730469 105.503906 245.300781 C 104.445312 243.871094 103.417969 242.414062 102.429688 240.933594 C 101.441406 239.453125 100.488281 237.949219 99.574219 236.421875 C 98.65625 234.894531 97.78125 233.34375 96.941406 231.773438 C 96.101562 230.203125 95.300781 228.613281 94.539062 227.003906 C 93.777344 225.394531 93.054688 223.769531 92.375 222.121094 C 91.691406 220.476562 91.050781 218.816406 90.453125 217.140625 C 89.851562 215.464844 89.292969 213.773438 88.777344 212.070312 C 88.261719 210.367188 87.785156 208.648438 87.351562 206.921875 C 86.921875 205.195312 86.53125 203.457031 86.183594 201.710938 C 85.835938 199.964844 85.53125 198.210938 85.269531 196.449219 C 85.007812 194.6875 84.789062 192.921875 84.617188 191.148438 C 84.441406 189.378906 84.308594 187.601562 84.222656 185.824219 C 84.136719 184.046875 84.089844 182.265625 84.089844 180.484375 C 84.089844 178.703125 84.136719 176.925781 84.222656 175.148438 C 84.308594 173.367188 84.441406 171.59375 84.617188 169.820312 C 84.789062 168.046875 85.007812 166.28125 85.269531 164.519531 C 85.53125 162.757812 85.835938 161.003906 86.183594 159.257812 C 86.53125 157.511719 86.921875 155.777344 87.351562 154.046875 C 87.785156 152.320312 88.261719 150.605469 88.777344 148.902344 C 89.292969 147.199219 89.851562 145.507812 90.453125 143.832031 C 91.050781 142.152344 91.691406 140.492188 92.375 138.847656 C 93.054688 137.203125 93.777344 135.574219 94.539062 133.964844 C 95.300781 132.355469 96.101562 130.765625 96.941406 129.195312 C 97.78125 127.625 98.65625 126.078125 99.574219 124.550781 C 100.488281 123.023438 101.441406 121.519531 102.429688 120.039062 C 103.417969 118.554688 104.445312 117.101562 105.503906 115.671875 C 106.566406 114.242188 107.660156 112.835938 108.792969 111.460938 C 109.921875 110.085938 111.082031 108.738281 112.28125 107.417969 C 113.476562 106.097656 114.703125 104.808594 115.960938 103.550781 C 117.222656 102.289062 118.511719 101.0625 119.832031 99.867188 C 121.148438 98.671875 122.5 97.507812 123.875 96.378906 C 125.25 95.25 126.65625 94.152344 128.085938 93.09375 C 129.515625 92.03125 130.972656 91.007812 132.453125 90.019531 C 133.933594 89.027344 135.4375 88.078125 136.964844 87.160156 C 138.492188 86.246094 140.039062 85.367188 141.609375 84.527344 C 143.179688 83.691406 144.773438 82.890625 146.382812 82.128906 C 147.992188 81.367188 149.617188 80.644531 151.265625 79.964844 C 152.910156 79.28125 154.570312 78.640625 156.246094 78.042969 C 157.925781 77.441406 159.613281 76.882812 161.320312 76.367188 C 163.023438 75.851562 164.738281 75.375 166.464844 74.941406 C 168.191406 74.507812 169.929688 74.121094 171.675781 73.773438 C 173.421875 73.425781 175.175781 73.121094 176.9375 72.859375 C 178.699219 72.597656 180.46875 72.378906 182.238281 72.207031 C 184.011719 72.03125 185.789062 71.898438 187.566406 71.8125 C 189.34375 71.726562 191.125 71.679688 192.90625 71.679688 C 194.6875 71.679688 196.464844 71.726562 198.246094 71.8125 C 200.023438 71.898438 201.796875 72.03125 203.570312 72.207031 C 205.34375 72.378906 207.109375 72.597656 208.871094 72.859375 C 210.632812 73.121094 212.386719 73.425781 214.132812 73.773438 C 215.878906 74.121094 217.617188 74.507812 219.34375 74.941406 C 221.074219 75.375 222.789062 75.851562 224.492188 76.367188 C 226.195312 76.882812 227.886719 77.441406 229.5625 78.042969 C 231.238281 78.640625 232.902344 79.28125 234.546875 79.964844 C 236.191406 80.644531 237.820312 81.367188 239.429688 82.128906 C 241.039062 82.890625 242.628906 83.691406 244.199219 84.527344 C 245.769531 85.367188 247.320312 86.246094 248.847656 87.160156 C 250.375 88.078125 251.878906 89.027344 253.359375 90.019531 C 254.839844 91.007812 256.296875 92.03125 257.726562 93.09375 C 259.15625 94.152344 260.558594 95.25 261.9375 96.378906 C 263.3125 97.507812 264.660156 98.671875 265.980469 99.867188 C 267.300781 101.0625 268.589844 102.289062 269.847656 103.550781 C 271.105469 104.808594 272.335938 106.097656 273.53125 107.417969 C 274.726562 108.738281 275.890625 110.085938 277.019531 111.460938 C 278.148438 112.835938 279.246094 114.242188 280.304688 115.671875 C 281.367188 117.101562 282.390625 118.554688 283.378906 120.039062 C 284.371094 121.519531 285.320312 123.023438 286.238281 124.550781 C 287.152344 126.078125 288.03125 127.625 288.871094 129.195312 C 289.710938 130.765625 290.511719 132.355469 291.273438 133.964844 C 292.03125 135.574219 292.753906 137.203125 293.4375 138.847656 C 294.117188 140.492188 294.757812 142.152344 295.359375 143.832031 C 295.957031 145.507812 296.515625 147.199219 297.035156 148.902344 C 297.550781 150.605469 298.023438 152.320312 298.457031 154.046875 C 298.890625 155.777344 299.28125 157.511719 299.628906 159.257812 C 299.976562 161.003906 300.28125 162.757812 300.542969 164.519531 C 300.800781 166.28125 301.019531 168.046875 301.195312 169.820312 C 301.371094 171.59375 301.5 173.367188 301.585938 175.148438 C 301.675781 176.925781 301.71875 178.703125 301.71875 180.484375 Z M 301.71875 180.484375 " fill-opacity="1" fill-rule="nonzero"/><path fill="#ffffff" d="M 301.71875 174.746094 C 301.71875 176.527344 301.675781 178.304688 301.585938 180.082031 C 301.5 181.863281 301.371094 183.636719 301.195312 185.410156 C 301.019531 187.179688 300.800781 188.949219 300.542969 190.710938 C 300.28125 192.472656 299.976562 194.226562 299.628906 195.972656 C 299.28125 197.71875 298.890625 199.453125 298.457031 201.183594 C 298.023438 202.910156 297.550781 204.625 297.035156 206.328125 C 296.515625 208.03125 295.957031 209.722656 295.359375 211.398438 C 294.757812 213.078125 294.117188 214.738281 293.4375 216.382812 C 292.753906 218.027344 292.03125 219.65625 291.273438 221.265625 C 290.511719 222.875 289.710938 224.464844 288.871094 226.035156 C 288.03125 227.605469 287.152344 229.152344 286.238281 230.679688 C 285.324219 232.207031 284.371094 233.710938 283.378906 235.191406 C 282.390625 236.671875 281.367188 238.128906 280.304688 239.558594 C 279.246094 240.988281 278.148438 242.394531 277.019531 243.769531 C 275.890625 245.144531 274.726562 246.492188 273.53125 247.8125 C 272.335938 249.132812 271.105469 250.421875 269.847656 251.679688 C 268.589844 252.941406 267.300781 254.167969 265.980469 255.363281 C 264.660156 256.558594 263.3125 257.722656 261.9375 258.851562 C 260.558594 259.980469 259.15625 261.074219 257.726562 262.136719 C 256.296875 263.199219 254.839844 264.222656 253.359375 265.210938 C 251.878906 266.199219 250.375 267.152344 248.847656 268.070312 C 247.320312 268.984375 245.769531 269.863281 244.199219 270.699219 C 242.628906 271.539062 241.039062 272.339844 239.429688 273.101562 C 237.820312 273.863281 236.191406 274.585938 234.546875 275.265625 C 232.902344 275.949219 231.238281 276.589844 229.5625 277.1875 C 227.886719 277.789062 226.195312 278.347656 224.492188 278.863281 C 222.789062 279.378906 221.074219 279.855469 219.34375 280.289062 C 217.617188 280.71875 215.878906 281.109375 214.132812 281.457031 C 212.386719 281.804688 210.632812 282.109375 208.871094 282.371094 C 207.109375 282.632812 205.34375 282.851562 203.570312 283.023438 C 201.796875 283.199219 200.023438 283.332031 198.246094 283.417969 C 196.464844 283.503906 194.6875 283.546875 192.90625 283.546875 C 191.125 283.546875 189.34375 283.503906 187.566406 283.417969 C 185.789062 283.332031 184.011719 283.199219 182.238281 283.023438 C 180.46875 282.851562 178.699219 282.632812 176.9375 282.371094 C 175.175781 282.109375 173.421875 281.804688 171.675781 281.457031 C 169.929688 281.109375 168.191406 280.71875 166.464844 280.289062 C 164.738281 279.855469 163.023438 279.378906 161.320312 278.863281 C 159.613281 278.347656 157.925781 277.789062 156.246094 277.1875 C 154.570312 276.589844 152.910156 275.949219 151.265625 275.265625 C 149.617188 274.585938 147.992188 273.863281 146.382812 273.101562 C 144.773438 272.339844 143.179688 271.539062 141.609375 270.699219 C 140.039062 269.863281 138.492188 268.984375 136.964844 268.070312 C 135.4375 267.152344 133.933594 266.199219 132.453125 265.210938 C 130.972656 264.222656 129.515625 263.199219 128.085938 262.136719 C 126.65625 261.074219 125.25 259.980469 123.875 258.851562 C 122.5 257.722656 121.148438 256.558594 119.832031 255.363281 C 118.511719 254.167969 117.222656 252.941406 115.960938 251.679688 C 114.703125 250.421875 113.476562 249.132812 112.28125 247.8125 C 111.082031 246.492188 109.921875 245.144531 108.792969 243.769531 C 107.660156 242.394531 106.566406 240.988281 105.503906 239.558594 C 104.445312 238.128906 103.417969 236.671875 102.429688 235.191406 C 101.441406 233.710938 100.488281 232.207031 99.574219 230.679688 C 98.65625 229.152344 97.78125 227.605469 96.941406 226.035156 C 96.101562 224.464844 95.300781 222.875 94.539062 221.265625 C 93.777344 219.65625 93.054688 218.027344 92.375 216.382812 C 91.691406 214.738281 91.050781 213.078125 90.453125 211.398438 C 89.851562 209.722656 89.292969 208.03125 88.777344 206.328125 C 88.261719 204.625 87.785156 202.910156 87.351562 201.183594 C 86.921875 199.453125 86.53125 197.71875 86.183594 195.972656 C 85.835938 194.226562 85.53125 192.472656 85.269531 190.710938 C 85.007812 188.949219 84.789062 187.179688 84.617188 185.410156 C 84.441406 183.636719 84.308594 181.863281 84.222656 180.082031 C 84.136719 178.304688 84.089844 176.527344 84.089844 174.746094 C 84.089844 172.964844 84.136719 171.183594 84.222656 169.40625 C 84.308594 167.628906 84.441406 165.851562 84.617188 164.082031 C 84.789062 162.308594 85.007812 160.542969 85.269531 158.78125 C 85.53125 157.019531 85.835938 155.265625 86.183594 153.519531 C 86.53125 151.773438 86.921875 150.035156 87.351562 148.308594 C 87.785156 146.582031 88.261719 144.863281 88.777344 143.160156 C 89.292969 141.457031 89.851562 139.765625 90.453125 138.089844 C 91.050781 136.414062 91.691406 134.753906 92.375 133.109375 C 93.054688 131.460938 93.777344 129.835938 94.539062 128.226562 C 95.300781 126.617188 96.101562 125.027344 96.941406 123.457031 C 97.78125 121.886719 98.65625 120.335938 99.574219 118.808594 C 100.488281 117.28125 101.441406 115.777344 102.429688 114.296875 C 103.417969 112.816406 104.445312 111.359375 105.503906 109.929688 C 106.566406 108.5 107.660156 107.097656 108.792969 105.71875 C 109.921875 104.34375 111.082031 102.996094 112.28125 101.675781 C 113.476562 100.359375 114.703125 99.066406 115.960938 97.808594 C 117.222656 96.550781 118.511719 95.324219 119.832031 94.125 C 121.148438 92.929688 122.5 91.769531 123.875 90.636719 C 125.25 89.507812 126.65625 88.414062 128.085938 87.351562 C 129.515625 86.292969 130.972656 85.265625 132.453125 84.277344 C 133.933594 83.289062 135.4375 82.335938 136.964844 81.421875 C 138.492188 80.503906 140.039062 79.628906 141.609375 78.789062 C 143.179688 77.949219 144.773438 77.148438 146.382812 76.386719 C 147.992188 75.625 149.617188 74.90625 151.265625 74.222656 C 152.910156 73.542969 154.570312 72.902344 156.246094 72.300781 C 157.925781 71.703125 159.613281 71.144531 161.320312 70.625 C 163.023438 70.109375 164.738281 69.632812 166.464844 69.203125 C 168.191406 68.769531 169.929688 68.378906 171.675781 68.03125 C 173.421875 67.683594 175.175781 67.378906 176.9375 67.117188 C 178.699219 66.859375 180.46875 66.640625 182.238281 66.464844 C 184.011719 66.289062 185.789062 66.160156 187.566406 66.074219 C 189.34375 65.984375 191.125 65.941406 192.90625 65.941406 C 194.6875 65.941406 196.464844 65.984375 198.246094 66.074219 C 200.023438 66.160156 201.796875 66.289062 203.570312 66.464844 C 205.34375 66.640625 207.109375 66.859375 208.871094 67.117188 C 210.632812 67.378906 212.386719 67.683594 214.132812 68.03125 C 215.878906 68.378906 217.617188 68.769531 219.34375 69.203125 C 221.074219 69.632812 222.789062 70.109375 224.492188 70.625 C 226.195312 71.144531 227.886719 71.703125 229.5625 72.300781 C 231.238281 72.902344 232.902344 73.542969 234.546875 74.222656 C 236.191406 74.90625 237.820312 75.625 239.429688 76.386719 C 241.039062 77.148438 242.628906 77.949219 244.199219 78.789062 C 245.769531 79.628906 247.320312 80.503906 248.847656 81.421875 C 250.375 82.335938 251.878906 83.289062 253.359375 84.277344 C 254.839844 85.265625 256.296875 86.292969 257.726562 87.351562 C 259.15625 88.414062 260.558594 89.507812 261.9375 90.636719 C 263.3125 91.769531 264.660156 92.929688 265.980469 94.125 C 267.300781 95.324219 268.589844 96.550781 269.847656 97.808594 C 271.105469 99.066406 272.335938 100.359375 273.53125 101.675781 C 274.726562 102.996094 275.890625 104.34375 277.019531 105.71875 C 278.148438 107.097656 279.246094 108.5 280.304688 109.929688 C 281.367188 111.359375 282.390625 112.816406 283.378906 114.296875 C 284.371094 115.777344 285.320312 117.28125 286.238281 118.808594 C 287.152344 120.335938 288.03125 121.886719 288.871094 123.457031 C 289.710938 125.027344 290.511719 126.617188 291.273438 128.226562 C 292.03125 129.835938 292.753906 131.460938 293.4375 133.109375 C 294.117188 134.753906 294.757812 136.414062 295.359375 138.089844 C 295.957031 139.765625 296.515625 141.457031 297.035156 143.160156 C 297.550781 144.863281 298.023438 146.582031 298.457031 148.308594 C 298.890625 150.035156 299.28125 151.773438 299.628906 153.519531 C 299.976562 155.265625 300.28125 157.019531 300.542969 158.78125 C 300.800781 160.542969 301.019531 162.308594 301.195312 164.082031 C 301.371094 165.851562 301.5 167.628906 301.585938 169.40625 C 301.675781 171.183594 301.71875 172.964844 301.71875 174.746094 Z M 301.71875 174.746094 " fill-opacity="1" fill-rule="nonzero"/><path fill="#ffcd59" d="M 301.691406 177.015625 C 300.480469 236.058594 252.242188 283.546875 192.90625 283.546875 C 133.570312 283.546875 85.332031 236.058594 84.121094 177.015625 C 85.332031 117.976562 133.570312 70.484375 192.90625 70.484375 C 252.242188 70.484375 300.480469 117.972656 301.691406 177.015625 Z M 301.691406 177.015625 " fill-opacity="1" fill-rule="evenodd"/><path fill="#ffffff" d="M 125.734375 101.339844 C 135.589844 94.457031 146.683594 93.328125 150.511719 98.808594 C 154.34375 104.292969 149.457031 114.316406 139.601562 121.199219 C 129.75 128.078125 118.65625 129.210938 114.828125 123.726562 C 110.996094 118.242188 115.882812 108.21875 125.734375 101.339844 Z M 109.945312 130.769531 C 114.859375 130.769531 118.84375 134.75 118.84375 139.664062 C 118.84375 144.578125 114.859375 148.5625 109.945312 148.5625 C 105.03125 148.5625 101.046875 144.578125 101.046875 139.664062 C 101.046875 134.75 105.03125 130.769531 109.945312 130.769531 Z M 109.945312 130.769531 " fill-opacity="1" fill-rule="evenodd"/><path fill="#c46019" d="M 172.648438 124.75 L 172.695312 124.75 L 173.105469 124.753906 L 173.125 124.753906 L 173.550781 124.769531 L 173.558594 124.773438 C 176.269531 124.90625 178.988281 125.664062 181.492188 127.105469 L 246.667969 164.734375 C 249.320312 166.265625 251.425781 168.390625 252.917969 170.851562 L 253.109375 171.171875 L 253.148438 171.242188 L 253.316406 171.542969 C 254.667969 173.992188 255.375 176.636719 255.488281 179.273438 L 255.503906 179.609375 L 255.503906 179.699219 L 255.507812 180.035156 L 255.507812 180.128906 L 255.503906 180.464844 L 255.503906 180.554688 L 255.488281 180.890625 C 255.375 183.527344 254.671875 186.171875 253.316406 188.621094 L 253.148438 188.921875 L 253.109375 188.992188 L 252.917969 189.316406 C 251.425781 191.769531 249.320312 193.898438 246.667969 195.429688 L 181.492188 233.058594 C 178.988281 234.503906 176.269531 235.257812 173.558594 235.390625 L 173.550781 235.394531 L 173.125 235.410156 L 173.105469 235.410156 L 172.695312 235.414062 L 172.648438 235.414062 L 172.269531 235.410156 C 170.523438 235.371094 168.839844 235.082031 167.253906 234.566406 L 167.214844 234.554688 L 166.90625 234.453125 L 166.574219 234.335938 C 162.792969 232.960938 159.457031 230.308594 157.300781 226.574219 C 155.855469 224.070312 155.097656 221.351562 154.964844 218.636719 L 154.964844 218.617188 L 154.945312 218.207031 L 154.945312 218.164062 L 154.941406 217.777344 L 154.941406 142.386719 L 154.945312 142 L 154.945312 141.957031 L 154.964844 141.546875 L 154.964844 141.527344 C 155.09375 138.8125 155.855469 136.09375 157.300781 133.589844 C 159.457031 129.855469 162.792969 127.203125 166.574219 125.828125 L 166.90625 125.710938 L 167.214844 125.609375 L 167.253906 125.597656 C 168.84375 125.085938 170.523438 124.792969 172.269531 124.753906 Z M 172.648438 124.75 " fill-opacity="1" fill-rule="evenodd"/><path fill="#ff8228" d="M 254.613281 185.660156 C 254.28125 186.667969 253.851562 187.660156 253.320312 188.621094 L 253.152344 188.921875 L 253.109375 188.992188 L 252.917969 189.316406 C 251.425781 191.773438 249.320312 193.898438 246.667969 195.429688 L 181.492188 233.058594 C 178.992188 234.503906 176.269531 235.257812 173.558594 235.390625 L 173.554688 235.394531 L 173.125 235.410156 L 173.105469 235.410156 L 172.695312 235.414062 L 172.648438 235.414062 L 172.269531 235.410156 C 170.527344 235.371094 168.84375 235.082031 167.253906 234.566406 L 167.21875 234.554688 L 166.910156 234.453125 L 166.839844 234.429688 L 166.578125 234.335938 C 162.796875 232.960938 159.460938 230.3125 157.304688 226.574219 L 157.300781 226.574219 C 155.855469 224.070312 155.097656 221.351562 154.964844 218.636719 L 154.964844 218.617188 L 154.949219 218.207031 L 154.945312 218.164062 L 154.945312 217.78125 L 154.941406 217.710938 L 154.941406 153.609375 L 154.945312 153.539062 L 154.945312 153.152344 L 154.949219 153.109375 L 154.964844 152.703125 L 154.964844 152.683594 C 155.097656 149.96875 155.855469 147.246094 157.300781 144.742188 L 157.304688 144.742188 C 159.457031 141.007812 162.796875 138.355469 166.578125 136.984375 L 166.839844 136.886719 L 166.910156 136.863281 L 167.21875 136.761719 L 167.253906 136.75 C 168.84375 136.238281 170.527344 135.945312 172.269531 135.90625 L 172.648438 135.902344 L 172.695312 135.902344 L 173.105469 135.90625 L 173.125 135.90625 L 173.554688 135.925781 L 173.558594 135.925781 C 176.269531 136.0625 178.988281 136.816406 181.492188 138.261719 L 246.667969 175.886719 C 249.320312 177.421875 251.429688 179.546875 252.917969 182.003906 L 253.109375 182.324219 L 253.152344 182.394531 L 253.320312 182.699219 C 253.847656 183.660156 254.28125 184.652344 254.613281 185.660156 Z M 254.613281 185.660156 " fill-opacity="1" fill-rule="evenodd"/></svg>