<svg xmlns="http://www.w3.org/2000/svg" xmlns:xlink="http://www.w3.org/1999/xlink" width="500" zoomAndPan="magnify" viewBox="0 0 375 374.999991" height="500" preserveAspectRatio="xMidYMid meet" version="1.0"><defs><clipPath id="ebb93ab598"><path d="M 55.628906 60 L 317.378906 60 L 317.378906 322.226562 L 55.628906 322.226562 Z M 55.628906 60 " clip-rule="nonzero"/></clipPath><clipPath id="fd61f8e97d"><path d="M 55.628906 54.476562 L 317.378906 54.476562 L 317.378906 317 L 55.628906 317 Z M 55.628906 54.476562 " clip-rule="nonzero"/></clipPath></defs><g clip-path="url(#ebb93ab598)"><path fill="#c46019" d="M 317.378906 191.335938 C 317.378906 193.476562 317.328125 195.617188 317.222656 197.753906 C 317.117188 199.894531 316.960938 202.03125 316.75 204.160156 C 316.539062 206.292969 316.277344 208.417969 315.964844 210.535156 C 315.648438 212.652344 315.285156 214.761719 314.867188 216.863281 C 314.449219 218.964844 313.980469 221.054688 313.457031 223.128906 C 312.9375 225.207031 312.367188 227.269531 311.746094 229.320312 C 311.125 231.371094 310.453125 233.402344 309.730469 235.417969 C 309.007812 237.4375 308.238281 239.433594 307.417969 241.410156 C 306.597656 243.390625 305.730469 245.347656 304.816406 247.285156 C 303.898438 249.21875 302.9375 251.132812 301.925781 253.019531 C 300.917969 254.910156 299.863281 256.773438 298.761719 258.609375 C 297.660156 260.445312 296.515625 262.253906 295.324219 264.035156 C 294.132812 265.816406 292.902344 267.566406 291.625 269.289062 C 290.347656 271.007812 289.03125 272.695312 287.671875 274.351562 C 286.316406 276.007812 284.914062 277.628906 283.476562 279.214844 C 282.039062 280.800781 280.5625 282.351562 279.046875 283.867188 C 277.535156 285.378906 275.984375 286.855469 274.394531 288.292969 C 272.808594 289.734375 271.1875 291.132812 269.53125 292.488281 C 267.875 293.847656 266.1875 295.164062 264.46875 296.441406 C 262.746094 297.71875 260.996094 298.949219 259.214844 300.140625 C 257.433594 301.328125 255.625 302.476562 253.789062 303.578125 C 251.953125 304.675781 250.089844 305.734375 248.199219 306.742188 C 246.308594 307.75 244.398438 308.714844 242.460938 309.628906 C 240.527344 310.546875 238.566406 311.414062 236.589844 312.234375 C 234.609375 313.050781 232.613281 313.824219 230.597656 314.542969 C 228.578125 315.265625 226.546875 315.9375 224.496094 316.558594 C 222.445312 317.179688 220.382812 317.75 218.304688 318.273438 C 216.226562 318.792969 214.136719 319.261719 212.039062 319.679688 C 209.9375 320.097656 207.828125 320.464844 205.707031 320.777344 C 203.589844 321.09375 201.464844 321.355469 199.332031 321.5625 C 197.203125 321.773438 195.066406 321.929688 192.925781 322.035156 C 190.789062 322.140625 188.648438 322.195312 186.503906 322.195312 C 184.363281 322.195312 182.222656 322.140625 180.082031 322.035156 C 177.945312 321.929688 175.808594 321.773438 173.675781 321.5625 C 171.546875 321.355469 169.421875 321.09375 167.300781 320.777344 C 165.183594 320.464844 163.074219 320.097656 160.972656 319.679688 C 158.871094 319.261719 156.78125 318.792969 154.707031 318.273438 C 152.628906 317.75 150.5625 317.179688 148.515625 316.558594 C 146.464844 315.9375 144.429688 315.265625 142.414062 314.542969 C 140.398438 313.824219 138.398438 313.050781 136.421875 312.234375 C 134.441406 311.414062 132.484375 310.546875 130.546875 309.628906 C 128.613281 308.714844 126.699219 307.75 124.8125 306.742188 C 122.921875 305.734375 121.058594 304.675781 119.222656 303.578125 C 117.382812 302.476562 115.574219 301.328125 113.792969 300.140625 C 112.015625 298.949219 110.261719 297.71875 108.542969 296.441406 C 106.824219 295.164062 105.132812 293.847656 103.480469 292.488281 C 101.824219 291.132812 100.203125 289.734375 98.613281 288.292969 C 97.027344 286.855469 95.476562 285.378906 93.960938 283.867188 C 92.449219 282.351562 90.972656 280.800781 89.53125 279.214844 C 88.09375 277.628906 86.695312 276.007812 85.335938 274.351562 C 83.976562 272.695312 82.660156 271.007812 81.386719 269.289062 C 80.109375 267.566406 78.875 265.816406 77.6875 264.035156 C 76.496094 262.253906 75.351562 260.445312 74.25 258.609375 C 73.148438 256.773438 72.09375 254.910156 71.082031 253.019531 C 70.074219 251.132812 69.109375 249.21875 68.195312 247.285156 C 67.28125 245.347656 66.410156 243.390625 65.59375 241.410156 C 64.773438 239.433594 64 237.4375 63.28125 235.417969 C 62.558594 233.402344 61.886719 231.371094 61.265625 229.320312 C 60.644531 227.269531 60.074219 225.207031 59.550781 223.128906 C 59.03125 221.054688 58.5625 218.964844 58.144531 216.863281 C 57.726562 214.761719 57.359375 212.652344 57.046875 210.535156 C 56.730469 208.417969 56.46875 206.292969 56.261719 204.160156 C 56.050781 202.03125 55.890625 199.894531 55.789062 197.753906 C 55.683594 195.617188 55.628906 193.476562 55.628906 191.335938 C 55.628906 189.191406 55.683594 187.050781 55.789062 184.914062 C 55.890625 182.773438 56.050781 180.640625 56.261719 178.507812 C 56.46875 176.375 56.730469 174.25 57.046875 172.132812 C 57.359375 170.015625 57.726562 167.90625 58.144531 165.804688 C 58.5625 163.703125 59.03125 161.613281 59.550781 159.539062 C 60.074219 157.460938 60.644531 155.398438 61.265625 153.347656 C 61.886719 151.296875 62.558594 149.265625 63.28125 147.25 C 64 145.230469 64.773438 143.234375 65.59375 141.257812 C 66.410156 139.277344 67.28125 137.320312 68.195312 135.382812 C 69.109375 133.449219 70.074219 131.535156 71.082031 129.648438 C 72.09375 127.757812 73.148438 125.894531 74.25 124.058594 C 75.351562 122.222656 76.496094 120.414062 77.6875 118.632812 C 78.875 116.851562 80.109375 115.101562 81.386719 113.382812 C 82.660156 111.660156 83.976562 109.972656 85.335938 108.316406 C 86.695312 106.660156 88.09375 105.039062 89.53125 103.453125 C 90.972656 101.867188 92.449219 100.316406 93.960938 98.800781 C 95.476562 97.289062 97.027344 95.8125 98.613281 94.375 C 100.203125 92.933594 101.824219 91.535156 103.480469 90.179688 C 105.132812 88.820312 106.824219 87.503906 108.542969 86.226562 C 110.261719 84.949219 112.015625 83.71875 113.792969 82.527344 C 115.574219 81.339844 117.382812 80.191406 119.222656 79.09375 C 121.058594 77.992188 122.921875 76.933594 124.8125 75.925781 C 126.699219 74.917969 128.613281 73.953125 130.546875 73.039062 C 132.484375 72.121094 134.441406 71.253906 136.421875 70.433594 C 138.398438 69.617188 140.398438 68.84375 142.414062 68.125 C 144.429688 67.402344 146.464844 66.730469 148.515625 66.109375 C 150.5625 65.488281 152.628906 64.917969 154.707031 64.394531 C 156.78125 63.875 158.871094 63.40625 160.972656 62.988281 C 163.074219 62.570312 165.183594 62.203125 167.300781 61.890625 C 169.421875 61.578125 171.546875 61.3125 173.675781 61.105469 C 175.808594 60.894531 177.945312 60.738281 180.082031 60.632812 C 182.222656 60.527344 184.363281 60.472656 186.503906 60.472656 C 188.648438 60.472656 190.789062 60.527344 192.925781 60.632812 C 195.066406 60.738281 197.203125 60.894531 199.332031 61.105469 C 201.464844 61.3125 203.589844 61.578125 205.707031 61.890625 C 207.828125 62.203125 209.9375 62.570312 212.039062 62.988281 C 214.136719 63.40625 216.226562 63.875 218.304688 64.394531 C 220.382812 64.917969 222.445312 65.488281 224.496094 66.109375 C 226.546875 66.730469 228.578125 67.402344 230.597656 68.125 C 232.613281 68.84375 234.609375 69.617188 236.589844 70.433594 C 238.566406 71.253906 240.527344 72.121094 242.460938 73.039062 C 244.398438 73.953125 246.3125 74.917969 248.199219 75.925781 C 250.089844 76.933594 251.953125 77.992188 253.789062 79.09375 C 255.625 80.191406 257.433594 81.339844 259.214844 82.527344 C 260.996094 83.71875 262.746094 84.949219 264.46875 86.226562 C 266.1875 87.503906 267.875 88.820312 269.53125 90.179688 C 271.1875 91.535156 272.808594 92.933594 274.394531 94.375 C 275.984375 95.8125 277.535156 97.289062 279.046875 98.800781 C 280.5625 100.316406 282.039062 101.867188 283.476562 103.453125 C 284.914062 105.039062 286.316406 106.660156 287.671875 108.316406 C 289.03125 109.972656 290.347656 111.660156 291.625 113.382812 C 292.902344 115.101562 294.132812 116.851562 295.324219 118.632812 C 296.515625 120.414062 297.660156 122.222656 298.761719 124.058594 C 299.863281 125.894531 300.917969 127.757812 301.925781 129.648438 C 302.9375 131.535156 303.898438 133.449219 304.816406 135.382812 C 305.730469 137.320312 306.597656 139.277344 307.417969 141.257812 C 308.238281 143.234375 309.007812 145.230469 309.730469 147.25 C 310.453125 149.265625 311.125 151.296875 311.746094 153.347656 C 312.367188 155.398438 312.9375 157.460938 313.457031 159.539062 C 313.980469 161.613281 314.449219 163.703125 314.867188 165.804688 C 315.285156 167.90625 315.648438 170.015625 315.964844 172.132812 C 316.277344 174.25 316.539062 176.375 316.75 178.507812 C 316.960938 180.640625 317.117188 182.773438 317.222656 184.914062 C 317.328125 187.050781 317.378906 189.191406 317.378906 191.335938 Z M 317.378906 191.335938 " fill-opacity="1" fill-rule="nonzero"/></g><g clip-path="url(#fd61f8e97d)"><path fill="#ff8228" d="M 317.378906 185.371094 C 317.378906 187.515625 317.328125 189.65625 317.222656 191.792969 C 317.117188 193.933594 316.960938 196.066406 316.75 198.199219 C 316.539062 200.332031 316.277344 202.453125 315.964844 204.574219 C 315.648438 206.691406 315.285156 208.800781 314.867188 210.902344 C 314.449219 213.003906 313.980469 215.089844 313.457031 217.167969 C 312.9375 219.246094 312.367188 221.308594 311.746094 223.359375 C 311.125 225.410156 310.453125 227.441406 309.730469 229.457031 C 309.007812 231.472656 308.238281 233.472656 307.417969 235.449219 C 306.597656 237.429688 305.730469 239.386719 304.816406 241.320312 C 303.898438 243.257812 302.9375 245.171875 301.925781 247.058594 C 300.917969 248.949219 299.863281 250.8125 298.761719 252.648438 C 297.660156 254.484375 296.515625 256.292969 295.324219 258.074219 C 294.132812 259.855469 292.902344 261.605469 291.625 263.324219 C 290.347656 265.046875 289.03125 266.734375 287.671875 268.390625 C 286.316406 270.042969 284.914062 271.664062 283.476562 273.253906 C 282.039062 274.839844 280.5625 276.390625 279.046875 277.902344 C 277.535156 279.417969 275.984375 280.894531 274.394531 282.332031 C 272.808594 283.769531 271.1875 285.167969 269.53125 286.527344 C 267.875 287.886719 266.1875 289.203125 264.46875 290.480469 C 262.746094 291.753906 260.996094 292.988281 259.214844 294.179688 C 257.433594 295.367188 255.625 296.511719 253.789062 297.613281 C 251.953125 298.714844 250.089844 299.769531 248.199219 300.78125 C 246.308594 301.789062 244.398438 302.753906 242.460938 303.667969 C 240.527344 304.582031 238.566406 305.453125 236.589844 306.269531 C 234.609375 307.089844 232.613281 307.859375 230.597656 308.582031 C 228.578125 309.304688 226.546875 309.976562 224.496094 310.597656 C 222.445312 311.21875 220.382812 311.789062 218.304688 312.308594 C 216.226562 312.832031 214.136719 313.300781 212.039062 313.71875 C 209.9375 314.136719 207.828125 314.5 205.707031 314.816406 C 203.589844 315.128906 201.464844 315.390625 199.332031 315.601562 C 197.203125 315.8125 195.066406 315.96875 192.925781 316.074219 C 190.789062 316.179688 188.648438 316.230469 186.503906 316.230469 C 184.363281 316.230469 182.222656 316.179688 180.082031 316.074219 C 177.945312 315.96875 175.808594 315.8125 173.675781 315.601562 C 171.546875 315.390625 169.421875 315.128906 167.300781 314.816406 C 165.183594 314.5 163.074219 314.136719 160.972656 313.71875 C 158.871094 313.300781 156.78125 312.832031 154.707031 312.308594 C 152.628906 311.789062 150.5625 311.21875 148.515625 310.597656 C 146.464844 309.976562 144.429688 309.304688 142.414062 308.582031 C 140.398438 307.859375 138.398438 307.089844 136.421875 306.269531 C 134.441406 305.453125 132.484375 304.582031 130.546875 303.667969 C 128.613281 302.753906 126.699219 301.789062 124.8125 300.78125 C 122.921875 299.769531 121.058594 298.714844 119.222656 297.613281 C 117.382812 296.511719 115.574219 295.367188 113.792969 294.179688 C 112.015625 292.988281 110.261719 291.753906 108.542969 290.480469 C 106.824219 289.203125 105.132812 287.886719 103.480469 286.527344 C 101.824219 285.167969 100.203125 283.769531 98.613281 282.332031 C 97.027344 280.894531 95.476562 279.417969 93.960938 277.902344 C 92.449219 276.390625 90.972656 274.839844 89.53125 273.253906 C 88.09375 271.664062 86.695312 270.042969 85.335938 268.390625 C 83.976562 266.734375 82.660156 265.046875 81.386719 263.324219 C 80.109375 261.605469 78.875 259.855469 77.6875 258.074219 C 76.496094 256.292969 75.351562 254.484375 74.25 252.648438 C 73.148438 250.8125 72.09375 248.949219 71.082031 247.058594 C 70.074219 245.171875 69.109375 243.257812 68.195312 241.320312 C 67.28125 239.386719 66.410156 237.429688 65.59375 235.449219 C 64.773438 233.472656 64 231.472656 63.28125 229.457031 C 62.558594 227.441406 61.886719 225.410156 61.265625 223.359375 C 60.644531 221.308594 60.074219 219.246094 59.550781 217.167969 C 59.03125 215.089844 58.5625 213.003906 58.144531 210.902344 C 57.726562 208.800781 57.359375 206.691406 57.046875 204.574219 C 56.730469 202.453125 56.46875 200.332031 56.261719 198.199219 C 56.050781 196.066406 55.890625 193.933594 55.789062 191.792969 C 55.683594 189.65625 55.628906 187.515625 55.628906 185.371094 C 55.628906 183.230469 55.683594 181.089844 55.789062 178.953125 C 55.890625 176.8125 56.050781 174.675781 56.261719 172.546875 C 56.46875 170.414062 56.730469 168.289062 57.046875 166.171875 C 57.359375 164.054688 57.726562 161.941406 58.144531 159.84375 C 58.5625 157.742188 59.03125 155.652344 59.550781 153.574219 C 60.074219 151.5 60.644531 149.433594 61.265625 147.386719 C 61.886719 145.335938 62.558594 143.304688 63.28125 141.285156 C 64 139.269531 64.773438 137.273438 65.59375 135.292969 C 66.410156 133.316406 67.28125 131.359375 68.195312 129.421875 C 69.109375 127.488281 70.074219 125.574219 71.082031 123.683594 C 72.09375 121.796875 73.148438 119.933594 74.25 118.097656 C 75.351562 116.261719 76.496094 114.453125 77.6875 112.671875 C 78.875 110.890625 80.109375 109.140625 81.386719 107.417969 C 82.660156 105.699219 83.976562 104.011719 85.335938 102.355469 C 86.695312 100.699219 88.09375 99.078125 89.53125 97.492188 C 90.972656 95.90625 92.449219 94.355469 93.960938 92.839844 C 95.476562 91.324219 97.027344 89.851562 98.613281 88.410156 C 100.203125 86.972656 101.824219 85.574219 103.480469 84.214844 C 105.132812 82.859375 106.824219 81.539062 108.542969 80.265625 C 110.261719 78.988281 112.015625 77.757812 113.792969 76.566406 C 115.574219 75.375 117.382812 74.230469 119.222656 73.128906 C 121.058594 72.027344 122.921875 70.972656 124.8125 69.964844 C 126.699219 68.953125 128.613281 67.992188 130.546875 67.078125 C 132.484375 66.160156 134.441406 65.292969 136.421875 64.472656 C 138.398438 63.652344 140.398438 62.882812 142.414062 62.160156 C 144.429688 61.441406 146.464844 60.769531 148.515625 60.148438 C 150.5625 59.527344 152.628906 58.953125 154.707031 58.433594 C 156.78125 57.914062 158.871094 57.445312 160.972656 57.027344 C 163.074219 56.609375 165.183594 56.242188 167.300781 55.929688 C 169.421875 55.613281 171.546875 55.351562 173.675781 55.144531 C 175.808594 54.933594 177.945312 54.773438 180.082031 54.671875 C 182.222656 54.566406 184.363281 54.511719 186.503906 54.511719 C 188.648438 54.511719 190.789062 54.566406 192.925781 54.671875 C 195.066406 54.773438 197.203125 54.933594 199.332031 55.144531 C 201.464844 55.351562 203.589844 55.613281 205.707031 55.929688 C 207.828125 56.242188 209.9375 56.609375 212.039062 57.027344 C 214.136719 57.445312 216.226562 57.914062 218.304688 58.433594 C 220.382812 58.953125 222.445312 59.527344 224.496094 60.148438 C 226.546875 60.769531 228.578125 61.441406 230.597656 62.160156 C 232.613281 62.882812 234.609375 63.652344 236.589844 64.472656 C 238.566406 65.292969 240.527344 66.160156 242.460938 67.078125 C 244.398438 67.992188 246.3125 68.953125 248.199219 69.964844 C 250.089844 70.972656 251.953125 72.027344 253.789062 73.128906 C 255.625 74.230469 257.433594 75.375 259.214844 76.566406 C 260.996094 77.757812 262.746094 78.988281 264.46875 80.265625 C 266.1875 81.539062 267.875 82.859375 269.53125 84.214844 C 271.1875 85.574219 272.808594 86.972656 274.394531 88.410156 C 275.984375 89.851562 277.535156 91.324219 279.046875 92.839844 C 280.5625 94.355469 282.039062 95.90625 283.476562 97.492188 C 284.914062 99.078125 286.316406 100.699219 287.671875 102.355469 C 289.03125 104.011719 290.347656 105.699219 291.625 107.417969 C 292.902344 109.140625 294.132812 110.890625 295.324219 112.671875 C 296.515625 114.453125 297.660156 116.261719 298.761719 118.097656 C 299.863281 119.933594 300.917969 121.796875 301.925781 123.683594 C 302.9375 125.574219 303.898438 127.488281 304.816406 129.421875 C 305.730469 131.359375 306.597656 133.316406 307.417969 135.292969 C 308.238281 137.273438 309.007812 139.269531 309.730469 141.285156 C 310.453125 143.304688 311.125 145.335938 311.746094 147.386719 C 312.367188 149.433594 312.9375 151.5 313.457031 153.574219 C 313.980469 155.652344 314.449219 157.742188 314.867188 159.84375 C 315.285156 161.941406 315.648438 164.054688 315.964844 166.171875 C 316.277344 168.289062 316.539062 170.414062 316.75 172.546875 C 316.960938 174.675781 317.117188 176.8125 317.222656 178.953125 C 317.328125 181.089844 317.378906 183.230469 317.378906 185.371094 Z M 317.378906 185.371094 " fill-opacity="1" fill-rule="nonzero"/></g><path fill="#c46019" d="M 296.171875 185.980469 C 296.171875 187.761719 296.128906 189.542969 296.039062 191.320312 C 295.953125 193.097656 295.820312 194.875 295.648438 196.648438 C 295.472656 198.417969 295.253906 200.183594 294.992188 201.945312 C 294.730469 203.707031 294.429688 205.460938 294.082031 207.207031 C 293.734375 208.953125 293.34375 210.691406 292.910156 212.417969 C 292.476562 214.144531 292.003906 215.863281 291.484375 217.566406 C 290.96875 219.269531 290.410156 220.960938 289.8125 222.636719 C 289.210938 224.3125 288.570312 225.972656 287.886719 227.617188 C 287.207031 229.261719 286.484375 230.890625 285.722656 232.5 C 284.960938 234.109375 284.164062 235.699219 283.324219 237.269531 C 282.484375 238.839844 281.605469 240.390625 280.691406 241.917969 C 279.773438 243.445312 278.824219 244.949219 277.832031 246.429688 C 276.84375 247.910156 275.820312 249.363281 274.757812 250.792969 C 273.695312 252.226562 272.601562 253.628906 271.472656 255.003906 C 270.34375 256.382812 269.179688 257.730469 267.984375 259.046875 C 266.789062 260.367188 265.558594 261.65625 264.300781 262.914062 C 263.042969 264.175781 261.753906 265.402344 260.433594 266.597656 C 259.113281 267.792969 257.765625 268.957031 256.386719 270.085938 C 255.011719 271.214844 253.609375 272.3125 252.179688 273.371094 C 250.746094 274.433594 249.292969 275.457031 247.8125 276.445312 C 246.332031 277.4375 244.828125 278.386719 243.300781 279.304688 C 241.773438 280.21875 240.222656 281.097656 238.652344 281.9375 C 237.082031 282.773438 235.492188 283.574219 233.882812 284.335938 C 232.273438 285.097656 230.644531 285.820312 229 286.5 C 227.355469 287.183594 225.691406 287.824219 224.015625 288.421875 C 222.339844 289.023438 220.648438 289.582031 218.945312 290.097656 C 217.242188 290.613281 215.523438 291.089844 213.796875 291.523438 C 212.070312 291.953125 210.332031 292.34375 208.585938 292.691406 C 206.839844 293.039062 205.085938 293.34375 203.324219 293.605469 C 201.5625 293.867188 199.796875 294.085938 198.023438 294.257812 C 196.25 294.433594 194.476562 294.566406 192.695312 294.652344 C 190.917969 294.738281 189.136719 294.78125 187.359375 294.78125 C 185.578125 294.78125 183.796875 294.738281 182.019531 294.652344 C 180.238281 294.566406 178.464844 294.433594 176.691406 294.257812 C 174.921875 294.085938 173.152344 293.867188 171.390625 293.605469 C 169.628906 293.34375 167.875 293.039062 166.128906 292.691406 C 164.382812 292.34375 162.644531 291.953125 160.917969 291.523438 C 159.191406 291.089844 157.476562 290.613281 155.769531 290.097656 C 154.066406 289.582031 152.375 289.023438 150.699219 288.421875 C 149.023438 287.824219 147.363281 287.183594 145.714844 286.5 C 144.070312 285.820312 142.445312 285.097656 140.835938 284.335938 C 139.222656 283.574219 137.632812 282.773438 136.0625 281.9375 C 134.492188 281.097656 132.945312 280.21875 131.417969 279.304688 C 129.890625 278.386719 128.386719 277.4375 126.902344 276.445312 C 125.421875 275.457031 123.96875 274.433594 122.539062 273.371094 C 121.105469 272.3125 119.703125 271.214844 118.328125 270.085938 C 116.949219 268.957031 115.601562 267.792969 114.28125 266.597656 C 112.964844 265.402344 111.675781 264.175781 110.414062 262.914062 C 109.15625 261.65625 107.929688 260.367188 106.730469 259.046875 C 105.535156 257.730469 104.375 256.382812 103.242188 255.003906 C 102.113281 253.628906 101.019531 252.226562 99.957031 250.792969 C 98.898438 249.363281 97.871094 247.910156 96.882812 246.429688 C 95.894531 244.949219 94.941406 243.445312 94.023438 241.917969 C 93.109375 240.390625 92.230469 238.839844 91.394531 237.269531 C 90.554688 235.699219 89.753906 234.109375 88.992188 232.5 C 88.230469 230.890625 87.507812 229.261719 86.828125 227.617188 C 86.144531 225.972656 85.503906 224.3125 84.90625 222.636719 C 84.304688 220.960938 83.746094 219.269531 83.230469 217.566406 C 82.710938 215.863281 82.238281 214.144531 81.804688 212.417969 C 81.371094 210.691406 80.984375 208.953125 80.636719 207.207031 C 80.289062 205.460938 79.984375 203.707031 79.722656 201.945312 C 79.460938 200.183594 79.242188 198.417969 79.066406 196.648438 C 78.894531 194.875 78.761719 193.097656 78.675781 191.320312 C 78.589844 189.542969 78.542969 187.761719 78.542969 185.980469 C 78.542969 184.203125 78.589844 182.421875 78.675781 180.644531 C 78.761719 178.867188 78.894531 177.089844 79.066406 175.316406 C 79.242188 173.546875 79.460938 171.78125 79.722656 170.019531 C 79.984375 168.257812 80.289062 166.503906 80.636719 164.757812 C 80.984375 163.011719 81.371094 161.273438 81.804688 159.546875 C 82.238281 157.820312 82.710938 156.101562 83.230469 154.398438 C 83.746094 152.695312 84.304688 151.003906 84.90625 149.328125 C 85.503906 147.652344 86.144531 145.992188 86.828125 144.347656 C 87.507812 142.699219 88.230469 141.074219 88.992188 139.464844 C 89.753906 137.855469 90.554688 136.265625 91.394531 134.695312 C 92.230469 133.125 93.109375 131.574219 94.023438 130.046875 C 94.941406 128.519531 95.894531 127.015625 96.882812 125.535156 C 97.871094 124.054688 98.898438 122.601562 99.957031 121.171875 C 101.019531 119.738281 102.113281 118.335938 103.242188 116.960938 C 104.375 115.582031 105.535156 114.234375 106.730469 112.917969 C 107.929688 111.597656 109.15625 110.308594 110.414062 109.046875 C 111.675781 107.789062 112.964844 106.5625 114.28125 105.367188 C 115.601562 104.171875 116.949219 103.007812 118.328125 101.878906 C 119.703125 100.75 121.105469 99.652344 122.539062 98.59375 C 123.96875 97.53125 125.421875 96.507812 126.902344 95.519531 C 128.386719 94.527344 129.890625 93.578125 131.417969 92.660156 C 132.945312 91.746094 134.492188 90.867188 136.0625 90.027344 C 137.632812 89.191406 139.222656 88.390625 140.835938 87.628906 C 142.445312 86.867188 144.070312 86.144531 145.714844 85.464844 C 147.363281 84.78125 149.023438 84.140625 150.699219 83.542969 C 152.375 82.941406 154.066406 82.382812 155.769531 81.867188 C 157.476562 81.351562 159.191406 80.875 160.917969 80.441406 C 162.644531 80.011719 164.382812 79.621094 166.128906 79.273438 C 167.875 78.925781 169.628906 78.621094 171.390625 78.359375 C 173.152344 78.097656 174.921875 77.878906 176.691406 77.707031 C 178.464844 77.53125 180.238281 77.398438 182.019531 77.3125 C 183.796875 77.226562 185.578125 77.183594 187.359375 77.183594 C 189.136719 77.183594 190.917969 77.226562 192.695312 77.3125 C 194.476562 77.398438 196.25 77.53125 198.023438 77.707031 C 199.796875 77.878906 201.5625 78.097656 203.324219 78.359375 C 205.085938 78.621094 206.839844 78.925781 208.585938 79.273438 C 210.332031 79.621094 212.070312 80.011719 213.796875 80.441406 C 215.523438 80.875 217.242188 81.351562 218.945312 81.867188 C 220.648438 82.382812 222.339844 82.941406 224.015625 83.542969 C 225.691406 84.140625 227.355469 84.78125 229 85.464844 C 230.644531 86.144531 232.273438 86.867188 233.882812 87.628906 C 235.492188 88.390625 237.082031 89.191406 238.652344 90.027344 C 240.222656 90.867188 241.773438 91.746094 243.300781 92.660156 C 244.828125 93.578125 246.332031 94.527344 247.8125 95.519531 C 249.292969 96.507812 250.746094 97.53125 252.179688 98.59375 C 253.609375 99.652344 255.011719 100.75 256.386719 101.878906 C 257.765625 103.007812 259.113281 104.171875 260.433594 105.367188 C 261.753906 106.5625 263.042969 107.789062 264.300781 109.046875 C 265.558594 110.308594 266.789062 111.597656 267.984375 112.917969 C 269.179688 114.234375 270.34375 115.582031 271.472656 116.960938 C 272.601562 118.335938 273.695312 119.738281 274.757812 121.171875 C 275.820312 122.601562 276.84375 124.054688 277.832031 125.535156 C 278.824219 127.015625 279.773438 128.519531 280.691406 130.046875 C 281.605469 131.574219 282.484375 133.125 283.324219 134.695312 C 284.164062 136.265625 284.960938 137.855469 285.722656 139.464844 C 286.484375 141.074219 287.207031 142.699219 287.886719 144.347656 C 288.570312 145.992188 289.210938 147.652344 289.8125 149.328125 C 290.410156 151.003906 290.96875 152.695312 291.484375 154.398438 C 292.003906 156.101562 292.476562 157.820312 292.910156 159.546875 C 293.34375 161.273438 293.734375 163.011719 294.082031 164.757812 C 294.429688 166.503906 294.730469 168.257812 294.992188 170.019531 C 295.253906 171.78125 295.472656 173.546875 295.648438 175.316406 C 295.820312 177.089844 295.953125 178.867188 296.039062 180.644531 C 296.128906 182.421875 296.171875 184.203125 296.171875 185.980469 Z M 296.171875 185.980469 " fill-opacity="1" fill-rule="nonzero"/><path fill="#ffffff" d="M 296.171875 180.242188 C 296.171875 182.023438 296.128906 183.800781 296.039062 185.582031 C 295.953125 187.359375 295.820312 189.132812 295.648438 190.90625 C 295.472656 192.679688 295.253906 194.445312 294.992188 196.207031 C 294.730469 197.96875 294.429688 199.722656 294.082031 201.46875 C 293.734375 203.214844 293.34375 204.953125 292.910156 206.679688 C 292.476562 208.40625 292.003906 210.121094 291.484375 211.824219 C 290.96875 213.527344 290.410156 215.21875 289.8125 216.894531 C 289.210938 218.574219 288.570312 220.234375 287.886719 221.878906 C 287.207031 223.523438 286.484375 225.152344 285.722656 226.761719 C 284.960938 228.371094 284.164062 229.960938 283.324219 231.53125 C 282.484375 233.101562 281.605469 234.648438 280.691406 236.175781 C 279.773438 237.703125 278.824219 239.207031 277.832031 240.6875 C 276.84375 242.167969 275.820312 243.625 274.757812 245.054688 C 273.695312 246.484375 272.601562 247.886719 271.472656 249.265625 C 270.34375 250.640625 269.179688 251.988281 267.984375 253.308594 C 266.789062 254.628906 265.558594 255.917969 264.300781 257.175781 C 263.042969 258.433594 261.753906 259.664062 260.433594 260.859375 C 259.113281 262.054688 257.765625 263.214844 256.386719 264.347656 C 255.011719 265.476562 253.609375 266.570312 252.179688 267.632812 C 250.746094 268.691406 249.292969 269.71875 247.8125 270.707031 C 246.332031 271.695312 244.828125 272.648438 243.300781 273.5625 C 241.773438 274.480469 240.222656 275.355469 238.652344 276.195312 C 237.082031 277.035156 235.492188 277.835938 233.882812 278.597656 C 232.273438 279.359375 230.644531 280.078125 229 280.761719 C 227.355469 281.441406 225.691406 282.082031 224.015625 282.683594 C 222.339844 283.28125 220.648438 283.839844 218.945312 284.359375 C 217.242188 284.875 215.523438 285.347656 213.796875 285.78125 C 212.070312 286.214844 210.332031 286.605469 208.585938 286.953125 C 206.839844 287.300781 205.085938 287.605469 203.324219 287.863281 C 201.5625 288.125 199.796875 288.34375 198.023438 288.519531 C 196.25 288.691406 194.476562 288.824219 192.695312 288.910156 C 190.917969 289 189.136719 289.042969 187.359375 289.042969 C 185.578125 289.042969 183.796875 289 182.019531 288.910156 C 180.238281 288.824219 178.464844 288.691406 176.691406 288.519531 C 174.921875 288.34375 173.152344 288.125 171.390625 287.863281 C 169.628906 287.605469 167.875 287.300781 166.128906 286.953125 C 164.382812 286.605469 162.644531 286.214844 160.917969 285.78125 C 159.191406 285.347656 157.476562 284.875 155.769531 284.359375 C 154.066406 283.839844 152.375 283.28125 150.699219 282.683594 C 149.023438 282.082031 147.363281 281.441406 145.714844 280.761719 C 144.070312 280.078125 142.445312 279.359375 140.835938 278.597656 C 139.222656 277.835938 137.632812 277.035156 136.0625 276.195312 C 134.492188 275.355469 132.945312 274.480469 131.417969 273.5625 C 129.890625 272.648438 128.386719 271.695312 126.902344 270.707031 C 125.421875 269.71875 123.96875 268.691406 122.539062 267.632812 C 121.105469 266.570312 119.703125 265.476562 118.328125 264.347656 C 116.949219 263.214844 115.601562 262.054688 114.28125 260.859375 C 112.964844 259.664062 111.675781 258.433594 110.414062 257.175781 C 109.15625 255.917969 107.929688 254.628906 106.730469 253.308594 C 105.535156 251.988281 104.375 250.640625 103.242188 249.265625 C 102.113281 247.886719 101.019531 246.484375 99.957031 245.054688 C 98.898438 243.625 97.871094 242.167969 96.882812 240.6875 C 95.894531 239.207031 94.941406 237.703125 94.023438 236.175781 C 93.109375 234.648438 92.230469 233.101562 91.394531 231.53125 C 90.554688 229.960938 89.753906 228.371094 88.992188 226.761719 C 88.230469 225.152344 87.507812 223.523438 86.828125 221.878906 C 86.144531 220.234375 85.503906 218.574219 84.90625 216.894531 C 84.304688 215.21875 83.746094 213.527344 83.230469 211.824219 C 82.710938 210.121094 82.238281 208.40625 81.804688 206.679688 C 81.371094 204.953125 80.984375 203.214844 80.636719 201.46875 C 80.289062 199.722656 79.984375 197.96875 79.722656 196.207031 C 79.460938 194.445312 79.242188 192.679688 79.066406 190.90625 C 78.894531 189.132812 78.761719 187.359375 78.675781 185.582031 C 78.589844 183.800781 78.542969 182.023438 78.542969 180.242188 C 78.542969 178.460938 78.589844 176.683594 78.675781 174.902344 C 78.761719 173.125 78.894531 171.351562 79.066406 169.578125 C 79.242188 167.804688 79.460938 166.039062 79.722656 164.277344 C 79.984375 162.515625 80.289062 160.761719 80.636719 159.015625 C 80.984375 157.269531 81.371094 155.53125 81.804688 153.804688 C 82.238281 152.078125 82.710938 150.363281 83.230469 148.660156 C 83.746094 146.957031 84.304688 145.265625 84.90625 143.589844 C 85.503906 141.910156 86.144531 140.25 86.828125 138.605469 C 87.507812 136.960938 88.230469 135.332031 88.992188 133.722656 C 89.753906 132.113281 90.554688 130.523438 91.394531 128.953125 C 92.230469 127.382812 93.109375 125.835938 94.023438 124.308594 C 94.941406 122.78125 95.894531 121.277344 96.882812 119.796875 C 97.871094 118.316406 98.898438 116.859375 99.957031 115.429688 C 101.019531 114 102.113281 112.597656 103.242188 111.21875 C 104.375 109.84375 105.535156 108.496094 106.730469 107.175781 C 107.929688 105.855469 109.15625 104.566406 110.414062 103.308594 C 111.675781 102.050781 112.964844 100.820312 114.28125 99.625 C 115.601562 98.429688 116.949219 97.269531 118.328125 96.136719 C 119.703125 95.007812 121.105469 93.914062 122.539062 92.851562 C 123.96875 91.792969 125.421875 90.765625 126.902344 89.777344 C 128.386719 88.789062 129.890625 87.835938 131.417969 86.921875 C 132.945312 86.003906 134.492188 85.128906 136.0625 84.289062 C 137.632812 83.449219 139.222656 82.648438 140.835938 81.886719 C 142.445312 81.125 144.070312 80.40625 145.714844 79.722656 C 147.363281 79.042969 149.023438 78.402344 150.699219 77.800781 C 152.375 77.203125 154.066406 76.644531 155.769531 76.125 C 157.476562 75.609375 159.191406 75.136719 160.917969 74.703125 C 162.644531 74.269531 164.382812 73.878906 166.128906 73.53125 C 167.875 73.183594 169.628906 72.878906 171.390625 72.621094 C 173.152344 72.359375 174.921875 72.140625 176.691406 71.964844 C 178.464844 71.789062 180.238281 71.660156 182.019531 71.574219 C 183.796875 71.484375 185.578125 71.441406 187.359375 71.441406 C 189.136719 71.441406 190.917969 71.484375 192.695312 71.574219 C 194.476562 71.660156 196.25 71.789062 198.023438 71.964844 C 199.796875 72.140625 201.5625 72.359375 203.324219 72.621094 C 205.085938 72.878906 206.839844 73.183594 208.585938 73.53125 C 210.332031 73.878906 212.070312 74.269531 213.796875 74.703125 C 215.523438 75.136719 217.242188 75.609375 218.945312 76.125 C 220.648438 76.644531 222.339844 77.203125 224.015625 77.800781 C 225.691406 78.402344 227.355469 79.042969 229 79.722656 C 230.644531 80.40625 232.273438 81.125 233.882812 81.886719 C 235.492188 82.648438 237.082031 83.449219 238.652344 84.289062 C 240.222656 85.128906 241.773438 86.003906 243.300781 86.921875 C 244.828125 87.835938 246.332031 88.789062 247.8125 89.777344 C 249.292969 90.765625 250.746094 91.792969 252.179688 92.851562 C 253.609375 93.914062 255.011719 95.007812 256.386719 96.136719 C 257.765625 97.269531 259.113281 98.429688 260.433594 99.625 C 261.753906 100.820312 263.042969 102.050781 264.300781 103.308594 C 265.558594 104.566406 266.789062 105.855469 267.984375 107.175781 C 269.179688 108.496094 270.34375 109.84375 271.472656 111.21875 C 272.601562 112.597656 273.695312 114 274.757812 115.429688 C 275.820312 116.859375 276.84375 118.316406 277.832031 119.796875 C 278.824219 121.277344 279.773438 122.78125 280.691406 124.308594 C 281.605469 125.835938 282.484375 127.382812 283.324219 128.953125 C 284.164062 130.523438 284.960938 132.113281 285.722656 133.722656 C 286.484375 135.332031 287.207031 136.960938 287.886719 138.605469 C 288.570312 140.25 289.210938 141.910156 289.8125 143.589844 C 290.410156 145.265625 290.96875 146.957031 291.484375 148.660156 C 292.003906 150.363281 292.476562 152.078125 292.910156 153.804688 C 293.34375 155.53125 293.734375 157.269531 294.082031 159.015625 C 294.429688 160.761719 294.730469 162.515625 294.992188 164.277344 C 295.253906 166.039062 295.472656 167.804688 295.648438 169.578125 C 295.820312 171.351562 295.953125 173.125 296.039062 174.902344 C 296.128906 176.683594 296.171875 178.460938 296.171875 180.242188 Z M 296.171875 180.242188 " fill-opacity="1" fill-rule="nonzero"/><path fill="#ffcd59" d="M 296.144531 182.511719 C 294.933594 241.554688 246.695312 289.042969 187.359375 289.042969 C 128.019531 289.042969 79.78125 241.554688 78.574219 182.511719 C 79.78125 123.472656 128.019531 75.984375 187.359375 75.984375 C 246.695312 75.984375 294.933594 123.472656 296.144531 182.511719 Z M 296.144531 182.511719 " fill-opacity="1" fill-rule="evenodd"/><path fill="#ffffff" d="M 120.1875 106.839844 C 130.042969 99.957031 141.136719 98.828125 144.964844 104.308594 C 148.792969 109.792969 143.910156 119.816406 134.054688 126.695312 C 124.203125 133.578125 113.109375 134.707031 109.277344 129.226562 C 105.449219 123.742188 110.335938 113.71875 120.1875 106.839844 Z M 104.398438 136.265625 C 109.3125 136.265625 113.296875 140.25 113.296875 145.164062 C 113.296875 150.078125 109.3125 154.058594 104.398438 154.058594 C 99.484375 154.058594 95.5 150.078125 95.5 145.164062 C 95.5 140.25 99.484375 136.265625 104.398438 136.265625 Z M 104.398438 136.265625 " fill-opacity="1" fill-rule="evenodd"/><path fill="#c46019" d="M 189.75 137.929688 L 189.710938 137.929688 L 189.355469 137.933594 L 189.339844 137.933594 L 188.972656 137.949219 L 188.96875 137.949219 C 186.632812 138.066406 184.292969 138.71875 182.136719 139.960938 L 159.460938 153.050781 L 147.898438 153.050781 C 130.886719 153.050781 116.96875 166.96875 116.96875 183.980469 L 116.96875 187.179688 C 116.96875 204.191406 130.886719 218.109375 147.898438 218.109375 L 159.457031 218.109375 L 182.136719 231.199219 C 184.289062 232.445312 186.632812 233.09375 188.96875 233.210938 L 188.972656 233.210938 L 189.339844 233.226562 L 189.355469 233.226562 L 189.710938 233.230469 L 189.75 233.230469 L 190.078125 233.226562 C 191.578125 233.191406 193.027344 232.941406 194.394531 232.5 L 194.425781 232.492188 L 194.753906 232.382812 L 194.980469 232.300781 C 198.234375 231.117188 201.109375 228.835938 202.964844 225.617188 L 202.96875 225.617188 C 204.214844 223.460938 204.863281 221.117188 204.980469 218.78125 L 204.980469 218.765625 L 204.992188 218.414062 L 204.996094 218.375 L 204.996094 218.042969 L 205 217.984375 L 205 153.179688 L 204.996094 153.117188 L 204.996094 152.789062 L 204.992188 152.75 L 204.980469 152.398438 L 204.980469 152.382812 C 204.867188 150.042969 204.214844 147.699219 202.96875 145.546875 L 202.964844 145.542969 C 201.109375 142.328125 198.234375 140.046875 194.980469 138.863281 L 194.753906 138.78125 L 194.695312 138.757812 L 194.425781 138.671875 L 194.394531 138.660156 C 193.027344 138.21875 191.578125 137.96875 190.078125 137.9375 L 189.75 137.933594 Z M 221.882812 148.066406 L 247.285156 141.257812 C 251.515625 140.125 255.898438 142.65625 257.03125 146.882812 C 258.164062 151.109375 255.632812 155.492188 251.40625 156.625 L 226 163.433594 C 221.773438 164.566406 217.386719 162.035156 216.257812 157.808594 C 215.121094 153.582031 217.652344 149.199219 221.882812 148.066406 Z M 221.882812 223.09375 L 247.285156 229.902344 C 251.515625 231.035156 255.898438 228.503906 257.03125 224.273438 C 258.164062 220.046875 255.632812 215.664062 251.40625 214.53125 L 226 207.726562 C 221.773438 206.59375 217.386719 209.125 216.257812 213.351562 C 215.121094 217.578125 217.652344 221.960938 221.882812 223.09375 Z M 223.492188 177.625 L 249.792969 177.625 C 254.171875 177.625 257.75 181.203125 257.75 185.578125 C 257.75 189.957031 254.171875 193.535156 249.792969 193.535156 L 223.492188 193.535156 C 219.117188 193.535156 215.535156 189.957031 215.535156 185.578125 C 215.535156 181.203125 219.117188 177.625 223.492188 177.625 Z M 223.492188 177.625 " fill-opacity="1" fill-rule="evenodd"/><path fill="#ff8228" d="M 117.222656 191.15625 C 119.191406 206.308594 132.234375 218.105469 147.898438 218.105469 L 159.457031 218.105469 L 182.136719 231.199219 C 184.289062 232.445312 186.628906 233.09375 188.96875 233.210938 L 188.972656 233.210938 L 189.339844 233.226562 L 189.355469 233.226562 L 189.707031 233.230469 L 189.75 233.230469 L 190.078125 233.226562 C 191.578125 233.191406 193.027344 232.941406 194.394531 232.5 L 194.425781 232.492188 L 194.691406 232.402344 L 194.753906 232.382812 L 194.976562 232.300781 C 198.234375 231.117188 201.109375 228.832031 202.964844 225.617188 C 204.210938 223.460938 204.863281 221.117188 204.976562 218.78125 L 204.976562 218.761719 L 204.992188 218.410156 L 204.992188 218.375 L 204.996094 218.042969 L 205 217.984375 L 205 164.332031 L 204.996094 164.269531 L 204.992188 163.9375 L 204.992188 163.902344 L 204.976562 163.550781 L 204.976562 163.53125 C 204.867188 161.195312 204.210938 158.851562 202.964844 156.695312 C 201.109375 153.480469 198.234375 151.199219 194.976562 150.015625 L 194.753906 149.929688 L 194.691406 149.910156 L 194.425781 149.824219 L 194.394531 149.8125 C 193.027344 149.371094 191.578125 149.121094 190.078125 149.089844 L 189.75 149.085938 L 189.707031 149.085938 L 189.355469 149.089844 L 189.339844 149.089844 L 188.972656 149.101562 L 188.96875 149.105469 C 186.632812 149.222656 184.289062 149.871094 182.136719 151.113281 L 159.457031 164.207031 L 147.898438 164.207031 C 132.234375 164.207031 119.191406 176.007812 117.222656 191.15625 Z M 221.882812 159.21875 L 247.285156 152.410156 C 250.140625 151.648438 253.0625 152.550781 255.011719 154.519531 C 254.046875 155.5 252.820312 156.246094 251.40625 156.625 L 226 163.433594 C 223.148438 164.195312 220.222656 163.292969 218.277344 161.324219 C 219.238281 160.34375 220.464844 159.597656 221.882812 159.21875 Z M 255.011719 227.792969 C 254.046875 226.8125 252.820312 226.066406 251.40625 225.6875 L 226 218.878906 C 223.148438 218.117188 220.222656 219.019531 218.277344 220.988281 C 219.238281 221.96875 220.464844 222.714844 221.882812 223.09375 L 247.285156 229.902344 C 250.140625 230.664062 253.0625 229.761719 255.011719 227.792969 Z M 223.492188 188.777344 L 249.792969 188.777344 C 252.003906 188.777344 254.007812 189.691406 255.453125 191.15625 C 254.007812 192.625 252.003906 193.535156 249.792969 193.535156 L 223.492188 193.535156 C 221.285156 193.535156 219.277344 192.625 217.832031 191.15625 C 219.277344 189.691406 221.285156 188.777344 223.492188 188.777344 Z M 223.492188 188.777344 " fill-opacity="1" fill-rule="evenodd"/></svg>