<svg xmlns="http://www.w3.org/2000/svg" xmlns:xlink="http://www.w3.org/1999/xlink" width="500" zoomAndPan="magnify" viewBox="0 0 375 374.999991" height="500" preserveAspectRatio="xMidYMid meet" version="1.0"><defs><clipPath id="cdcf6d2a1b"><path d="M 77.53125 80 L 297.28125 80 L 297.28125 300 L 77.53125 300 Z M 77.53125 80 " clip-rule="nonzero"/></clipPath><clipPath id="465302caa3"><path d="M 77.53125 75 L 297.28125 75 L 297.28125 295 L 77.53125 295 Z M 77.53125 75 " clip-rule="nonzero"/></clipPath></defs><g clip-path="url(#cdcf6d2a1b)"><path fill="#c46019" d="M 297.28125 190.003906 C 297.28125 191.804688 297.238281 193.601562 297.148438 195.398438 C 297.0625 197.199219 296.929688 198.992188 296.753906 200.78125 C 296.578125 202.574219 296.355469 204.359375 296.09375 206.140625 C 295.828125 207.921875 295.519531 209.691406 295.171875 211.457031 C 294.820312 213.222656 294.425781 214.980469 293.988281 216.722656 C 293.550781 218.46875 293.074219 220.203125 292.550781 221.925781 C 292.027344 223.648438 291.464844 225.355469 290.859375 227.050781 C 290.253906 228.746094 289.605469 230.425781 288.917969 232.085938 C 288.230469 233.75 287.5 235.394531 286.734375 237.023438 C 285.964844 238.648438 285.15625 240.257812 284.308594 241.84375 C 283.460938 243.429688 282.574219 244.996094 281.648438 246.539062 C 280.726562 248.082031 279.761719 249.601562 278.765625 251.097656 C 277.765625 252.597656 276.730469 254.066406 275.660156 255.511719 C 274.589844 256.957031 273.480469 258.375 272.339844 259.769531 C 271.199219 261.160156 270.027344 262.519531 268.820312 263.855469 C 267.609375 265.1875 266.371094 266.492188 265.101562 267.765625 C 263.828125 269.035156 262.527344 270.277344 261.195312 271.484375 C 259.863281 272.695312 258.5 273.871094 257.109375 275.011719 C 255.71875 276.152344 254.304688 277.261719 252.859375 278.332031 C 251.414062 279.402344 249.945312 280.441406 248.449219 281.441406 C 246.953125 282.441406 245.4375 283.402344 243.894531 284.328125 C 242.351562 285.253906 240.789062 286.140625 239.203125 286.988281 C 237.617188 287.835938 236.007812 288.644531 234.382812 289.414062 C 232.757812 290.183594 231.113281 290.914062 229.453125 291.601562 C 227.792969 292.289062 226.117188 292.9375 224.421875 293.542969 C 222.730469 294.152344 221.023438 294.714844 219.300781 295.238281 C 217.582031 295.761719 215.847656 296.238281 214.105469 296.675781 C 212.359375 297.113281 210.605469 297.507812 208.84375 297.859375 C 207.078125 298.210938 205.308594 298.519531 203.527344 298.78125 C 201.75 299.046875 199.964844 299.265625 198.175781 299.445312 C 196.386719 299.621094 194.59375 299.753906 192.796875 299.839844 C 191 299.929688 189.203125 299.972656 187.40625 299.972656 C 185.609375 299.972656 183.8125 299.929688 182.015625 299.839844 C 180.21875 299.753906 178.425781 299.621094 176.636719 299.445312 C 174.847656 299.265625 173.0625 299.046875 171.285156 298.78125 C 169.503906 298.519531 167.734375 298.210938 165.972656 297.859375 C 164.207031 297.507812 162.453125 297.113281 160.707031 296.675781 C 158.964844 296.238281 157.230469 295.761719 155.511719 295.238281 C 153.789062 294.714844 152.082031 294.152344 150.390625 293.542969 C 148.699219 292.9375 147.019531 292.289062 145.359375 291.601562 C 143.699219 290.914062 142.054688 290.183594 140.429688 289.414062 C 138.804688 288.644531 137.199219 287.835938 135.613281 286.988281 C 134.027344 286.140625 132.460938 285.253906 130.917969 284.328125 C 129.375 283.402344 127.859375 282.441406 126.363281 281.441406 C 124.867188 280.441406 123.398438 279.402344 121.953125 278.332031 C 120.507812 277.261719 119.09375 276.152344 117.703125 275.011719 C 116.3125 273.871094 114.949219 272.695312 113.617188 271.484375 C 112.285156 270.277344 110.984375 269.035156 109.714844 267.765625 C 108.441406 266.492188 107.203125 265.1875 105.996094 263.855469 C 104.785156 262.519531 103.613281 261.160156 102.472656 259.769531 C 101.332031 258.375 100.226562 256.957031 99.152344 255.511719 C 98.082031 254.066406 97.046875 252.597656 96.046875 251.097656 C 95.050781 249.601562 94.085938 248.082031 93.164062 246.539062 C 92.238281 244.996094 91.351562 243.429688 90.503906 241.84375 C 89.65625 240.257812 88.847656 238.648438 88.082031 237.023438 C 87.3125 235.394531 86.582031 233.75 85.894531 232.085938 C 85.207031 230.425781 84.558594 228.746094 83.953125 227.050781 C 83.347656 225.355469 82.785156 223.648438 82.261719 221.925781 C 81.742188 220.203125 81.261719 218.46875 80.824219 216.722656 C 80.386719 214.980469 79.992188 213.222656 79.640625 211.457031 C 79.292969 209.691406 78.984375 207.921875 78.71875 206.140625 C 78.457031 204.359375 78.238281 202.574219 78.058594 200.78125 C 77.882812 198.992188 77.75 197.199219 77.664062 195.398438 C 77.574219 193.601562 77.53125 191.804688 77.53125 190.003906 C 77.53125 188.203125 77.574219 186.40625 77.664062 184.609375 C 77.75 182.8125 77.882812 181.015625 78.058594 179.226562 C 78.238281 177.433594 78.457031 175.648438 78.71875 173.867188 C 78.984375 172.089844 79.292969 170.316406 79.640625 168.550781 C 79.992188 166.785156 80.386719 165.03125 80.824219 163.285156 C 81.261719 161.539062 81.742188 159.804688 82.261719 158.082031 C 82.785156 156.359375 83.347656 154.652344 83.953125 152.957031 C 84.558594 151.261719 85.207031 149.582031 85.894531 147.921875 C 86.582031 146.257812 87.3125 144.613281 88.082031 142.988281 C 88.847656 141.359375 89.65625 139.753906 90.503906 138.164062 C 91.351562 136.578125 92.238281 135.011719 93.164062 133.46875 C 94.085938 131.925781 95.050781 130.40625 96.046875 128.910156 C 97.046875 127.414062 98.082031 125.941406 99.152344 124.496094 C 100.226562 123.050781 101.332031 121.632812 102.472656 120.242188 C 103.613281 118.847656 104.785156 117.488281 105.996094 116.152344 C 107.203125 114.820312 108.441406 113.515625 109.714844 112.246094 C 110.984375 110.972656 112.285156 109.730469 113.617188 108.523438 C 114.949219 107.3125 116.3125 106.140625 117.703125 104.996094 C 119.09375 103.855469 120.507812 102.75 121.953125 101.675781 C 123.398438 100.605469 124.867188 99.566406 126.363281 98.566406 C 127.859375 97.570312 129.378906 96.605469 130.917969 95.679688 C 132.460938 94.753906 134.027344 93.867188 135.613281 93.019531 C 137.199219 92.171875 138.804688 91.363281 140.429688 90.59375 C 142.054688 89.824219 143.699219 89.09375 145.359375 88.40625 C 147.019531 87.71875 148.699219 87.070312 150.390625 86.464844 C 152.082031 85.855469 153.789062 85.292969 155.511719 84.769531 C 157.230469 84.246094 158.964844 83.769531 160.707031 83.332031 C 162.453125 82.894531 164.207031 82.5 165.972656 82.148438 C 167.734375 81.796875 169.503906 81.488281 171.285156 81.226562 C 173.0625 80.960938 174.847656 80.742188 176.636719 80.566406 C 178.425781 80.386719 180.21875 80.257812 182.015625 80.167969 C 183.8125 80.078125 185.609375 80.035156 187.40625 80.035156 C 189.203125 80.035156 191 80.078125 192.796875 80.167969 C 194.59375 80.257812 196.386719 80.386719 198.175781 80.566406 C 199.964844 80.742188 201.75 80.960938 203.527344 81.226562 C 205.308594 81.488281 207.078125 81.796875 208.84375 82.148438 C 210.605469 82.5 212.359375 82.894531 214.105469 83.332031 C 215.847656 83.769531 217.582031 84.246094 219.300781 84.769531 C 221.023438 85.292969 222.730469 85.855469 224.421875 86.464844 C 226.117188 87.070312 227.792969 87.71875 229.453125 88.40625 C 231.113281 89.09375 232.757812 89.824219 234.382812 90.59375 C 236.007812 91.363281 237.617188 92.171875 239.203125 93.019531 C 240.789062 93.867188 242.351562 94.753906 243.894531 95.679688 C 245.4375 96.605469 246.953125 97.570312 248.449219 98.566406 C 249.945312 99.566406 251.414062 100.605469 252.859375 101.675781 C 254.304688 102.75 255.71875 103.855469 257.109375 104.996094 C 258.5 106.140625 259.863281 107.3125 261.195312 108.523438 C 262.527344 109.730469 263.828125 110.972656 265.101562 112.246094 C 266.371094 113.515625 267.609375 114.820312 268.820312 116.152344 C 270.027344 117.488281 271.199219 118.847656 272.339844 120.242188 C 273.480469 121.632812 274.589844 123.050781 275.660156 124.496094 C 276.730469 125.941406 277.765625 127.414062 278.765625 128.910156 C 279.761719 130.40625 280.726562 131.925781 281.648438 133.46875 C 282.574219 135.011719 283.460938 136.578125 284.308594 138.164062 C 285.15625 139.753906 285.964844 141.359375 286.734375 142.988281 C 287.5 144.613281 288.230469 146.257812 288.917969 147.921875 C 289.605469 149.582031 290.253906 151.261719 290.859375 152.957031 C 291.464844 154.652344 292.027344 156.359375 292.550781 158.082031 C 293.074219 159.804688 293.550781 161.539062 293.988281 163.285156 C 294.425781 165.03125 294.820312 166.785156 295.171875 168.550781 C 295.519531 170.316406 295.828125 172.089844 296.09375 173.867188 C 296.355469 175.648438 296.578125 177.433594 296.753906 179.226562 C 296.929688 181.015625 297.0625 182.8125 297.148438 184.609375 C 297.238281 186.40625 297.28125 188.203125 297.28125 190.003906 Z M 297.28125 190.003906 " fill-opacity="1" fill-rule="nonzero"/></g><g clip-path="url(#465302caa3)"><path fill="#ff8228" d="M 297.28125 184.996094 C 297.28125 186.792969 297.238281 188.59375 297.148438 190.390625 C 297.0625 192.1875 296.929688 193.980469 296.753906 195.773438 C 296.578125 197.5625 296.355469 199.351562 296.09375 201.128906 C 295.828125 202.910156 295.519531 204.683594 295.171875 206.449219 C 294.820312 208.214844 294.425781 209.96875 293.988281 211.714844 C 293.550781 213.460938 293.074219 215.195312 292.550781 216.917969 C 292.027344 218.640625 291.464844 220.347656 290.859375 222.042969 C 290.253906 223.738281 289.605469 225.414062 288.917969 227.078125 C 288.230469 228.742188 287.5 230.386719 286.734375 232.011719 C 285.964844 233.640625 285.15625 235.246094 284.308594 236.832031 C 283.460938 238.421875 282.574219 239.984375 281.648438 241.53125 C 280.726562 243.074219 279.761719 244.59375 278.765625 246.089844 C 277.765625 247.585938 276.730469 249.058594 275.660156 250.503906 C 274.589844 251.949219 273.480469 253.367188 272.339844 254.757812 C 271.199219 256.148438 270.027344 257.511719 268.820312 258.84375 C 267.609375 260.179688 266.371094 261.480469 265.101562 262.753906 C 263.828125 264.027344 262.527344 265.265625 261.195312 266.476562 C 259.863281 267.683594 258.5 268.859375 257.109375 270 C 255.71875 271.144531 254.304688 272.25 252.859375 273.324219 C 251.414062 274.394531 249.945312 275.429688 248.449219 276.429688 C 246.953125 277.429688 245.4375 278.394531 243.894531 279.316406 C 242.351562 280.242188 240.789062 281.128906 239.203125 281.976562 C 237.617188 282.828125 236.007812 283.636719 234.382812 284.40625 C 232.757812 285.175781 231.113281 285.902344 229.453125 286.59375 C 227.792969 287.28125 226.117188 287.929688 224.421875 288.535156 C 222.730469 289.140625 221.023438 289.707031 219.300781 290.226562 C 217.582031 290.75 215.847656 291.230469 214.105469 291.667969 C 212.359375 292.105469 210.605469 292.5 208.84375 292.851562 C 207.078125 293.203125 205.308594 293.507812 203.527344 293.773438 C 201.75 294.039062 199.964844 294.257812 198.175781 294.433594 C 196.386719 294.609375 194.59375 294.742188 192.796875 294.832031 C 191 294.917969 189.203125 294.964844 187.40625 294.964844 C 185.609375 294.964844 183.8125 294.917969 182.015625 294.832031 C 180.21875 294.742188 178.425781 294.609375 176.636719 294.433594 C 174.847656 294.257812 173.0625 294.039062 171.285156 293.773438 C 169.503906 293.507812 167.734375 293.203125 165.972656 292.851562 C 164.207031 292.5 162.453125 292.105469 160.707031 291.667969 C 158.964844 291.230469 157.230469 290.75 155.511719 290.226562 C 153.789062 289.707031 152.082031 289.140625 150.390625 288.535156 C 148.699219 287.929688 147.019531 287.28125 145.359375 286.59375 C 143.699219 285.902344 142.054688 285.175781 140.429688 284.40625 C 138.804688 283.636719 137.199219 282.828125 135.613281 281.976562 C 134.027344 281.128906 132.460938 280.242188 130.917969 279.316406 C 129.375 278.394531 127.859375 277.429688 126.363281 276.429688 C 124.867188 275.429688 123.398438 274.394531 121.953125 273.324219 C 120.507812 272.25 119.09375 271.144531 117.703125 270 C 116.3125 268.859375 114.949219 267.683594 113.617188 266.476562 C 112.285156 265.265625 110.984375 264.027344 109.714844 262.753906 C 108.441406 261.480469 107.203125 260.179688 105.996094 258.84375 C 104.785156 257.511719 103.613281 256.148438 102.472656 254.757812 C 101.332031 253.367188 100.226562 251.949219 99.152344 250.503906 C 98.082031 249.058594 97.046875 247.585938 96.046875 246.089844 C 95.050781 244.59375 94.085938 243.074219 93.164062 241.53125 C 92.238281 239.984375 91.351562 238.421875 90.503906 236.832031 C 89.65625 235.246094 88.847656 233.640625 88.082031 232.011719 C 87.3125 230.386719 86.582031 228.742188 85.894531 227.078125 C 85.207031 225.414062 84.558594 223.738281 83.953125 222.042969 C 83.347656 220.347656 82.785156 218.640625 82.261719 216.917969 C 81.742188 215.195312 81.261719 213.460938 80.824219 211.714844 C 80.386719 209.96875 79.992188 208.214844 79.640625 206.449219 C 79.292969 204.683594 78.984375 202.910156 78.71875 201.128906 C 78.457031 199.351562 78.238281 197.5625 78.058594 195.773438 C 77.882812 193.980469 77.75 192.1875 77.664062 190.390625 C 77.574219 188.59375 77.53125 186.792969 77.53125 184.996094 C 77.53125 183.195312 77.574219 181.394531 77.664062 179.597656 C 77.75 177.800781 77.882812 176.007812 78.058594 174.214844 C 78.238281 172.425781 78.457031 170.640625 78.71875 168.859375 C 78.984375 167.078125 79.292969 165.304688 79.640625 163.539062 C 79.992188 161.777344 80.386719 160.019531 80.824219 158.273438 C 81.261719 156.527344 81.742188 154.792969 82.261719 153.070312 C 82.785156 151.351562 83.347656 149.640625 83.953125 147.945312 C 84.558594 146.253906 85.207031 144.574219 85.894531 142.910156 C 86.582031 141.25 87.3125 139.605469 88.082031 137.976562 C 88.847656 136.351562 89.65625 134.742188 90.503906 133.15625 C 91.351562 131.566406 92.238281 130.003906 93.164062 128.460938 C 94.085938 126.914062 95.050781 125.394531 96.046875 123.898438 C 97.046875 122.402344 98.082031 120.929688 99.152344 119.484375 C 100.226562 118.039062 101.332031 116.621094 102.472656 115.230469 C 103.613281 113.839844 104.785156 112.476562 105.996094 111.144531 C 107.203125 109.808594 108.441406 108.507812 109.714844 107.234375 C 110.984375 105.960938 112.285156 104.722656 113.617188 103.511719 C 114.949219 102.304688 116.3125 101.128906 117.703125 99.988281 C 119.09375 98.84375 120.507812 97.738281 121.953125 96.667969 C 123.398438 95.59375 124.867188 94.558594 126.363281 93.558594 C 127.859375 92.558594 129.378906 91.597656 130.917969 90.671875 C 132.460938 89.746094 134.027344 88.859375 135.613281 88.011719 C 137.199219 87.160156 138.804688 86.351562 140.429688 85.582031 C 142.054688 84.8125 143.699219 84.085938 145.359375 83.394531 C 147.019531 82.707031 148.699219 82.058594 150.390625 81.453125 C 152.082031 80.847656 153.789062 80.28125 155.511719 79.761719 C 157.230469 79.238281 158.964844 78.757812 160.707031 78.320312 C 162.453125 77.882812 164.207031 77.488281 165.972656 77.136719 C 167.734375 76.789062 169.503906 76.480469 171.285156 76.214844 C 173.0625 75.953125 174.847656 75.730469 176.636719 75.554688 C 178.425781 75.378906 180.21875 75.246094 182.015625 75.15625 C 183.8125 75.070312 185.609375 75.027344 187.40625 75.027344 C 189.203125 75.027344 191 75.070312 192.796875 75.15625 C 194.59375 75.246094 196.386719 75.378906 198.175781 75.554688 C 199.964844 75.730469 201.75 75.953125 203.527344 76.214844 C 205.308594 76.480469 207.078125 76.789062 208.84375 77.136719 C 210.605469 77.488281 212.359375 77.882812 214.105469 78.320312 C 215.847656 78.757812 217.582031 79.238281 219.300781 79.761719 C 221.023438 80.28125 222.730469 80.847656 224.421875 81.453125 C 226.117188 82.058594 227.792969 82.707031 229.453125 83.394531 C 231.113281 84.085938 232.757812 84.8125 234.382812 85.582031 C 236.007812 86.351562 237.617188 87.160156 239.203125 88.011719 C 240.789062 88.859375 242.351562 89.746094 243.894531 90.671875 C 245.4375 91.597656 246.953125 92.558594 248.449219 93.558594 C 249.945312 94.558594 251.414062 95.59375 252.859375 96.667969 C 254.304688 97.738281 255.71875 98.84375 257.109375 99.988281 C 258.5 101.128906 259.863281 102.304688 261.195312 103.511719 C 262.527344 104.722656 263.828125 105.960938 265.101562 107.234375 C 266.371094 108.507812 267.609375 109.808594 268.820312 111.144531 C 270.027344 112.476562 271.199219 113.839844 272.339844 115.230469 C 273.480469 116.621094 274.589844 118.039062 275.660156 119.484375 C 276.730469 120.929688 277.765625 122.402344 278.765625 123.898438 C 279.761719 125.394531 280.726562 126.914062 281.648438 128.460938 C 282.574219 130.003906 283.460938 131.566406 284.308594 133.15625 C 285.15625 134.742188 285.964844 136.351562 286.734375 137.976562 C 287.5 139.605469 288.230469 141.25 288.917969 142.910156 C 289.605469 144.574219 290.253906 146.253906 290.859375 147.945312 C 291.464844 149.640625 292.027344 151.351562 292.550781 153.070312 C 293.074219 154.792969 293.550781 156.527344 293.988281 158.273438 C 294.425781 160.019531 294.820312 161.777344 295.171875 163.539062 C 295.519531 165.304688 295.828125 167.078125 296.09375 168.859375 C 296.355469 170.640625 296.578125 172.425781 296.753906 174.214844 C 296.929688 176.007812 297.0625 177.800781 297.148438 179.597656 C 297.238281 181.394531 297.28125 183.195312 297.28125 184.996094 Z M 297.28125 184.996094 " fill-opacity="1" fill-rule="nonzero"/></g><path fill="#c46019" d="M 279.476562 185.507812 C 279.476562 187.003906 279.4375 188.5 279.367188 189.992188 C 279.292969 191.488281 279.183594 192.980469 279.035156 194.46875 C 278.890625 195.957031 278.707031 197.441406 278.488281 198.921875 C 278.265625 200.402344 278.011719 201.875 277.71875 203.34375 C 277.429688 204.8125 277.101562 206.273438 276.738281 207.722656 C 276.375 209.175781 275.976562 210.617188 275.542969 212.046875 C 275.109375 213.480469 274.640625 214.902344 274.136719 216.308594 C 273.632812 217.71875 273.09375 219.113281 272.523438 220.496094 C 271.949219 221.878906 271.34375 223.246094 270.703125 224.597656 C 270.066406 225.953125 269.394531 227.289062 268.6875 228.609375 C 267.984375 229.925781 267.246094 231.230469 266.480469 232.511719 C 265.710938 233.796875 264.910156 235.058594 264.078125 236.304688 C 263.25 237.546875 262.386719 238.769531 261.496094 239.972656 C 260.609375 241.175781 259.6875 242.355469 258.738281 243.511719 C 257.789062 244.667969 256.816406 245.800781 255.8125 246.910156 C 254.808594 248.015625 253.777344 249.101562 252.71875 250.160156 C 251.660156 251.21875 250.578125 252.25 249.472656 253.253906 C 248.363281 254.257812 247.230469 255.234375 246.078125 256.183594 C 244.921875 257.132812 243.742188 258.054688 242.542969 258.945312 C 241.339844 259.835938 240.117188 260.699219 238.875 261.53125 C 237.632812 262.359375 236.371094 263.160156 235.085938 263.929688 C 233.804688 264.699219 232.503906 265.4375 231.1875 266.140625 C 229.867188 266.847656 228.53125 267.519531 227.179688 268.160156 C 225.828125 268.800781 224.464844 269.40625 223.082031 269.980469 C 221.699219 270.550781 220.304688 271.089844 218.898438 271.59375 C 217.492188 272.097656 216.070312 272.566406 214.640625 273 C 213.210938 273.4375 211.769531 273.835938 210.320312 274.199219 C 208.871094 274.5625 207.410156 274.890625 205.945312 275.179688 C 204.476562 275.472656 203.003906 275.730469 201.527344 275.949219 C 200.046875 276.167969 198.5625 276.351562 197.078125 276.5 C 195.589844 276.644531 194.097656 276.753906 192.605469 276.828125 C 191.113281 276.902344 189.617188 276.9375 188.121094 276.9375 C 186.628906 276.9375 185.132812 276.902344 183.640625 276.828125 C 182.148438 276.753906 180.65625 276.644531 179.167969 276.5 C 177.679688 276.351562 176.195312 276.167969 174.71875 275.949219 C 173.238281 275.730469 171.765625 275.472656 170.300781 275.179688 C 168.832031 274.890625 167.375 274.5625 165.925781 274.199219 C 164.476562 273.835938 163.035156 273.4375 161.605469 273 C 160.171875 272.566406 158.753906 272.097656 157.347656 271.59375 C 155.9375 271.089844 154.542969 270.550781 153.164062 269.980469 C 151.78125 269.40625 150.414062 268.800781 149.0625 268.160156 C 147.710938 267.519531 146.378906 266.847656 145.058594 266.140625 C 143.738281 265.4375 142.441406 264.699219 141.15625 263.929688 C 139.875 263.160156 138.613281 262.359375 137.371094 261.53125 C 136.125 260.699219 134.902344 259.835938 133.703125 258.945312 C 132.503906 258.054688 131.324219 257.132812 130.167969 256.183594 C 129.011719 255.234375 127.882812 254.257812 126.773438 253.253906 C 125.664062 252.25 124.582031 251.21875 123.527344 250.160156 C 122.46875 249.101562 121.4375 248.015625 120.433594 246.910156 C 119.429688 245.800781 118.453125 244.667969 117.503906 243.511719 C 116.558594 242.355469 115.636719 241.175781 114.746094 239.972656 C 113.855469 238.769531 112.996094 237.546875 112.164062 236.304688 C 111.335938 235.058594 110.535156 233.796875 109.765625 232.511719 C 108.996094 231.230469 108.261719 229.925781 107.554688 228.609375 C 106.851562 227.289062 106.179688 225.953125 105.539062 224.597656 C 104.902344 223.246094 104.296875 221.878906 103.722656 220.496094 C 103.152344 219.113281 102.613281 217.71875 102.109375 216.308594 C 101.605469 214.902344 101.136719 213.480469 100.703125 212.046875 C 100.269531 210.617188 99.871094 209.175781 99.507812 207.722656 C 99.144531 206.273438 98.816406 204.8125 98.523438 203.34375 C 98.234375 201.875 97.976562 200.402344 97.757812 198.921875 C 97.539062 197.441406 97.355469 195.957031 97.207031 194.46875 C 97.0625 192.980469 96.953125 191.488281 96.878906 189.992188 C 96.804688 188.5 96.769531 187.003906 96.769531 185.507812 C 96.769531 184.011719 96.804688 182.515625 96.878906 181.019531 C 96.953125 179.527344 97.0625 178.035156 97.207031 176.546875 C 97.355469 175.054688 97.539062 173.570312 97.757812 172.089844 C 97.976562 170.609375 98.234375 169.136719 98.523438 167.667969 C 98.816406 166.203125 99.144531 164.742188 99.507812 163.292969 C 99.871094 161.839844 100.269531 160.398438 100.703125 158.964844 C 101.136719 157.535156 101.605469 156.113281 102.109375 154.703125 C 102.613281 153.296875 103.152344 151.898438 103.722656 150.519531 C 104.296875 149.136719 104.902344 147.769531 105.539062 146.414062 C 106.179688 145.0625 106.851562 143.726562 107.554688 142.40625 C 108.261719 141.085938 108.996094 139.785156 109.765625 138.503906 C 110.535156 137.21875 111.335938 135.953125 112.164062 134.710938 C 112.996094 133.464844 113.855469 132.242188 114.746094 131.042969 C 115.636719 129.839844 116.558594 128.660156 117.503906 127.503906 C 118.453125 126.347656 119.429688 125.214844 120.433594 124.105469 C 121.4375 122.996094 122.46875 121.914062 123.527344 120.855469 C 124.582031 119.796875 125.664062 118.765625 126.773438 117.761719 C 127.882812 116.757812 129.011719 115.777344 130.167969 114.828125 C 131.324219 113.878906 132.503906 112.960938 133.703125 112.070312 C 134.902344 111.175781 136.125 110.316406 137.371094 109.484375 C 138.613281 108.652344 139.875 107.851562 141.15625 107.082031 C 142.441406 106.316406 143.738281 105.578125 145.058594 104.871094 C 146.378906 104.167969 147.710938 103.492188 149.0625 102.855469 C 150.414062 102.214844 151.78125 101.609375 153.164062 101.035156 C 154.542969 100.464844 155.9375 99.925781 157.347656 99.421875 C 158.753906 98.917969 160.171875 98.445312 161.605469 98.011719 C 163.035156 97.578125 164.476562 97.179688 165.925781 96.816406 C 167.375 96.453125 168.832031 96.125 170.300781 95.832031 C 171.765625 95.539062 173.238281 95.285156 174.71875 95.066406 C 176.195312 94.847656 177.679688 94.664062 179.167969 94.515625 C 180.65625 94.371094 182.148438 94.257812 183.640625 94.1875 C 185.132812 94.113281 186.628906 94.074219 188.121094 94.074219 C 189.617188 94.074219 191.113281 94.113281 192.605469 94.1875 C 194.097656 94.257812 195.589844 94.371094 197.078125 94.515625 C 198.5625 94.664062 200.046875 94.847656 201.527344 95.066406 C 203.003906 95.285156 204.476562 95.539062 205.945312 95.832031 C 207.410156 96.125 208.871094 96.453125 210.320312 96.816406 C 211.769531 97.179688 213.210938 97.578125 214.640625 98.011719 C 216.070312 98.445312 217.492188 98.917969 218.898438 99.421875 C 220.304688 99.925781 221.699219 100.464844 223.082031 101.035156 C 224.464844 101.609375 225.828125 102.214844 227.179688 102.855469 C 228.53125 103.492188 229.867188 104.167969 231.1875 104.871094 C 232.503906 105.578125 233.804688 106.316406 235.085938 107.082031 C 236.371094 107.851562 237.632812 108.652344 238.875 109.484375 C 240.117188 110.316406 241.339844 111.175781 242.542969 112.070312 C 243.742188 112.960938 244.921875 113.878906 246.078125 114.828125 C 247.230469 115.777344 248.363281 116.757812 249.472656 117.761719 C 250.578125 118.765625 251.660156 119.796875 252.71875 120.855469 C 253.777344 121.914062 254.808594 122.996094 255.8125 124.105469 C 256.816406 125.214844 257.789062 126.347656 258.738281 127.503906 C 259.6875 128.660156 260.605469 129.839844 261.496094 131.042969 C 262.386719 132.242188 263.25 133.464844 264.078125 134.710938 C 264.910156 135.953125 265.710938 137.21875 266.480469 138.503906 C 267.246094 139.785156 267.984375 141.085938 268.6875 142.40625 C 269.394531 143.726562 270.066406 145.0625 270.703125 146.414062 C 271.34375 147.769531 271.949219 149.136719 272.523438 150.519531 C 273.09375 151.898438 273.632812 153.296875 274.136719 154.703125 C 274.640625 156.113281 275.109375 157.535156 275.542969 158.964844 C 275.976562 160.398438 276.375 161.839844 276.738281 163.292969 C 277.101562 164.742188 277.429688 166.203125 277.71875 167.667969 C 278.011719 169.136719 278.265625 170.609375 278.488281 172.089844 C 278.707031 173.570312 278.890625 175.054688 279.035156 176.546875 C 279.183594 178.035156 279.292969 179.527344 279.367188 181.019531 C 279.4375 182.515625 279.476562 184.011719 279.476562 185.507812 Z M 279.476562 185.507812 " fill-opacity="1" fill-rule="nonzero"/><path fill="#ffffff" d="M 279.476562 180.683594 C 279.476562 182.179688 279.4375 183.675781 279.367188 185.167969 C 279.292969 186.664062 279.183594 188.15625 279.035156 189.644531 C 278.890625 191.132812 278.707031 192.617188 278.488281 194.097656 C 278.265625 195.578125 278.011719 197.054688 277.71875 198.519531 C 277.429688 199.988281 277.101562 201.449219 276.738281 202.898438 C 276.375 204.351562 275.976562 205.792969 275.542969 207.222656 C 275.109375 208.65625 274.640625 210.078125 274.136719 211.484375 C 273.632812 212.894531 273.09375 214.289062 272.523438 215.671875 C 271.949219 217.054688 271.34375 218.421875 270.703125 219.773438 C 270.066406 221.128906 269.394531 222.464844 268.6875 223.785156 C 267.984375 225.101562 267.246094 226.40625 266.480469 227.6875 C 265.710938 228.972656 264.910156 230.234375 264.078125 231.480469 C 263.25 232.722656 262.386719 233.945312 261.496094 235.148438 C 260.609375 236.351562 259.6875 237.53125 258.738281 238.6875 C 257.789062 239.84375 256.816406 240.976562 255.8125 242.085938 C 254.808594 243.195312 253.777344 244.277344 252.71875 245.335938 C 251.660156 246.394531 250.578125 247.425781 249.472656 248.429688 C 248.363281 249.433594 247.230469 250.410156 246.078125 251.359375 C 244.921875 252.308594 243.742188 253.230469 242.542969 254.121094 C 241.339844 255.011719 240.117188 255.875 238.875 256.707031 C 237.632812 257.535156 236.371094 258.335938 235.085938 259.105469 C 233.804688 259.875 232.503906 260.613281 231.1875 261.320312 C 229.867188 262.023438 228.53125 262.695312 227.179688 263.335938 C 225.828125 263.976562 224.464844 264.582031 223.082031 265.15625 C 221.699219 265.726562 220.304688 266.265625 218.898438 266.769531 C 217.492188 267.273438 216.070312 267.742188 214.640625 268.175781 C 213.210938 268.613281 211.769531 269.011719 210.320312 269.375 C 208.871094 269.738281 207.410156 270.066406 205.945312 270.359375 C 204.476562 270.648438 203.003906 270.90625 201.527344 271.125 C 200.046875 271.34375 198.5625 271.527344 197.078125 271.675781 C 195.589844 271.820312 194.097656 271.929688 192.605469 272.003906 C 191.113281 272.078125 189.617188 272.113281 188.121094 272.113281 C 186.628906 272.113281 185.132812 272.078125 183.640625 272.003906 C 182.148438 271.929688 180.65625 271.820312 179.167969 271.675781 C 177.679688 271.527344 176.195312 271.34375 174.71875 271.125 C 173.238281 270.90625 171.765625 270.648438 170.300781 270.359375 C 168.832031 270.066406 167.375 269.738281 165.925781 269.375 C 164.476562 269.011719 163.035156 268.613281 161.605469 268.175781 C 160.171875 267.742188 158.753906 267.273438 157.347656 266.769531 C 155.9375 266.265625 154.542969 265.726562 153.164062 265.15625 C 151.78125 264.582031 150.414062 263.976562 149.0625 263.335938 C 147.710938 262.695312 146.378906 262.023438 145.058594 261.320312 C 143.738281 260.613281 142.441406 259.875 141.15625 259.105469 C 139.875 258.335938 138.613281 257.535156 137.371094 256.707031 C 136.125 255.875 134.902344 255.011719 133.703125 254.121094 C 132.503906 253.230469 131.324219 252.308594 130.167969 251.359375 C 129.011719 250.410156 127.882812 249.433594 126.773438 248.429688 C 125.664062 247.425781 124.582031 246.394531 123.527344 245.335938 C 122.46875 244.277344 121.4375 243.195312 120.433594 242.085938 C 119.429688 240.976562 118.453125 239.84375 117.503906 238.6875 C 116.558594 237.53125 115.636719 236.351562 114.746094 235.148438 C 113.855469 233.945312 112.996094 232.722656 112.164062 231.480469 C 111.335938 230.234375 110.535156 228.972656 109.765625 227.6875 C 108.996094 226.40625 108.261719 225.101562 107.554688 223.785156 C 106.851562 222.464844 106.179688 221.128906 105.539062 219.773438 C 104.902344 218.421875 104.296875 217.054688 103.722656 215.671875 C 103.152344 214.289062 102.613281 212.894531 102.109375 211.484375 C 101.605469 210.078125 101.136719 208.65625 100.703125 207.222656 C 100.269531 205.792969 99.871094 204.351562 99.507812 202.898438 C 99.144531 201.449219 98.816406 199.988281 98.523438 198.519531 C 98.234375 197.054688 97.976562 195.578125 97.757812 194.097656 C 97.539062 192.617188 97.355469 191.132812 97.207031 189.644531 C 97.0625 188.15625 96.953125 186.664062 96.878906 185.167969 C 96.804688 183.675781 96.769531 182.179688 96.769531 180.683594 C 96.769531 179.1875 96.804688 177.691406 96.878906 176.195312 C 96.953125 174.703125 97.0625 173.210938 97.207031 171.722656 C 97.355469 170.234375 97.539062 168.746094 97.757812 167.269531 C 97.976562 165.789062 98.234375 164.3125 98.523438 162.847656 C 98.816406 161.378906 99.144531 159.917969 99.507812 158.46875 C 99.871094 157.015625 100.269531 155.574219 100.703125 154.140625 C 101.136719 152.710938 101.605469 151.289062 102.109375 149.882812 C 102.613281 148.472656 103.152344 147.078125 103.722656 145.695312 C 104.296875 144.3125 104.902344 142.945312 105.539062 141.589844 C 106.179688 140.238281 106.851562 138.902344 107.554688 137.582031 C 108.261719 136.261719 108.996094 134.960938 109.765625 133.679688 C 110.535156 132.394531 111.335938 131.132812 112.164062 129.886719 C 112.996094 128.644531 113.855469 127.417969 114.746094 126.21875 C 115.636719 125.015625 116.558594 123.835938 117.503906 122.679688 C 118.453125 121.523438 119.429688 120.390625 120.433594 119.28125 C 121.4375 118.171875 122.46875 117.089844 123.527344 116.03125 C 124.582031 114.972656 125.664062 113.941406 126.773438 112.9375 C 127.882812 111.933594 129.011719 110.957031 130.167969 110.007812 C 131.324219 109.058594 132.503906 108.136719 133.703125 107.246094 C 134.902344 106.355469 136.125 105.492188 137.371094 104.660156 C 138.613281 103.828125 139.875 103.03125 141.15625 102.261719 C 142.441406 101.492188 143.738281 100.753906 145.058594 100.046875 C 146.378906 99.34375 147.710938 98.671875 149.0625 98.03125 C 150.414062 97.390625 151.78125 96.785156 153.164062 96.210938 C 154.542969 95.640625 155.9375 95.101562 157.347656 94.597656 C 158.753906 94.09375 160.171875 93.625 161.605469 93.1875 C 163.035156 92.753906 164.476562 92.355469 165.925781 91.992188 C 167.375 91.628906 168.832031 91.300781 170.300781 91.007812 C 171.765625 90.71875 173.238281 90.460938 174.71875 90.242188 C 176.195312 90.023438 177.679688 89.839844 179.167969 89.691406 C 180.65625 89.546875 182.148438 89.4375 183.640625 89.363281 C 185.132812 89.289062 186.628906 89.253906 188.121094 89.253906 C 189.617188 89.253906 191.113281 89.289062 192.605469 89.363281 C 194.097656 89.4375 195.589844 89.546875 197.078125 89.691406 C 198.5625 89.839844 200.046875 90.023438 201.527344 90.242188 C 203.003906 90.460938 204.476562 90.71875 205.945312 91.007812 C 207.410156 91.300781 208.871094 91.628906 210.320312 91.992188 C 211.769531 92.355469 213.210938 92.753906 214.640625 93.1875 C 216.070312 93.625 217.492188 94.09375 218.898438 94.597656 C 220.304688 95.101562 221.699219 95.640625 223.082031 96.210938 C 224.464844 96.785156 225.828125 97.390625 227.179688 98.03125 C 228.53125 98.671875 229.867188 99.34375 231.1875 100.046875 C 232.503906 100.753906 233.804688 101.492188 235.085938 102.261719 C 236.371094 103.03125 237.632812 103.828125 238.875 104.660156 C 240.117188 105.492188 241.339844 106.355469 242.542969 107.246094 C 243.742188 108.136719 244.921875 109.058594 246.078125 110.007812 C 247.230469 110.957031 248.363281 111.933594 249.472656 112.9375 C 250.578125 113.941406 251.660156 114.972656 252.71875 116.03125 C 253.777344 117.089844 254.808594 118.171875 255.8125 119.28125 C 256.816406 120.390625 257.789062 121.523438 258.738281 122.679688 C 259.6875 123.835938 260.605469 125.015625 261.496094 126.21875 C 262.386719 127.417969 263.25 128.644531 264.078125 129.886719 C 264.910156 131.132812 265.710938 132.394531 266.480469 133.679688 C 267.246094 134.960938 267.984375 136.261719 268.6875 137.582031 C 269.394531 138.902344 270.066406 140.238281 270.703125 141.589844 C 271.34375 142.945312 271.949219 144.3125 272.523438 145.695312 C 273.09375 147.078125 273.632812 148.472656 274.136719 149.882812 C 274.640625 151.289062 275.109375 152.710938 275.542969 154.140625 C 275.976562 155.574219 276.375 157.015625 276.738281 158.46875 C 277.101562 159.917969 277.429688 161.378906 277.71875 162.847656 C 278.011719 164.3125 278.265625 165.789062 278.488281 167.269531 C 278.707031 168.746094 278.890625 170.234375 279.035156 171.722656 C 279.183594 173.210938 279.292969 174.703125 279.367188 176.195312 C 279.4375 177.691406 279.476562 179.1875 279.476562 180.683594 Z M 279.476562 180.683594 " fill-opacity="1" fill-rule="nonzero"/><path fill="#ffcd59" d="M 279.453125 182.589844 C 278.4375 232.207031 237.9375 272.113281 188.125 272.113281 C 138.308594 272.113281 97.808594 232.207031 96.792969 182.589844 C 97.808594 132.976562 138.308594 93.070312 188.125 93.070312 C 237.9375 93.070312 278.4375 132.976562 279.453125 182.589844 Z M 279.453125 182.589844 " fill-opacity="1" fill-rule="evenodd"/><path fill="#ffffff" d="M 131.730469 119 C 140.003906 113.214844 149.316406 112.265625 152.53125 116.871094 C 155.746094 121.480469 151.644531 129.90625 143.371094 135.6875 C 135.101562 141.46875 125.785156 142.417969 122.570312 137.8125 C 119.355469 133.203125 123.457031 124.78125 131.730469 119 Z M 118.476562 143.726562 C 122.601562 143.726562 125.945312 147.074219 125.945312 151.203125 C 125.945312 155.332031 122.601562 158.679688 118.476562 158.679688 C 114.347656 158.679688 111.003906 155.332031 111.003906 151.203125 C 111.003906 147.074219 114.347656 143.726562 118.476562 143.726562 Z M 118.476562 143.726562 " fill-opacity="1" fill-rule="evenodd"/><path fill="#c46019" d="M 156.195312 140.148438 L 220.050781 140.148438 C 220.90625 140.148438 221.753906 140.234375 222.597656 140.402344 C 223.4375 140.566406 224.253906 140.816406 225.042969 141.144531 C 225.835938 141.472656 226.589844 141.875 227.300781 142.351562 C 228.015625 142.828125 228.671875 143.371094 229.28125 143.976562 C 229.886719 144.582031 230.425781 145.242188 230.902344 145.957031 C 231.378906 146.667969 231.78125 147.421875 232.109375 148.214844 C 232.4375 149.007812 232.683594 149.824219 232.851562 150.667969 C 233.019531 151.507812 233.101562 152.355469 233.101562 153.214844 L 233.101562 217.121094 C 233.101562 217.980469 233.019531 218.832031 232.851562 219.671875 C 232.683594 220.511719 232.4375 221.332031 232.109375 222.121094 C 231.78125 222.914062 231.378906 223.667969 230.902344 224.382812 C 230.425781 225.09375 229.886719 225.753906 229.28125 226.363281 C 228.671875 226.96875 228.015625 227.511719 227.300781 227.988281 C 226.589844 228.464844 225.835938 228.867188 225.042969 229.195312 C 224.253906 229.523438 223.4375 229.769531 222.597656 229.9375 C 221.753906 230.105469 220.90625 230.1875 220.050781 230.1875 L 156.195312 230.1875 C 155.339844 230.1875 154.488281 230.105469 153.648438 229.9375 C 152.808594 229.769531 151.992188 229.523438 151.199219 229.195312 C 150.40625 228.867188 149.65625 228.464844 148.941406 227.988281 C 148.230469 227.511719 147.570312 226.96875 146.964844 226.363281 C 146.359375 225.753906 145.816406 225.09375 145.339844 224.382812 C 144.863281 223.667969 144.464844 222.914062 144.136719 222.121094 C 143.808594 221.332031 143.558594 220.511719 143.390625 219.671875 C 143.226562 218.832031 143.140625 217.980469 143.140625 217.121094 L 143.140625 153.214844 C 143.140625 152.355469 143.226562 151.507812 143.390625 150.667969 C 143.558594 149.824219 143.808594 149.007812 144.136719 148.214844 C 144.464844 147.421875 144.863281 146.667969 145.339844 145.957031 C 145.816406 145.242188 146.359375 144.582031 146.964844 143.976562 C 147.570312 143.371094 148.230469 142.828125 148.941406 142.351562 C 149.65625 141.875 150.40625 141.472656 151.199219 141.144531 C 151.992188 140.816406 152.808594 140.566406 153.648438 140.402344 C 154.488281 140.234375 155.339844 140.148438 156.195312 140.148438 Z M 156.195312 140.148438 " fill-opacity="1" fill-rule="evenodd"/><path fill="#ff8228" d="M 233.101562 162.585938 L 233.101562 217.121094 C 233.101562 224.308594 227.230469 230.1875 220.050781 230.1875 L 156.195312 230.1875 C 149.015625 230.1875 143.140625 224.308594 143.140625 217.121094 L 143.140625 162.585938 C 143.140625 155.402344 149.015625 149.523438 156.195312 149.523438 L 220.050781 149.523438 C 227.230469 149.523438 233.101562 155.402344 233.101562 162.585938 Z M 233.101562 162.585938 " fill-opacity="1" fill-rule="evenodd"/></svg>