<svg xmlns="http://www.w3.org/2000/svg" xmlns:xlink="http://www.w3.org/1999/xlink" width="500" zoomAndPan="magnify" viewBox="0 0 375 374.999991" height="500" preserveAspectRatio="xMidYMid meet" version="1.0"><defs><clipPath id="d8cae8f6ce"><path d="M 42.058594 46 L 333.058594 46 L 333.058594 337.796875 L 42.058594 337.796875 Z M 42.058594 46 " clip-rule="nonzero"/></clipPath><clipPath id="4d6c75b92b"><path d="M 42.058594 40.046875 L 333.058594 40.046875 L 333.058594 332 L 42.058594 332 Z M 42.058594 40.046875 " clip-rule="nonzero"/></clipPath></defs><g clip-path="url(#d8cae8f6ce)"><path fill="#c46019" d="M 333.027344 192.238281 C 333.027344 194.617188 332.96875 197 332.851562 199.378906 C 332.734375 201.757812 332.558594 204.132812 332.324219 206.503906 C 332.09375 208.875 331.800781 211.238281 331.453125 213.59375 C 331.101562 215.949219 330.695312 218.296875 330.230469 220.632812 C 329.765625 222.96875 329.246094 225.292969 328.667969 227.605469 C 328.089844 229.914062 327.453125 232.210938 326.761719 234.492188 C 326.070312 236.769531 325.324219 239.03125 324.523438 241.273438 C 323.722656 243.515625 322.863281 245.738281 321.953125 247.941406 C 321.042969 250.140625 320.078125 252.316406 319.058594 254.472656 C 318.042969 256.625 316.972656 258.75 315.851562 260.851562 C 314.726562 262.953125 313.554688 265.027344 312.332031 267.070312 C 311.105469 269.113281 309.832031 271.125 308.511719 273.105469 C 307.1875 275.085938 305.816406 277.03125 304.398438 278.945312 C 302.980469 280.859375 301.515625 282.738281 300.007812 284.578125 C 298.496094 286.421875 296.941406 288.222656 295.34375 289.988281 C 293.746094 291.753906 292.101562 293.476562 290.417969 295.164062 C 288.734375 296.847656 287.011719 298.488281 285.25 300.089844 C 283.484375 301.6875 281.683594 303.246094 279.84375 304.753906 C 278 306.265625 276.125 307.730469 274.214844 309.152344 C 272.300781 310.570312 270.355469 311.941406 268.375 313.265625 C 266.394531 314.589844 264.386719 315.863281 262.34375 317.085938 C 260.300781 318.3125 258.230469 319.484375 256.132812 320.609375 C 254.03125 321.730469 251.90625 322.800781 249.753906 323.820312 C 247.601562 324.839844 245.425781 325.804688 243.226562 326.714844 C 241.027344 327.628906 238.804688 328.484375 236.566406 329.285156 C 234.324219 330.089844 232.0625 330.835938 229.785156 331.527344 C 227.507812 332.21875 225.214844 332.855469 222.902344 333.433594 C 220.59375 334.011719 218.273438 334.535156 215.9375 335 C 213.601562 335.464844 211.257812 335.871094 208.902344 336.21875 C 206.546875 336.570312 204.183594 336.863281 201.816406 337.09375 C 199.445312 337.328125 197.074219 337.503906 194.695312 337.621094 C 192.316406 337.738281 189.9375 337.796875 187.558594 337.796875 C 185.175781 337.796875 182.796875 337.738281 180.417969 337.621094 C 178.042969 337.503906 175.667969 337.328125 173.300781 337.09375 C 170.929688 336.863281 168.566406 336.570312 166.214844 336.21875 C 163.859375 335.871094 161.511719 335.464844 159.179688 335 C 156.84375 334.535156 154.519531 334.011719 152.210938 333.433594 C 149.902344 332.855469 147.609375 332.21875 145.332031 331.527344 C 143.050781 330.835938 140.792969 330.089844 138.550781 329.289062 C 136.308594 328.484375 134.089844 327.628906 131.890625 326.714844 C 129.691406 325.804688 127.515625 324.839844 125.363281 323.820312 C 123.210938 322.800781 121.082031 321.730469 118.984375 320.609375 C 116.882812 319.484375 114.8125 318.3125 112.773438 317.085938 C 110.730469 315.863281 108.71875 314.589844 106.738281 313.265625 C 104.761719 311.941406 102.8125 310.570312 100.902344 309.152344 C 98.988281 307.730469 97.113281 306.265625 95.273438 304.753906 C 93.433594 303.246094 91.628906 301.6875 89.867188 300.089844 C 88.101562 298.488281 86.378906 296.847656 84.695312 295.164062 C 83.011719 293.476562 81.371094 291.753906 79.773438 289.988281 C 78.171875 288.222656 76.617188 286.421875 75.109375 284.578125 C 73.597656 282.738281 72.132812 280.859375 70.714844 278.945312 C 69.296875 277.03125 67.925781 275.085938 66.605469 273.105469 C 65.28125 271.125 64.007812 269.113281 62.785156 267.070312 C 61.5625 265.027344 60.386719 262.953125 59.265625 260.851562 C 58.144531 258.75 57.074219 256.625 56.054688 254.472656 C 55.039062 252.316406 54.074219 250.140625 53.160156 247.941406 C 52.25 245.738281 51.394531 243.515625 50.59375 241.273438 C 49.789062 239.03125 49.042969 236.769531 48.351562 234.492188 C 47.660156 232.210938 47.027344 229.914062 46.449219 227.605469 C 45.871094 225.292969 45.347656 222.96875 44.882812 220.632812 C 44.417969 218.296875 44.011719 215.949219 43.664062 213.59375 C 43.3125 211.238281 43.023438 208.875 42.789062 206.503906 C 42.554688 204.132812 42.378906 201.757812 42.265625 199.378906 C 42.148438 197 42.089844 194.617188 42.089844 192.238281 C 42.089844 189.855469 42.148438 187.472656 42.265625 185.09375 C 42.378906 182.714844 42.554688 180.339844 42.789062 177.96875 C 43.023438 175.597656 43.3125 173.234375 43.664062 170.878906 C 44.011719 168.523438 44.417969 166.175781 44.882812 163.839844 C 45.347656 161.503906 45.871094 159.179688 46.449219 156.867188 C 47.027344 154.558594 47.660156 152.261719 48.351562 149.984375 C 49.042969 147.703125 49.789062 145.441406 50.59375 143.199219 C 51.394531 140.957031 52.25 138.734375 53.160156 136.535156 C 54.074219 134.332031 55.039062 132.15625 56.054688 130.003906 C 57.074219 127.847656 58.144531 125.722656 59.265625 123.621094 C 60.386719 121.519531 61.5625 119.449219 62.785156 117.402344 C 64.007812 115.359375 65.28125 113.347656 66.605469 111.367188 C 67.925781 109.386719 69.296875 107.441406 70.714844 105.527344 C 72.132812 103.613281 73.597656 101.734375 75.109375 99.894531 C 76.617188 98.054688 78.171875 96.25 79.773438 94.484375 C 81.371094 92.71875 83.011719 90.996094 84.695312 89.3125 C 86.378906 87.625 88.101562 85.984375 89.867188 84.382812 C 91.628906 82.785156 93.433594 81.230469 95.273438 79.71875 C 97.113281 78.207031 98.988281 76.742188 100.902344 75.324219 C 102.8125 73.902344 104.761719 72.53125 106.738281 71.207031 C 108.71875 69.886719 110.730469 68.609375 112.773438 67.386719 C 114.8125 66.160156 116.882812 64.988281 118.984375 63.863281 C 121.082031 62.742188 123.210938 61.671875 125.363281 60.652344 C 127.515625 59.632812 129.691406 58.667969 131.890625 57.757812 C 134.089844 56.847656 136.308594 55.988281 138.550781 55.1875 C 140.792969 54.382812 143.050781 53.636719 145.332031 52.945312 C 147.609375 52.253906 149.902344 51.617188 152.210938 51.039062 C 154.519531 50.460938 156.84375 49.9375 159.179688 49.472656 C 161.511719 49.007812 163.859375 48.601562 166.214844 48.253906 C 168.566406 47.902344 170.929688 47.613281 173.300781 47.378906 C 175.667969 47.144531 178.042969 46.96875 180.417969 46.851562 C 182.796875 46.734375 185.175781 46.675781 187.558594 46.675781 C 189.9375 46.675781 192.316406 46.734375 194.695312 46.851562 C 197.074219 46.96875 199.445312 47.144531 201.816406 47.378906 C 204.183594 47.613281 206.546875 47.902344 208.902344 48.253906 C 211.257812 48.601562 213.601562 49.007812 215.9375 49.472656 C 218.273438 49.9375 220.59375 50.460938 222.902344 51.039062 C 225.214844 51.617188 227.507812 52.253906 229.785156 52.945312 C 232.0625 53.636719 234.324219 54.382812 236.566406 55.1875 C 238.804688 55.988281 241.027344 56.847656 243.226562 57.757812 C 245.425781 58.667969 247.601562 59.632812 249.753906 60.652344 C 251.90625 61.671875 254.03125 62.742188 256.132812 63.863281 C 258.230469 64.988281 260.300781 66.160156 262.34375 67.386719 C 264.386719 68.609375 266.394531 69.886719 268.375 71.207031 C 270.355469 72.53125 272.300781 73.902344 274.214844 75.324219 C 276.125 76.742188 278 78.207031 279.84375 79.71875 C 281.683594 81.230469 283.484375 82.785156 285.25 84.382812 C 287.011719 85.984375 288.734375 87.625 290.417969 89.3125 C 292.101562 90.996094 293.746094 92.71875 295.34375 94.484375 C 296.941406 96.25 298.496094 98.054688 300.007812 99.894531 C 301.515625 101.734375 302.980469 103.613281 304.398438 105.527344 C 305.816406 107.441406 307.1875 109.386719 308.511719 111.367188 C 309.832031 113.347656 311.105469 115.359375 312.332031 117.402344 C 313.554688 119.449219 314.726562 121.519531 315.851562 123.621094 C 316.972656 125.722656 318.042969 127.847656 319.058594 130.003906 C 320.078125 132.15625 321.042969 134.332031 321.953125 136.535156 C 322.863281 138.734375 323.722656 140.957031 324.523438 143.199219 C 325.324219 145.441406 326.070312 147.703125 326.761719 149.984375 C 327.453125 152.261719 328.089844 154.558594 328.667969 156.867188 C 329.246094 159.179688 329.765625 161.503906 330.230469 163.839844 C 330.695312 166.175781 331.101562 168.523438 331.453125 170.878906 C 331.800781 173.234375 332.09375 175.597656 332.324219 177.96875 C 332.558594 180.339844 332.734375 182.714844 332.851562 185.09375 C 332.96875 187.472656 333.027344 189.855469 333.027344 192.238281 Z M 333.027344 192.238281 " fill-opacity="1" fill-rule="nonzero"/></g><g clip-path="url(#4d6c75b92b)"><path fill="#ff8228" d="M 333.027344 185.605469 C 333.027344 187.988281 332.96875 190.367188 332.851562 192.746094 C 332.734375 195.128906 332.558594 197.503906 332.324219 199.875 C 332.09375 202.242188 331.800781 204.605469 331.453125 206.964844 C 331.101562 209.320312 330.695312 211.667969 330.230469 214.003906 C 329.765625 216.339844 329.246094 218.664062 328.667969 220.972656 C 328.089844 223.285156 327.453125 225.578125 326.761719 227.859375 C 326.070312 230.140625 325.324219 232.398438 324.523438 234.644531 C 323.722656 236.886719 322.863281 239.109375 321.953125 241.308594 C 321.042969 243.507812 320.078125 245.6875 319.058594 247.839844 C 318.042969 249.992188 316.972656 252.121094 315.851562 254.222656 C 314.726562 256.324219 313.554688 258.394531 312.332031 260.4375 C 311.105469 262.480469 309.832031 264.492188 308.511719 266.472656 C 307.1875 268.453125 305.816406 270.402344 304.398438 272.316406 C 302.980469 274.230469 301.515625 276.105469 300.007812 277.949219 C 298.496094 279.789062 296.941406 281.59375 295.34375 283.355469 C 293.746094 285.121094 292.101562 286.847656 290.417969 288.53125 C 288.734375 290.214844 287.011719 291.859375 285.25 293.457031 C 283.484375 295.058594 281.683594 296.613281 279.84375 298.125 C 278 299.636719 276.125 301.101562 274.214844 302.519531 C 272.300781 303.9375 270.355469 305.308594 268.375 306.632812 C 266.394531 307.957031 264.386719 309.230469 262.34375 310.457031 C 260.300781 311.679688 258.230469 312.855469 256.132812 313.976562 C 254.03125 315.101562 251.90625 316.171875 249.753906 317.191406 C 247.601562 318.207031 245.425781 319.171875 243.226562 320.085938 C 241.027344 320.996094 238.804688 321.855469 236.566406 322.65625 C 234.324219 323.457031 232.0625 324.207031 229.785156 324.898438 C 227.507812 325.589844 225.214844 326.222656 222.902344 326.804688 C 220.59375 327.382812 218.273438 327.902344 215.9375 328.367188 C 213.601562 328.832031 211.257812 329.238281 208.902344 329.589844 C 206.546875 329.9375 204.183594 330.230469 201.816406 330.464844 C 199.445312 330.699219 197.074219 330.871094 194.695312 330.988281 C 192.316406 331.105469 189.9375 331.164062 187.558594 331.164062 C 185.175781 331.164062 182.796875 331.105469 180.417969 330.988281 C 178.042969 330.871094 175.667969 330.699219 173.300781 330.464844 C 170.929688 330.230469 168.566406 329.9375 166.214844 329.589844 C 163.859375 329.238281 161.511719 328.832031 159.179688 328.367188 C 156.84375 327.902344 154.519531 327.382812 152.210938 326.804688 C 149.902344 326.222656 147.609375 325.589844 145.332031 324.898438 C 143.050781 324.207031 140.792969 323.457031 138.550781 322.65625 C 136.308594 321.855469 134.089844 320.996094 131.890625 320.085938 C 129.691406 319.171875 127.515625 318.207031 125.363281 317.191406 C 123.210938 316.171875 121.082031 315.101562 118.984375 313.976562 C 116.882812 312.855469 114.8125 311.679688 112.773438 310.457031 C 110.730469 309.230469 108.71875 307.957031 106.738281 306.632812 C 104.761719 305.308594 102.8125 303.9375 100.902344 302.519531 C 98.988281 301.101562 97.113281 299.636719 95.273438 298.125 C 93.433594 296.613281 91.628906 295.058594 89.867188 293.457031 C 88.101562 291.859375 86.378906 290.214844 84.695312 288.53125 C 83.011719 286.847656 81.371094 285.121094 79.773438 283.355469 C 78.171875 281.59375 76.617188 279.789062 75.109375 277.949219 C 73.597656 276.105469 72.132812 274.230469 70.714844 272.316406 C 69.296875 270.402344 67.925781 268.453125 66.605469 266.472656 C 65.28125 264.492188 64.007812 262.480469 62.785156 260.4375 C 61.5625 258.394531 60.386719 256.324219 59.265625 254.222656 C 58.144531 252.121094 57.074219 249.992188 56.054688 247.839844 C 55.039062 245.6875 54.074219 243.507812 53.160156 241.308594 C 52.25 239.109375 51.394531 236.886719 50.59375 234.644531 C 49.789062 232.398438 49.042969 230.140625 48.351562 227.859375 C 47.660156 225.578125 47.027344 223.285156 46.449219 220.972656 C 45.871094 218.664062 45.347656 216.339844 44.882812 214.003906 C 44.417969 211.667969 44.011719 209.320312 43.664062 206.964844 C 43.3125 204.605469 43.023438 202.242188 42.789062 199.875 C 42.554688 197.503906 42.378906 195.128906 42.265625 192.746094 C 42.148438 190.367188 42.089844 187.988281 42.089844 185.605469 C 42.089844 183.222656 42.148438 180.84375 42.265625 178.464844 C 42.378906 176.085938 42.554688 173.710938 42.789062 171.339844 C 43.023438 168.96875 43.3125 166.605469 43.664062 164.246094 C 44.011719 161.890625 44.417969 159.546875 44.882812 157.207031 C 45.347656 154.871094 45.871094 152.546875 46.449219 150.238281 C 47.027344 147.925781 47.660156 145.632812 48.351562 143.351562 C 49.042969 141.074219 49.789062 138.8125 50.59375 136.566406 C 51.394531 134.324219 52.25 132.101562 53.160156 129.902344 C 54.074219 127.703125 55.039062 125.523438 56.054688 123.371094 C 57.074219 121.21875 58.144531 119.089844 59.265625 116.988281 C 60.386719 114.886719 61.5625 112.816406 62.785156 110.773438 C 64.007812 108.730469 65.28125 106.71875 66.605469 104.738281 C 67.925781 102.757812 69.296875 100.808594 70.714844 98.894531 C 72.132812 96.984375 73.597656 95.105469 75.109375 93.265625 C 76.617188 91.421875 78.171875 89.621094 79.773438 87.855469 C 81.371094 86.089844 83.011719 84.363281 84.695312 82.679688 C 86.378906 80.996094 88.101562 79.351562 89.867188 77.753906 C 91.628906 76.152344 93.433594 74.597656 95.273438 73.085938 C 97.113281 71.574219 98.988281 70.109375 100.902344 68.691406 C 102.8125 67.273438 104.761719 65.902344 106.738281 64.578125 C 108.71875 63.253906 110.730469 61.980469 112.773438 60.753906 C 114.8125 59.53125 116.882812 58.355469 118.984375 57.234375 C 121.082031 56.109375 123.210938 55.039062 125.363281 54.023438 C 127.515625 53.003906 129.691406 52.039062 131.890625 51.125 C 134.089844 50.214844 136.308594 49.359375 138.550781 48.554688 C 140.792969 47.753906 143.050781 47.003906 145.332031 46.3125 C 147.609375 45.621094 149.902344 44.988281 152.210938 44.410156 C 154.519531 43.828125 156.84375 43.308594 159.179688 42.84375 C 161.511719 42.378906 163.859375 41.972656 166.214844 41.621094 C 168.566406 41.273438 170.929688 40.980469 173.300781 40.746094 C 175.667969 40.515625 178.042969 40.339844 180.417969 40.222656 C 182.796875 40.105469 185.175781 40.046875 187.558594 40.046875 C 189.9375 40.046875 192.316406 40.105469 194.695312 40.222656 C 197.074219 40.339844 199.445312 40.515625 201.816406 40.746094 C 204.183594 40.980469 206.546875 41.273438 208.902344 41.621094 C 211.257812 41.972656 213.601562 42.378906 215.9375 42.84375 C 218.273438 43.308594 220.59375 43.828125 222.902344 44.410156 C 225.214844 44.988281 227.507812 45.621094 229.785156 46.3125 C 232.0625 47.003906 234.324219 47.753906 236.566406 48.554688 C 238.804688 49.359375 241.027344 50.214844 243.226562 51.125 C 245.425781 52.039062 247.601562 53.003906 249.753906 54.023438 C 251.90625 55.039062 254.03125 56.109375 256.132812 57.234375 C 258.230469 58.355469 260.300781 59.53125 262.34375 60.753906 C 264.386719 61.980469 266.394531 63.253906 268.375 64.578125 C 270.355469 65.902344 272.300781 67.273438 274.214844 68.691406 C 276.125 70.109375 278 71.574219 279.84375 73.085938 C 281.683594 74.597656 283.484375 76.152344 285.25 77.753906 C 287.011719 79.351562 288.734375 80.996094 290.417969 82.679688 C 292.101562 84.363281 293.746094 86.089844 295.34375 87.855469 C 296.941406 89.621094 298.496094 91.421875 300.007812 93.265625 C 301.515625 95.105469 302.980469 96.984375 304.398438 98.894531 C 305.816406 100.808594 307.1875 102.757812 308.511719 104.738281 C 309.832031 106.71875 311.105469 108.730469 312.332031 110.773438 C 313.554688 112.816406 314.726562 114.886719 315.851562 116.988281 C 316.972656 119.089844 318.042969 121.21875 319.058594 123.371094 C 320.078125 125.523438 321.042969 127.703125 321.953125 129.902344 C 322.863281 132.101562 323.722656 134.324219 324.523438 136.566406 C 325.324219 138.8125 326.070312 141.074219 326.761719 143.351562 C 327.453125 145.632812 328.089844 147.925781 328.667969 150.238281 C 329.246094 152.546875 329.765625 154.871094 330.230469 157.207031 C 330.695312 159.546875 331.101562 161.890625 331.453125 164.246094 C 331.800781 166.605469 332.09375 168.96875 332.324219 171.339844 C 332.558594 173.710938 332.734375 176.085938 332.851562 178.464844 C 332.96875 180.84375 333.027344 183.222656 333.027344 185.605469 Z M 333.027344 185.605469 " fill-opacity="1" fill-rule="nonzero"/></g><path fill="#c46019" d="M 309.453125 186.285156 C 309.453125 188.265625 309.402344 190.246094 309.308594 192.222656 C 309.210938 194.199219 309.0625 196.175781 308.871094 198.144531 C 308.675781 200.117188 308.433594 202.082031 308.144531 204.042969 C 307.851562 206 307.515625 207.953125 307.128906 209.894531 C 306.742188 211.835938 306.308594 213.769531 305.828125 215.691406 C 305.347656 217.613281 304.820312 219.519531 304.246094 221.414062 C 303.671875 223.308594 303.050781 225.191406 302.382812 227.054688 C 301.714844 228.921875 301.003906 230.765625 300.246094 232.597656 C 299.488281 234.425781 298.6875 236.238281 297.839844 238.027344 C 296.992188 239.816406 296.105469 241.585938 295.171875 243.332031 C 294.238281 245.082031 293.261719 246.804688 292.246094 248.5 C 291.226562 250.199219 290.167969 251.875 289.070312 253.519531 C 287.96875 255.167969 286.832031 256.785156 285.652344 258.375 C 284.472656 259.96875 283.253906 261.527344 282 263.058594 C 280.742188 264.589844 279.449219 266.089844 278.121094 267.558594 C 276.792969 269.023438 275.425781 270.460938 274.027344 271.859375 C 272.628906 273.261719 271.195312 274.625 269.730469 275.957031 C 268.261719 277.285156 266.761719 278.578125 265.234375 279.835938 C 263.703125 281.09375 262.144531 282.308594 260.554688 283.488281 C 258.964844 284.667969 257.347656 285.808594 255.699219 286.910156 C 254.054688 288.011719 252.382812 289.070312 250.683594 290.089844 C 248.988281 291.105469 247.265625 292.082031 245.519531 293.015625 C 243.773438 293.949219 242.007812 294.839844 240.21875 295.6875 C 238.425781 296.535156 236.617188 297.335938 234.789062 298.09375 C 232.960938 298.851562 231.113281 299.566406 229.25 300.230469 C 227.386719 300.898438 225.507812 301.519531 223.613281 302.09375 C 221.71875 302.671875 219.8125 303.199219 217.894531 303.679688 C 215.972656 304.160156 214.042969 304.59375 212.101562 304.980469 C 210.160156 305.367188 208.210938 305.707031 206.253906 305.996094 C 204.292969 306.285156 202.332031 306.53125 200.359375 306.722656 C 198.390625 306.917969 196.417969 307.0625 194.441406 307.160156 C 192.464844 307.257812 190.484375 307.304688 188.503906 307.304688 C 186.527344 307.304688 184.546875 307.257812 182.570312 307.160156 C 180.59375 307.0625 178.621094 306.917969 176.652344 306.722656 C 174.679688 306.53125 172.71875 306.285156 170.757812 305.996094 C 168.800781 305.707031 166.851562 305.367188 164.910156 304.980469 C 162.96875 304.59375 161.039062 304.160156 159.117188 303.679688 C 157.199219 303.199219 155.289062 302.671875 153.394531 302.09375 C 151.503906 301.519531 149.625 300.898438 147.757812 300.230469 C 145.894531 299.566406 144.050781 298.851562 142.222656 298.09375 C 140.390625 297.335938 138.582031 296.535156 136.792969 295.6875 C 135.003906 294.839844 133.238281 293.949219 131.492188 293.015625 C 129.746094 292.082031 128.023438 291.105469 126.328125 290.089844 C 124.628906 289.070312 122.957031 288.011719 121.3125 286.910156 C 119.664062 285.808594 118.046875 284.667969 116.457031 283.488281 C 114.867188 282.308594 113.308594 281.09375 111.777344 279.835938 C 110.246094 278.578125 108.75 277.285156 107.28125 275.957031 C 105.816406 274.625 104.382812 273.261719 102.984375 271.859375 C 101.582031 270.460938 100.21875 269.023438 98.890625 267.558594 C 97.558594 266.089844 96.269531 264.589844 95.011719 263.058594 C 93.757812 261.527344 92.539062 259.96875 91.359375 258.375 C 90.179688 256.785156 89.042969 255.167969 87.941406 253.519531 C 86.84375 251.875 85.785156 250.199219 84.765625 248.5 C 83.75 246.804688 82.773438 245.082031 81.839844 243.332031 C 80.90625 241.585938 80.015625 239.816406 79.171875 238.027344 C 78.324219 236.238281 77.523438 234.425781 76.765625 232.597656 C 76.007812 230.765625 75.296875 228.921875 74.628906 227.054688 C 73.960938 225.191406 73.339844 223.308594 72.765625 221.414062 C 72.191406 219.519531 71.664062 217.613281 71.183594 215.691406 C 70.703125 213.769531 70.269531 211.835938 69.882812 209.894531 C 69.496094 207.953125 69.15625 206 68.867188 204.042969 C 68.578125 202.082031 68.335938 200.117188 68.140625 198.144531 C 67.945312 196.175781 67.800781 194.199219 67.703125 192.222656 C 67.605469 190.246094 67.558594 188.265625 67.558594 186.285156 C 67.558594 184.304688 67.605469 182.324219 67.703125 180.347656 C 67.800781 178.367188 67.945312 176.394531 68.140625 174.421875 C 68.335938 172.449219 68.578125 170.484375 68.867188 168.527344 C 69.15625 166.566406 69.496094 164.617188 69.882812 162.675781 C 70.269531 160.730469 70.703125 158.800781 71.183594 156.878906 C 71.664062 154.957031 72.191406 153.046875 72.765625 151.152344 C 73.339844 149.257812 73.960938 147.378906 74.628906 145.511719 C 75.296875 143.648438 76.007812 141.800781 76.765625 139.972656 C 77.523438 138.140625 78.324219 136.332031 79.171875 134.539062 C 80.015625 132.75 80.90625 130.980469 81.839844 129.234375 C 82.773438 127.488281 83.75 125.765625 84.765625 124.066406 C 85.785156 122.367188 86.84375 120.695312 87.941406 119.046875 C 89.042969 117.402344 90.179688 115.78125 91.359375 114.191406 C 92.539062 112.601562 93.757812 111.039062 95.011719 109.507812 C 96.269531 107.976562 97.558594 106.476562 98.890625 105.011719 C 100.21875 103.542969 101.582031 102.109375 102.984375 100.707031 C 104.382812 99.308594 105.816406 97.941406 107.28125 96.613281 C 108.75 95.28125 110.246094 93.988281 111.777344 92.734375 C 113.308594 91.476562 114.867188 90.257812 116.457031 89.078125 C 118.046875 87.898438 119.664062 86.757812 121.3125 85.65625 C 122.957031 84.558594 124.628906 83.5 126.328125 82.480469 C 128.023438 81.460938 129.746094 80.484375 131.492188 79.550781 C 133.238281 78.617188 135.003906 77.726562 136.792969 76.882812 C 138.582031 76.035156 140.390625 75.230469 142.222656 74.472656 C 144.050781 73.714844 145.894531 73.003906 147.757812 72.335938 C 149.625 71.667969 151.503906 71.046875 153.394531 70.472656 C 155.289062 69.898438 157.199219 69.371094 159.117188 68.890625 C 161.039062 68.40625 162.96875 67.972656 164.910156 67.585938 C 166.851562 67.199219 168.800781 66.863281 170.757812 66.570312 C 172.71875 66.28125 174.679688 66.039062 176.652344 65.84375 C 178.621094 65.652344 180.59375 65.503906 182.570312 65.40625 C 184.546875 65.3125 186.527344 65.261719 188.503906 65.261719 C 190.484375 65.261719 192.464844 65.3125 194.441406 65.40625 C 196.417969 65.503906 198.390625 65.652344 200.359375 65.84375 C 202.332031 66.039062 204.292969 66.28125 206.253906 66.570312 C 208.210938 66.863281 210.160156 67.199219 212.101562 67.585938 C 214.042969 67.972656 215.972656 68.40625 217.894531 68.890625 C 219.8125 69.371094 221.71875 69.898438 223.613281 70.472656 C 225.507812 71.046875 227.386719 71.667969 229.25 72.335938 C 231.113281 73.003906 232.960938 73.714844 234.789062 74.472656 C 236.617188 75.230469 238.425781 76.035156 240.21875 76.882812 C 242.007812 77.726562 243.773438 78.617188 245.519531 79.550781 C 247.265625 80.484375 248.988281 81.460938 250.683594 82.480469 C 252.382812 83.5 254.054688 84.558594 255.699219 85.65625 C 257.347656 86.757812 258.964844 87.898438 260.554688 89.078125 C 262.144531 90.257812 263.703125 91.476562 265.234375 92.734375 C 266.761719 93.988281 268.261719 95.28125 269.730469 96.613281 C 271.195312 97.941406 272.628906 99.308594 274.027344 100.707031 C 275.425781 102.109375 276.792969 103.542969 278.121094 105.011719 C 279.449219 106.476562 280.742188 107.976562 282 109.507812 C 283.253906 111.039062 284.472656 112.601562 285.652344 114.191406 C 286.832031 115.78125 287.96875 117.402344 289.070312 119.046875 C 290.167969 120.695312 291.226562 122.367188 292.246094 124.066406 C 293.261719 125.765625 294.238281 127.488281 295.171875 129.234375 C 296.105469 130.980469 296.992188 132.75 297.839844 134.539062 C 298.6875 136.332031 299.488281 138.140625 300.246094 139.972656 C 301.003906 141.800781 301.714844 143.648438 302.382812 145.511719 C 303.050781 147.378906 303.671875 149.257812 304.246094 151.152344 C 304.820312 153.046875 305.347656 154.957031 305.828125 156.878906 C 306.308594 158.800781 306.742188 160.730469 307.128906 162.675781 C 307.515625 164.617188 307.851562 166.566406 308.144531 168.527344 C 308.433594 170.484375 308.675781 172.449219 308.871094 174.421875 C 309.0625 176.394531 309.210938 178.367188 309.308594 180.347656 C 309.402344 182.324219 309.453125 184.304688 309.453125 186.285156 Z M 309.453125 186.285156 " fill-opacity="1" fill-rule="nonzero"/><path fill="#ffffff" d="M 309.453125 179.898438 C 309.453125 181.878906 309.402344 183.859375 309.308594 185.835938 C 309.210938 187.816406 309.0625 189.789062 308.871094 191.761719 C 308.675781 193.734375 308.433594 195.699219 308.144531 197.65625 C 307.851562 199.617188 307.515625 201.566406 307.128906 203.507812 C 306.742188 205.453125 306.308594 207.382812 305.828125 209.304688 C 305.347656 211.226562 304.820312 213.132812 304.246094 215.03125 C 303.671875 216.925781 303.050781 218.804688 302.382812 220.671875 C 301.714844 222.535156 301.003906 224.382812 300.246094 226.210938 C 299.488281 228.042969 298.6875 229.851562 297.839844 231.644531 C 296.992188 233.433594 296.105469 235.203125 295.171875 236.949219 C 294.238281 238.695312 293.261719 240.417969 292.246094 242.117188 C 291.226562 243.816406 290.167969 245.488281 289.070312 247.136719 C 287.96875 248.78125 286.832031 250.402344 285.652344 251.992188 C 284.472656 253.582031 283.253906 255.144531 282 256.675781 C 280.742188 258.207031 279.449219 259.707031 278.121094 261.171875 C 276.792969 262.640625 275.425781 264.074219 274.027344 265.476562 C 272.628906 266.875 271.195312 268.242188 269.730469 269.570312 C 268.261719 270.902344 266.761719 272.195312 265.234375 273.449219 C 263.703125 274.707031 262.144531 275.925781 260.554688 277.105469 C 258.964844 278.285156 257.347656 279.425781 255.699219 280.523438 C 254.054688 281.625 252.382812 282.683594 250.683594 283.703125 C 248.988281 284.722656 247.265625 285.699219 245.519531 286.632812 C 243.773438 287.566406 242.007812 288.453125 240.21875 289.300781 C 238.425781 290.148438 236.617188 290.949219 234.789062 291.710938 C 232.960938 292.46875 231.113281 293.179688 229.25 293.847656 C 227.386719 294.515625 225.507812 295.136719 223.613281 295.710938 C 221.71875 296.285156 219.8125 296.8125 217.894531 297.292969 C 215.972656 297.777344 214.042969 298.210938 212.101562 298.597656 C 210.160156 298.980469 208.210938 299.320312 206.253906 299.613281 C 204.292969 299.902344 202.332031 300.144531 200.359375 300.339844 C 198.390625 300.53125 196.417969 300.679688 194.441406 300.777344 C 192.464844 300.871094 190.484375 300.921875 188.503906 300.921875 C 186.527344 300.921875 184.546875 300.871094 182.570312 300.777344 C 180.59375 300.679688 178.621094 300.53125 176.652344 300.339844 C 174.679688 300.144531 172.71875 299.902344 170.757812 299.613281 C 168.800781 299.320312 166.851562 298.980469 164.910156 298.597656 C 162.96875 298.210938 161.039062 297.777344 159.117188 297.292969 C 157.199219 296.8125 155.289062 296.285156 153.394531 295.710938 C 151.503906 295.136719 149.625 294.515625 147.757812 293.847656 C 145.894531 293.179688 144.050781 292.46875 142.222656 291.710938 C 140.390625 290.949219 138.582031 290.148438 136.792969 289.300781 C 135.003906 288.453125 133.238281 287.566406 131.492188 286.632812 C 129.746094 285.699219 128.023438 284.722656 126.328125 283.703125 C 124.628906 282.683594 122.957031 281.625 121.3125 280.523438 C 119.664062 279.425781 118.046875 278.285156 116.457031 277.105469 C 114.867188 275.925781 113.308594 274.707031 111.777344 273.449219 C 110.246094 272.195312 108.75 270.902344 107.28125 269.570312 C 105.816406 268.242188 104.382812 266.875 102.984375 265.476562 C 101.582031 264.074219 100.21875 262.640625 98.890625 261.171875 C 97.558594 259.707031 96.269531 258.207031 95.011719 256.675781 C 93.757812 255.144531 92.539062 253.582031 91.359375 251.992188 C 90.179688 250.402344 89.042969 248.78125 87.941406 247.136719 C 86.84375 245.488281 85.785156 243.816406 84.765625 242.117188 C 83.75 240.417969 82.773438 238.695312 81.839844 236.949219 C 80.90625 235.203125 80.015625 233.433594 79.171875 231.644531 C 78.324219 229.851562 77.523438 228.042969 76.765625 226.210938 C 76.007812 224.382812 75.296875 222.535156 74.628906 220.671875 C 73.960938 218.804688 73.339844 216.925781 72.765625 215.03125 C 72.191406 213.132812 71.664062 211.226562 71.183594 209.304688 C 70.703125 207.382812 70.269531 205.453125 69.882812 203.507812 C 69.496094 201.566406 69.15625 199.617188 68.867188 197.65625 C 68.578125 195.699219 68.335938 193.734375 68.140625 191.761719 C 67.945312 189.789062 67.800781 187.816406 67.703125 185.835938 C 67.605469 183.859375 67.558594 181.878906 67.558594 179.898438 C 67.558594 177.917969 67.605469 175.9375 67.703125 173.960938 C 67.800781 171.984375 67.945312 170.007812 68.140625 168.035156 C 68.335938 166.066406 68.578125 164.101562 68.867188 162.140625 C 69.15625 160.183594 69.496094 158.230469 69.882812 156.289062 C 70.269531 154.347656 70.703125 152.414062 71.183594 150.492188 C 71.664062 148.570312 72.191406 146.664062 72.765625 144.769531 C 73.339844 142.871094 73.960938 140.992188 74.628906 139.128906 C 75.296875 137.261719 76.007812 135.414062 76.765625 133.585938 C 77.523438 131.757812 78.324219 129.945312 79.171875 128.15625 C 80.015625 126.363281 80.90625 124.597656 81.839844 122.851562 C 82.773438 121.101562 83.75 119.378906 84.765625 117.679688 C 85.785156 115.984375 86.84375 114.308594 87.941406 112.664062 C 89.042969 111.015625 90.179688 109.398438 91.359375 107.804688 C 92.539062 106.214844 93.757812 104.65625 95.011719 103.125 C 96.269531 101.59375 97.558594 100.09375 98.890625 98.625 C 100.21875 97.15625 101.582031 95.722656 102.984375 94.324219 C 104.382812 92.921875 105.816406 91.558594 107.28125 90.226562 C 108.75 88.898438 110.246094 87.605469 111.777344 86.347656 C 113.308594 85.089844 114.867188 83.875 116.457031 82.691406 C 118.046875 81.511719 119.664062 80.375 121.3125 79.273438 C 122.957031 78.171875 124.628906 77.113281 126.328125 76.09375 C 128.023438 75.078125 129.746094 74.101562 131.492188 73.167969 C 133.238281 72.234375 135.003906 71.34375 136.792969 70.496094 C 138.582031 69.648438 140.390625 68.847656 142.222656 68.089844 C 144.050781 67.332031 145.894531 66.617188 147.757812 65.953125 C 149.625 65.285156 151.503906 64.664062 153.394531 64.089844 C 155.289062 63.511719 157.199219 62.984375 159.117188 62.503906 C 161.039062 62.023438 162.96875 61.589844 164.910156 61.203125 C 166.851562 60.816406 168.800781 60.476562 170.757812 60.1875 C 172.71875 59.894531 174.679688 59.652344 176.652344 59.460938 C 178.621094 59.265625 180.59375 59.121094 182.570312 59.023438 C 184.546875 58.925781 186.527344 58.878906 188.503906 58.878906 C 190.484375 58.878906 192.464844 58.925781 194.441406 59.023438 C 196.417969 59.121094 198.390625 59.265625 200.359375 59.460938 C 202.332031 59.652344 204.292969 59.894531 206.253906 60.1875 C 208.210938 60.476562 210.160156 60.816406 212.101562 61.203125 C 214.042969 61.589844 215.972656 62.023438 217.894531 62.503906 C 219.8125 62.984375 221.71875 63.511719 223.613281 64.089844 C 225.507812 64.664062 227.386719 65.285156 229.25 65.953125 C 231.113281 66.617188 232.960938 67.332031 234.789062 68.089844 C 236.617188 68.847656 238.425781 69.648438 240.21875 70.496094 C 242.007812 71.34375 243.773438 72.234375 245.519531 73.167969 C 247.265625 74.101562 248.988281 75.078125 250.683594 76.09375 C 252.382812 77.113281 254.054688 78.171875 255.699219 79.273438 C 257.347656 80.375 258.964844 81.511719 260.554688 82.691406 C 262.144531 83.875 263.703125 85.089844 265.234375 86.347656 C 266.761719 87.605469 268.261719 88.898438 269.730469 90.226562 C 271.195312 91.558594 272.628906 92.921875 274.027344 94.324219 C 275.425781 95.722656 276.792969 97.15625 278.121094 98.625 C 279.449219 100.09375 280.742188 101.59375 282 103.125 C 283.253906 104.65625 284.472656 106.214844 285.652344 107.804688 C 286.832031 109.398438 287.96875 111.015625 289.070312 112.664062 C 290.167969 114.308594 291.226562 115.984375 292.246094 117.679688 C 293.261719 119.378906 294.238281 121.101562 295.171875 122.851562 C 296.105469 124.597656 296.992188 126.363281 297.839844 128.15625 C 298.6875 129.945312 299.488281 131.757812 300.246094 133.585938 C 301.003906 135.414062 301.714844 137.261719 302.382812 139.128906 C 303.050781 140.992188 303.671875 142.871094 304.246094 144.769531 C 304.820312 146.664062 305.347656 148.570312 305.828125 150.492188 C 306.308594 152.414062 306.742188 154.347656 307.128906 156.289062 C 307.515625 158.230469 307.851562 160.183594 308.144531 162.140625 C 308.433594 164.101562 308.675781 166.066406 308.871094 168.035156 C 309.0625 170.007812 309.210938 171.984375 309.308594 173.960938 C 309.402344 175.9375 309.453125 177.917969 309.453125 179.898438 Z M 309.453125 179.898438 " fill-opacity="1" fill-rule="nonzero"/><path fill="#ffcd59" d="M 309.421875 182.425781 C 308.074219 248.097656 254.457031 300.921875 188.507812 300.921875 C 122.550781 300.921875 68.933594 248.097656 67.589844 182.425781 C 68.933594 116.753906 122.550781 63.929688 188.507812 63.929688 C 254.457031 63.929688 308.074219 116.753906 309.421875 182.425781 Z M 309.421875 182.425781 " fill-opacity="1" fill-rule="evenodd"/><path fill="#ffffff" d="M 113.847656 98.25 C 124.800781 90.597656 137.128906 89.339844 141.386719 95.4375 C 145.640625 101.535156 140.214844 112.6875 129.257812 120.339844 C 118.308594 127.992188 105.976562 129.25 101.71875 123.152344 C 97.464844 117.050781 102.890625 105.902344 113.847656 98.25 Z M 96.296875 130.984375 C 101.757812 130.984375 106.1875 135.414062 106.1875 140.878906 C 106.1875 146.34375 101.757812 150.777344 96.296875 150.777344 C 90.832031 150.777344 86.40625 146.34375 86.40625 140.878906 C 86.40625 135.414062 90.832031 130.984375 96.296875 130.984375 Z M 96.296875 130.984375 " fill-opacity="1" fill-rule="evenodd"/><path fill="#c46019" d="M 130.5 198.867188 C 127.488281 198.234375 124.621094 196.75 122.296875 194.421875 C 115.902344 188.023438 115.902344 177.554688 122.296875 171.160156 L 175.546875 117.871094 C 175.9375 117.382812 176.351562 116.914062 176.800781 116.464844 L 176.804688 116.460938 C 180.019531 113.246094 184.265625 111.644531 188.507812 111.664062 C 192.746094 111.644531 196.992188 113.246094 200.207031 116.460938 L 200.210938 116.464844 C 200.660156 116.914062 201.074219 117.382812 201.464844 117.871094 L 220.261719 136.683594 L 220.261719 129.605469 C 220.261719 122.5 226.074219 116.683594 233.175781 116.683594 C 240.28125 116.683594 246.089844 122.5 246.089844 129.605469 L 246.089844 162.527344 L 254.714844 171.160156 C 261.109375 177.554688 261.109375 188.023438 254.714844 194.421875 C 252.386719 196.75 249.523438 198.234375 246.507812 198.867188 L 246.507812 241.050781 C 246.507812 251.480469 237.984375 260.007812 227.566406 260.007812 C 217.144531 260.007812 208.621094 251.480469 208.621094 241.050781 L 208.621094 219.074219 C 208.621094 208.003906 199.570312 198.949219 188.503906 198.949219 C 177.441406 198.949219 168.390625 208.003906 168.390625 219.074219 L 168.390625 241.050781 C 168.390625 251.480469 159.867188 260.007812 149.445312 260.007812 C 139.023438 260.007812 130.5 251.480469 130.5 241.050781 Z M 130.5 198.867188 " fill-opacity="1" fill-rule="evenodd"/><path fill="#ff8228" d="M 130.5 198.867188 C 127.488281 198.234375 124.621094 196.75 122.296875 194.421875 L 122.292969 194.421875 C 120.699219 192.824219 119.5 190.972656 118.703125 188.992188 C 119.5 187.015625 120.699219 185.164062 122.292969 183.566406 L 175.550781 130.277344 C 175.9375 129.789062 176.351562 129.320312 176.800781 128.871094 L 176.804688 128.867188 C 180.019531 125.652344 184.265625 124.050781 188.507812 124.070312 C 192.746094 124.050781 196.992188 125.652344 200.207031 128.867188 L 200.207031 128.871094 C 200.660156 129.320312 201.074219 129.789062 201.460938 130.277344 L 220.261719 149.089844 L 220.261719 142.011719 C 220.261719 134.90625 226.074219 129.089844 233.175781 129.089844 C 240.28125 129.089844 246.089844 134.90625 246.089844 142.011719 L 246.089844 174.933594 L 254.714844 183.566406 C 256.3125 185.164062 257.511719 187.015625 258.308594 188.992188 C 257.511719 190.972656 256.3125 192.824219 254.714844 194.421875 C 252.386719 196.753906 249.523438 198.234375 246.507812 198.867188 L 246.507812 241.050781 C 246.507812 251.480469 237.984375 260.007812 227.566406 260.007812 C 217.144531 260.007812 208.617188 251.480469 208.617188 241.050781 L 208.617188 219.074219 C 208.617188 208.003906 199.570312 198.949219 188.503906 198.949219 C 177.441406 198.949219 168.390625 208.003906 168.390625 219.074219 L 168.390625 241.050781 C 168.390625 251.476562 159.867188 260.007812 149.445312 260.007812 C 139.023438 260.007812 130.5 251.480469 130.5 241.050781 Z M 130.5 198.867188 " fill-opacity="1" fill-rule="evenodd"/></svg>